SeanSans-WideMedium.ufo
<glyph name="exclam" format="1">
  <advance width="260"/>
  <unicode hex="0021"/>
  <outline>
    <contour>
      <point x="167" y="229" type="line"/>
      <point x="180" y="722" type="line"/>
      <point x="79" y="722" type="line"/>
      <point x="91" y="229" type="line"/>
    </contour>
    <contour>
      <point x="189" y="40" type="curve"/>
      <point x="189" y="73"/>
      <point x="164" y="89"/>
      <point x="129" y="89" type="curve"/>
      <point x="96" y="89"/>
      <point x="73" y="71"/>
      <point x="73" y="40" type="curve"/>
      <point x="178" y="40"/>
      <point x="83" y="40"/>
      <point x="189" y="40" type="curve"/>
      <point x="189" y="7"/>
      <point x="164" y="-8"/>
      <point x="129" y="-8" type="curve"/>
      <point x="95" y="-8"/>
      <point x="73" y="8"/>
      <point x="73" y="40" type="curve"/>
      <point x="178" y="40"/>
      <point x="83" y="40"/>
    </contour>
  </outline>
</glyph>
<glyph name="quotedbl" format="1">
  <advance width="450"/>
  <unicode hex="0022"/>
  <outline>
    <contour>
      <point x="158" y="612" type="line"/>
      <point x="165" y="824" type="line"/>
      <point x="57" y="824" type="line"/>
      <point x="63" y="612" type="line"/>
    </contour>
    <contour>
      <point x="387" y="612" type="line"/>
      <point x="394" y="824" type="line"/>
      <point x="286" y="824" type="line"/>
      <point x="293" y="612" type="line"/>
    </contour>
  </outline>
</glyph>
<glyph name="numbersign" format="1">
  <advance width="823"/>
  <unicode hex="0023"/>
  <outline>
    <contour>
      <point x="37" y="230" type="curve"/>
      <point x="669" y="230" type="curve"/>
      <point x="698" y="302" type="curve"/>
      <point x="67" y="302" type="curve"/>
    </contour>
    <contour>
      <point x="124" y="457" type="curve"/>
      <point x="760" y="457" type="curve"/>
      <point x="787" y="528" type="curve"/>
      <point x="152" y="528" type="curve"/>
    </contour>
    <contour>
      <point x="503" y="39" type="curve"/>
      <point x="776" y="722" type="curve"/>
      <point x="681" y="722" type="curve"/>
      <point x="406" y="39" type="curve"/>
    </contour>
    <contour>
      <point x="160" y="46" type="curve"/>
      <point x="430" y="722" type="curve"/>
      <point x="334" y="722" type="curve"/>
      <point x="68" y="46" type="curve"/>
    </contour>
  </outline>
</glyph>
<glyph name="dollar" format="1">
  <advance width="669"/>
  <unicode hex="0024"/>
  <outline>
    <contour>
      <point x="356" y="-41" type="curve"/>
      <point x="356" y="-9"/>
      <point x="356" y="49"/>
      <point x="356" y="81" type="curve"/>
      <point x="260" y="81"/>
      <point x="356" y="81"/>
      <point x="260" y="81" type="curve"/>
      <point x="260" y="49"/>
      <point x="260" y="-9"/>
      <point x="260" y="-41" type="curve"/>
      <point x="356" y="-41"/>
      <point x="260" y="-41"/>
    </contour>
    <contour>
      <point x="371" y="649" type="curve"/>
      <point x="371" y="680"/>
      <point x="371" y="742"/>
      <point x="371" y="773" type="curve"/>
      <point x="275" y="773"/>
      <point x="371" y="773"/>
      <point x="275" y="773" type="curve"/>
      <point x="275" y="742"/>
      <point x="275" y="680"/>
      <point x="275" y="649" type="curve"/>
      <point x="371" y="649"/>
      <point x="275" y="649"/>
    </contour>
    <contour>
      <point x="43" y="95" type="curve"/>
      <point x="117" y="67"/>
      <point x="205" y="44"/>
      <point x="303" y="44" type="curve"/>
      <point x="476" y="44"/>
      <point x="627" y="76"/>
      <point x="627" y="211" type="curve"/>
      <point x="627" y="334"/>
      <point x="490" y="364"/>
      <point x="354" y="407" type="curve"/>
      <point x="253" y="439"/>
      <point x="155" y="455"/>
      <point x="155" y="530" type="curve"/>
      <point x="155" y="598"/>
      <point x="235" y="614"/>
      <point x="327" y="614" type="curve"/>
      <point x="410" y="614"/>
      <point x="468" y="602"/>
      <point x="549" y="572" type="curve"/>
      <point x="590" y="634"/>
      <point x="549" y="572"/>
      <point x="590" y="634" type="curve"/>
      <point x="501" y="668"/>
      <point x="430" y="686"/>
      <point x="332" y="686" type="curve"/>
      <point x="182" y="686"/>
      <point x="59" y="649"/>
      <point x="59" y="530" type="curve"/>
      <point x="59" y="414"/>
      <point x="169" y="382"/>
      <point x="298" y="342" type="curve"/>
      <point x="408" y="308"/>
      <point x="531" y="292"/>
      <point x="531" y="208" type="curve"/>
      <point x="531" y="132"/>
      <point x="427" y="116"/>
      <point x="312" y="116" type="curve"/>
      <point x="230" y="116"/>
      <point x="156" y="137"/>
      <point x="86" y="161" type="curve"/>
      <point x="43" y="94"/>
      <point x="86" y="161"/>
    </contour>
  </outline>
</glyph>
<glyph name="percent" format="1">
  <advance width="1305"/>
  <unicode hex="0025"/>
  <outline>
    <contour>
      <point x="442" y="-60" type="line"/>
      <point x="981" y="728" type="line"/>
      <point x="891" y="728" type="line"/>
      <point x="353" y="-60" type="line"/>
    </contour>
    <contour>
      <point x="124" y="515" type="curve"/>
      <point x="124" y="605"/>
      <point x="179" y="660"/>
      <point x="268" y="660" type="curve"/>
      <point x="359" y="661"/>
      <point x="414" y="605"/>
      <point x="414" y="514" type="curve"/>
      <point x="414" y="424"/>
      <point x="363" y="366"/>
      <point x="274" y="366" type="curve"/>
      <point x="181" y="366"/>
      <point x="124" y="422"/>
      <point x="124" y="515" type="curve"/>
      <point x="90" y="515"/>
      <point x="67" y="515"/>
      <point x="33" y="515" type="curve"/>
      <point x="33" y="375"/>
      <point x="126" y="295"/>
      <point x="269" y="295" type="curve"/>
      <point x="414" y="295"/>
      <point x="509" y="376"/>
      <point x="509" y="518" type="curve"/>
      <point x="509" y="655"/>
      <point x="414" y="731"/>
      <point x="272" y="732" type="curve"/>
      <point x="129" y="732"/>
      <point x="33" y="654"/>
      <point x="33" y="515" type="curve"/>
      <point x="67" y="515"/>
      <point x="90" y="515"/>
    </contour>
    <contour>
      <point x="888" y="152" type="curve"/>
      <point x="888" y="242"/>
      <point x="943" y="298"/>
      <point x="1032" y="298" type="curve"/>
      <point x="1123" y="299"/>
      <point x="1178" y="243"/>
      <point x="1178" y="152" type="curve"/>
      <point x="1178" y="62"/>
      <point x="1127" y="4"/>
      <point x="1038" y="4" type="curve"/>
      <point x="945" y="4"/>
      <point x="888" y="60"/>
      <point x="888" y="152" type="curve"/>
      <point x="854" y="152"/>
      <point x="831" y="152"/>
      <point x="797" y="152" type="curve"/>
      <point x="797" y="13"/>
      <point x="890" y="-67"/>
      <point x="1033" y="-67" type="curve"/>
      <point x="1178" y="-67"/>
      <point x="1272" y="14"/>
      <point x="1272" y="155" type="curve"/>
      <point x="1272" y="293"/>
      <point x="1178" y="369"/>
      <point x="1036" y="370" type="curve"/>
      <point x="893" y="370"/>
      <point x="797" y="292"/>
      <point x="797" y="152" type="curve"/>
      <point x="831" y="152"/>
      <point x="854" y="152"/>
    </contour>
  </outline>
</glyph>
<glyph name="ampersand" format="1">
  <advance width="841"/>
  <unicode hex="0026"/>
  <outline>
    <contour>
      <point x="817" y="49" type="line"/>
      <point x="685" y="150"/>
      <point x="543" y="261"/>
      <point x="408" y="365" type="curve"/>
      <point x="333" y="426"/>
      <point x="237" y="463"/>
      <point x="237" y="561" type="curve"/>
      <point x="237" y="621"/>
      <point x="286" y="655"/>
      <point x="350" y="655" type="curve"/>
      <point x="423" y="655"/>
      <point x="483" y="629"/>
      <point x="483" y="563" type="curve"/>
      <point x="483" y="469"/>
      <point x="393" y="444"/>
      <point x="302" y="406" type="curve"/>
      <point x="179" y="353"/>
      <point x="56" y="319"/>
      <point x="56" y="190" type="curve"/>
      <point x="56" y="50"/>
      <point x="187" y="-5"/>
      <point x="344" y="-5" type="curve"/>
      <point x="560" y="-5"/>
      <point x="707" y="113"/>
      <point x="792" y="314" type="curve"/>
      <point x="709" y="333"/>
      <point x="792" y="314"/>
      <point x="709" y="333" type="curve"/>
      <point x="639" y="168"/>
      <point x="523" y="67"/>
      <point x="348" y="67" type="curve"/>
      <point x="242" y="67"/>
      <point x="151" y="97"/>
      <point x="151" y="190" type="curve"/>
      <point x="151" y="288"/>
      <point x="248" y="308"/>
      <point x="341" y="348" type="curve"/>
      <point x="461" y="400"/>
      <point x="577" y="438"/>
      <point x="578" y="563" type="curve"/>
      <point x="578" y="676"/>
      <point x="478" y="727"/>
      <point x="355" y="727" type="curve"/>
      <point x="235" y="727"/>
      <point x="143" y="671"/>
      <point x="143" y="561" type="curve"/>
      <point x="143" y="444"/>
      <point x="250" y="393"/>
      <point x="343" y="322" type="curve"/>
      <point x="475" y="218"/>
      <point x="638" y="93"/>
      <point x="768" y="-9" type="curve"/>
    </contour>
  </outline>
</glyph>
<glyph name="parenleft" format="1">
  <advance width="430"/>
  <unicode hex="0028"/>
  <outline>
    <contour>
      <point x="427" y="-218" type="curve"/>
      <point x="240" y="-70"/>
      <point x="141" y="86"/>
      <point x="141" y="326" type="curve"/>
      <point x="141" y="566"/>
      <point x="240" y="721"/>
      <point x="426" y="872" type="curve"/>
      <point x="369" y="919"/>
      <point x="426" y="872"/>
      <point x="369" y="919" type="curve"/>
      <point x="162" y="756"/>
      <point x="46" y="590"/>
      <point x="46" y="326" type="curve"/>
      <point x="46" y="61"/>
      <point x="162" y="-104"/>
      <point x="371" y="-268" type="curve"/>
      <point x="427" y="-218"/>
      <point x="371" y="-268"/>
    </contour>
  </outline>
</glyph>
<glyph name="parenright" format="1">
  <advance width="444"/>
  <unicode hex="0029"/>
  <outline>
    <contour>
      <point x="57" y="-283" type="curve"/>
      <point x="269" y="-110"/>
      <point x="398" y="54"/>
      <point x="398" y="328" type="curve"/>
      <point x="398" y="596"/>
      <point x="276" y="759"/>
      <point x="62" y="920" type="curve"/>
      <point x="5" y="870"/>
      <point x="62" y="920"/>
      <point x="5" y="870" type="curve"/>
      <point x="197" y="720"/>
      <point x="303" y="567"/>
      <point x="303" y="325" type="curve"/>
      <point x="303" y="77"/>
      <point x="188" y="-75"/>
      <point x="0" y="-236" type="curve"/>
      <point x="57" y="-283"/>
      <point x="0" y="-236"/>
    </contour>
  </outline>
</glyph>
<glyph name="asterisk" format="1">
  <advance width="611"/>
  <unicode hex="002A"/>
  <outline>
    <contour>
      <point x="337" y="604" type="line"/>
      <point x="342" y="817" type="line"/>
      <point x="262" y="817" type="line"/>
      <point x="267" y="604" type="line"/>
    </contour>
    <contour>
      <point x="351" y="550" type="line"/>
      <point x="554" y="615" type="line"/>
      <point x="527" y="690" type="line"/>
      <point x="328" y="616" type="line"/>
    </contour>
    <contour>
      <point x="304" y="519" type="line"/>
      <point x="432" y="349" type="line"/>
      <point x="493" y="399" type="line"/>
      <point x="357" y="563" type="line"/>
    </contour>
    <contour>
      <point x="260" y="558" type="line"/>
      <point x="124" y="395" type="line"/>
      <point x="187" y="345" type="line"/>
      <point x="314" y="514" type="line"/>
    </contour>
    <contour>
      <point x="281" y="608" type="line"/>
      <point x="83" y="683" type="line"/>
      <point x="56" y="608" type="line"/>
      <point x="258" y="543" type="line"/>
    </contour>
  </outline>
</glyph>
<glyph name="plus" format="1">
  <advance width="683"/>
  <unicode hex="002B"/>
  <outline>
    <contour>
      <point x="39" y="272" type="curve"/>
      <point x="643" y="272" type="line"/>
      <point x="643" y="351"/>
      <point x="643" y="272"/>
      <point x="643" y="351" type="curve"/>
      <point x="39" y="351" type="line"/>
      <point x="39" y="272"/>
      <point x="39" y="351"/>
    </contour>
    <contour>
      <point x="386" y="20" type="curve"/>
      <point x="386" y="587" type="line"/>
      <point x="291" y="587"/>
      <point x="392" y="587"/>
      <point x="296" y="587" type="curve"/>
      <point x="296" y="20" type="line"/>
      <point x="392" y="20"/>
      <point x="291" y="20"/>
    </contour>
  </outline>
</glyph>
<glyph name="comma" format="1">
  <advance width="201"/>
  <unicode hex="002C"/>
  <outline>
    <contour>
      <point x="21" y="-121" type="line"/>
      <point x="100" y="-109"/>
      <point x="158" y="-54"/>
      <point x="158" y="30" type="curve"/>
      <point x="158" y="83"/>
      <point x="133" y="125"/>
      <point x="89" y="125" type="curve"/>
      <point x="55" y="125"/>
      <point x="31" y="109"/>
      <point x="31" y="77" type="curve"/>
      <point x="31" y="45"/>
      <point x="54" y="28"/>
      <point x="89" y="26" type="curve"/>
      <point x="88" y="-10"/>
      <point x="72" y="-51"/>
      <point x="14" y="-69" type="curve"/>
    </contour>
  </outline>
</glyph>
<glyph name="hyphen" format="1">
  <advance width="506"/>
  <unicode hex="002D"/>
  <outline>
    <contour>
      <point x="69" y="239" type="curve"/>
      <point x="191" y="239"/>
      <point x="314" y="239"/>
      <point x="437" y="239" type="curve"/>
      <point x="437" y="318"/>
      <point x="437" y="239"/>
      <point x="437" y="318" type="curve"/>
      <point x="314" y="318"/>
      <point x="191" y="318"/>
      <point x="69" y="318" type="curve"/>
      <point x="69" y="239"/>
      <point x="69" y="318"/>
    </contour>
  </outline>
</glyph>
<glyph name="period" format="1">
  <advance width="232"/>
  <unicode hex="002E"/>
  <outline>
    <contour>
      <point x="174" y="40" type="curve"/>
      <point x="174" y="73"/>
      <point x="149" y="89"/>
      <point x="115" y="89" type="curve"/>
      <point x="81" y="89"/>
      <point x="58" y="71"/>
      <point x="58" y="40" type="curve"/>
      <point x="164" y="40"/>
      <point x="68" y="40"/>
      <point x="174" y="40" type="curve"/>
      <point x="174" y="7"/>
      <point x="149" y="-8"/>
      <point x="115" y="-8" type="curve"/>
      <point x="81" y="-8"/>
      <point x="58" y="8"/>
      <point x="58" y="40" type="curve"/>
      <point x="164" y="40"/>
      <point x="68" y="40"/>
    </contour>
  </outline>
</glyph>
<glyph name="slash" format="1">
  <advance width="681"/>
  <unicode hex="002F"/>
  <outline>
    <contour>
      <point x="120" y="-36" type="curve"/>
      <point x="299" y="245"/>
      <point x="479" y="527"/>
      <point x="658" y="808" type="curve"/>
      <point x="562" y="808"/>
      <point x="658" y="808"/>
      <point x="562" y="808" type="curve"/>
      <point x="383" y="527"/>
      <point x="203" y="245"/>
      <point x="24" y="-36" type="curve"/>
      <point x="120" y="-36"/>
      <point x="24" y="-36"/>
    </contour>
  </outline>
</glyph>
<glyph name="zero" format="1">
  <advance width="871"/>
  <unicode hex="0030"/>
  <outline>
    <contour>
      <point x="154" y="360" type="curve"/>
      <point x="154" y="542"/>
      <point x="257" y="651"/>
      <point x="434" y="651" type="curve"/>
      <point x="611" y="651"/>
      <point x="717" y="544"/>
      <point x="717" y="363" type="curve"/>
      <point x="717" y="181"/>
      <point x="615" y="72"/>
      <point x="442" y="72" type="curve"/>
      <point x="263" y="72"/>
      <point x="154" y="177"/>
      <point x="154" y="360" type="curve"/>
      <point x="57" y="360"/>
      <point x="153" y="360"/>
      <point x="56" y="360" type="curve"/>
      <point x="56" y="127"/>
      <point x="203" y="-5"/>
      <point x="438" y="-5" type="curve"/>
      <point x="671" y="-5"/>
      <point x="815" y="129"/>
      <point x="815" y="363" type="curve"/>
      <point x="815" y="594"/>
      <point x="673" y="727"/>
      <point x="442" y="727" type="curve"/>
      <point x="205" y="727"/>
      <point x="56" y="595"/>
      <point x="56" y="360" type="curve"/>
      <point x="153" y="360"/>
      <point x="57" y="360"/>
    </contour>
  </outline>
</glyph>
<glyph name="one" format="1">
  <advance width="432"/>
  <unicode hex="0031"/>
  <outline>
    <contour>
      <point x="60" y="491" type="curve"/>
      <point x="331" y="673"/>
      <point x="60" y="491"/>
      <point x="331" y="673" type="curve"/>
      <point x="260" y="722"/>
      <point x="331" y="673"/>
      <point x="260" y="722" type="curve"/>
      <point x="16" y="561"/>
      <point x="260" y="722"/>
      <point x="16" y="561" type="curve"/>
      <point x="60" y="491"/>
      <point x="16" y="561"/>
    </contour>
    <contour>
      <point x="355" y="0" type="curve"/>
      <point x="355" y="241"/>
      <point x="355" y="481"/>
      <point x="355" y="722" type="curve"/>
      <point x="260" y="722"/>
      <point x="355" y="722"/>
      <point x="260" y="722" type="curve"/>
      <point x="260" y="481"/>
      <point x="260" y="241"/>
      <point x="260" y="0" type="curve"/>
      <point x="355" y="0"/>
      <point x="260" y="0"/>
    </contour>
  </outline>
</glyph>
<glyph name="two" format="1">
  <advance width="699"/>
  <unicode hex="0032"/>
  <outline>
    <contour>
      <point x="40" y="0" type="curve"/>
      <point x="269" y="0"/>
      <point x="462" y="0"/>
      <point x="652" y="0" type="curve"/>
      <point x="652" y="72"/>
      <point x="652" y="0"/>
      <point x="652" y="72" type="curve"/>
      <point x="447" y="72"/>
      <point x="244" y="72"/>
      <point x="40" y="72" type="curve"/>
      <point x="40" y="0"/>
      <point x="40" y="72"/>
    </contour>
    <contour>
      <point x="120" y="531" type="curve"/>
      <point x="187" y="610"/>
      <point x="248" y="651"/>
      <point x="343" y="651" type="curve"/>
      <point x="447" y="651"/>
      <point x="523" y="612"/>
      <point x="523" y="513" type="curve"/>
      <point x="523" y="398"/>
      <point x="428" y="336"/>
      <point x="322" y="266" type="curve"/>
      <point x="228" y="201"/>
      <point x="134" y="137"/>
      <point x="40" y="72" type="curve"/>
      <point x="45" y="0"/>
      <point x="40" y="72"/>
      <point x="45" y="0" type="curve"/>
      <point x="187" y="69"/>
      <point x="283" y="140"/>
      <point x="383" y="209" type="curve"/>
      <point x="511" y="292"/>
      <point x="612" y="363"/>
      <point x="612" y="516" type="curve"/>
      <point x="612" y="664"/>
      <point x="504" y="727"/>
      <point x="347" y="727" type="curve"/>
      <point x="220" y="727"/>
      <point x="124" y="678"/>
      <point x="56" y="576" type="curve"/>
      <point x="120" y="531"/>
      <point x="56" y="576"/>
    </contour>
  </outline>
</glyph>
<glyph name="three" format="1">
  <advance width="652"/>
  <unicode hex="0033"/>
  <outline>
    <contour>
      <point x="44" y="55" type="curve"/>
      <point x="110" y="18"/>
      <point x="189" y="-5"/>
      <point x="285" y="-5" type="curve"/>
      <point x="463" y="-5"/>
      <point x="599" y="42"/>
      <point x="599" y="211" type="curve"/>
      <point x="599" y="359"/>
      <point x="419" y="406"/>
      <point x="180" y="406" type="curve"/>
      <point x="180" y="345"/>
      <point x="180" y="405"/>
      <point x="180" y="345" type="curve"/>
      <point x="341" y="345"/>
      <point x="507" y="316"/>
      <point x="507" y="208" type="curve"/>
      <point x="507" y="91"/>
      <point x="397" y="72"/>
      <point x="287" y="72" type="curve"/>
      <point x="223" y="72"/>
      <point x="158" y="87"/>
      <point x="85" y="118" type="curve"/>
      <point x="44" y="55"/>
      <point x="85" y="118"/>
    </contour>
    <contour>
      <point x="96" y="586" type="curve"/>
      <point x="140" y="622"/>
      <point x="209" y="650"/>
      <point x="280" y="650" type="curve"/>
      <point x="385" y="650"/>
      <point x="465" y="630"/>
      <point x="465" y="538" type="curve"/>
      <point x="465" y="443"/>
      <point x="325" y="414"/>
      <point x="180" y="414" type="curve"/>
      <point x="180" y="353"/>
      <point x="180" y="413"/>
      <point x="180" y="352" type="curve"/>
      <point x="385" y="352"/>
      <point x="557" y="397"/>
      <point x="557" y="541" type="curve"/>
      <point x="557" y="680"/>
      <point x="440" y="727"/>
      <point x="287" y="727" type="curve"/>
      <point x="188" y="727"/>
      <point x="97" y="688"/>
      <point x="47" y="642" type="curve"/>
      <point x="96" y="586"/>
      <point x="47" y="642"/>
    </contour>
  </outline>
</glyph>
<glyph name="four" format="1">
  <advance width="741"/>
  <unicode hex="0034"/>
  <outline>
    <contour>
      <point x="54" y="250" type="line"/>
      <point x="481" y="675" type="line"/>
      <point x="408" y="708" type="line"/>
      <point x="18" y="322" type="line"/>
    </contour>
    <contour>
      <point x="705" y="322" type="line"/>
      <point x="18" y="322" type="line"/>
      <point x="18" y="242" type="line"/>
      <point x="705" y="242" type="line"/>
    </contour>
    <contour>
      <point x="504" y="0" type="line"/>
      <point x="504" y="708" type="line"/>
      <point x="408" y="708" type="line"/>
      <point x="408" y="0" type="line"/>
    </contour>
  </outline>
</glyph>
<glyph name="five" format="1">
  <advance width="646"/>
  <unicode hex="0035"/>
  <outline>
    <contour>
      <point x="96" y="722" type="curve"/>
      <point x="96" y="624"/>
      <point x="96" y="511"/>
      <point x="96" y="385" type="curve"/>
      <point x="187" y="364"/>
      <point x="96" y="385"/>
      <point x="187" y="364" type="curve"/>
      <point x="187" y="456"/>
      <point x="187" y="558"/>
      <point x="187" y="650" type="curve"/>
      <point x="96" y="722"/>
      <point x="187" y="650"/>
    </contour>
    <contour>
      <point x="187" y="364" type="curve"/>
      <point x="214" y="380"/>
      <point x="271" y="390"/>
      <point x="308" y="390" type="curve"/>
      <point x="424" y="390"/>
      <point x="503" y="339"/>
      <point x="503" y="234" type="curve"/>
      <point x="503" y="128"/>
      <point x="405" y="72"/>
      <point x="288" y="72" type="curve"/>
      <point x="217" y="72"/>
      <point x="160" y="83"/>
      <point x="89" y="110" type="curve"/>
      <point x="47" y="43"/>
      <point x="89" y="110"/>
      <point x="47" y="43" type="curve"/>
      <point x="125" y="11"/>
      <point x="198" y="-5"/>
      <point x="285" y="-5" type="curve"/>
      <point x="456" y="-5"/>
      <point x="599" y="76"/>
      <point x="599" y="234" type="curve"/>
      <point x="599" y="385"/>
      <point x="477" y="467"/>
      <point x="313" y="467" type="curve"/>
      <point x="241" y="467"/>
      <point x="151" y="444"/>
      <point x="97" y="390" type="curve"/>
      <point x="187" y="364"/>
      <point x="97" y="389"/>
    </contour>
    <contour>
      <point x="566" y="722" type="curve"/>
      <point x="399" y="722"/>
      <point x="249" y="722"/>
      <point x="96" y="722" type="curve"/>
      <point x="187" y="650"/>
      <point x="96" y="722"/>
      <point x="187" y="650" type="curve"/>
      <point x="311" y="650"/>
      <point x="429" y="650"/>
      <point x="566" y="650" type="curve"/>
      <point x="566" y="722"/>
      <point x="566" y="650"/>
    </contour>
  </outline>
</glyph>
<glyph name="six" format="1">
  <advance width="714"/>
  <unicode hex="0036"/>
  <outline>
    <contour>
      <point x="130" y="226" type="curve"/>
      <point x="183" y="320"/>
      <point x="267" y="357"/>
      <point x="375" y="357" type="curve"/>
      <point x="486" y="357"/>
      <point x="566" y="317"/>
      <point x="566" y="215" type="curve"/>
      <point x="566" y="116"/>
      <point x="485" y="76"/>
      <point x="377" y="76" type="curve"/>
      <point x="242" y="76"/>
      <point x="144" y="131"/>
      <point x="144" y="252" type="curve"/>
      <point x="144" y="514"/>
      <point x="377" y="597"/>
      <point x="650" y="660" type="curve"/>
      <point x="629" y="732"/>
      <point x="650" y="660"/>
      <point x="629" y="732" type="curve"/>
      <point x="326" y="669"/>
      <point x="52" y="557"/>
      <point x="52" y="248" type="curve"/>
      <point x="52" y="74"/>
      <point x="186" y="-9"/>
      <point x="373" y="-9" type="curve"/>
      <point x="541" y="-9"/>
      <point x="663" y="61"/>
      <point x="663" y="216" type="curve"/>
      <point x="663" y="368"/>
      <point x="544" y="433"/>
      <point x="383" y="433" type="curve"/>
      <point x="239" y="433"/>
      <point x="132" y="365"/>
      <point x="66" y="260" type="curve"/>
      <point x="130" y="226"/>
      <point x="66" y="260"/>
    </contour>
  </outline>
</glyph>
<glyph name="eight" format="1">
  <advance width="694"/>
  <unicode hex="0038"/>
  <outline>
    <contour>
      <point x="80" y="547" type="curve"/>
      <point x="80" y="419"/>
      <point x="193" y="398"/>
      <point x="319" y="353" type="curve"/>
      <point x="435" y="310"/>
      <point x="541" y="295"/>
      <point x="541" y="184" type="curve"/>
      <point x="541" y="92"/>
      <point x="456" y="69"/>
      <point x="346" y="69" type="curve"/>
      <point x="235" y="69"/>
      <point x="152" y="92"/>
      <point x="152" y="184" type="curve"/>
      <point x="152" y="297"/>
      <point x="261" y="310"/>
      <point x="379" y="353" type="curve"/>
      <point x="501" y="401"/>
      <point x="613" y="419"/>
      <point x="613" y="546" type="curve"/>
      <point x="613" y="685"/>
      <point x="503" y="727"/>
      <point x="346" y="727" type="curve"/>
      <point x="194" y="727"/>
      <point x="80" y="682"/>
      <point x="80" y="547" type="curve"/>
      <point x="176" y="547"/>
      <point x="80" y="547"/>
      <point x="176" y="547" type="curve"/>
      <point x="176" y="628"/>
      <point x="248" y="653"/>
      <point x="341" y="653" type="curve"/>
      <point x="443" y="653"/>
      <point x="518" y="631"/>
      <point x="518" y="546" type="curve"/>
      <point x="518" y="448"/>
      <point x="420" y="440"/>
      <point x="318" y="403" type="curve"/>
      <point x="178" y="351"/>
      <point x="56" y="326"/>
      <point x="56" y="184" type="curve"/>
      <point x="56" y="39"/>
      <point x="177" y="-5"/>
      <point x="341" y="-5" type="curve"/>
      <point x="509" y="-5"/>
      <point x="637" y="35"/>
      <point x="637" y="184" type="curve"/>
      <point x="637" y="324"/>
      <point x="515" y="352"/>
      <point x="379" y="403" type="curve"/>
      <point x="275" y="442"/>
      <point x="176" y="450"/>
      <point x="176" y="547" type="curve"/>
      <point x="80" y="547"/>
      <point x="176" y="547"/>
    </contour>
  </outline>
</glyph>
<glyph name="nine" format="1">
  <advance width="714"/>
  <unicode hex="0039"/>
  <outline>
    <contour>
      <point x="584" y="494" type="curve"/>
      <point x="531" y="401"/>
      <point x="456" y="365"/>
      <point x="347" y="365" type="curve"/>
      <point x="232" y="365"/>
      <point x="146" y="405"/>
      <point x="146" y="510" type="curve"/>
      <point x="146" y="608"/>
      <point x="229" y="646"/>
      <point x="336" y="646" type="curve"/>
      <point x="471" y="646"/>
      <point x="569" y="593"/>
      <point x="569" y="470" type="curve"/>
      <point x="569" y="209"/>
      <point x="344" y="117"/>
      <point x="64" y="66" type="curve"/>
      <point x="86" y="-10"/>
      <point x="64" y="66"/>
      <point x="85" y="-10" type="curve"/>
      <point x="404" y="38"/>
      <point x="661" y="165"/>
      <point x="661" y="474" type="curve"/>
      <point x="661" y="648"/>
      <point x="528" y="731"/>
      <point x="340" y="731" type="curve"/>
      <point x="172" y="731"/>
      <point x="51" y="661"/>
      <point x="51" y="506" type="curve"/>
      <point x="51" y="354"/>
      <point x="173" y="289"/>
      <point x="338" y="289" type="curve"/>
      <point x="481" y="289"/>
      <point x="576" y="346"/>
      <point x="631" y="470" type="curve"/>
      <point x="584" y="494"/>
      <point x="631" y="470"/>
    </contour>
  </outline>
</glyph>
<glyph name="colon" format="1">
  <advance width="250"/>
  <unicode hex="003A"/>
  <outline>
    <contour>
      <point x="181" y="400" type="curve"/>
      <point x="181" y="433"/>
      <point x="156" y="449"/>
      <point x="122" y="449" type="curve"/>
      <point x="88" y="449"/>
      <point x="65" y="431"/>
      <point x="65" y="400" type="curve"/>
      <point x="171" y="400"/>
      <point x="75" y="400"/>
      <point x="181" y="400" type="curve"/>
      <point x="181" y="367"/>
      <point x="156" y="352"/>
      <point x="121" y="352" type="curve"/>
      <point x="87" y="352"/>
      <point x="65" y="369"/>
      <point x="65" y="400" type="curve"/>
      <point x="171" y="400"/>
      <point x="75" y="400"/>
    </contour>
    <contour>
      <point x="180" y="40" type="curve"/>
      <point x="180" y="73"/>
      <point x="155" y="89"/>
      <point x="121" y="89" type="curve"/>
      <point x="87" y="89"/>
      <point x="64" y="71"/>
      <point x="64" y="40" type="curve"/>
      <point x="170" y="40"/>
      <point x="74" y="40"/>
      <point x="180" y="40" type="curve"/>
      <point x="180" y="7"/>
      <point x="155" y="-8"/>
      <point x="121" y="-8" type="curve"/>
      <point x="87" y="-8"/>
      <point x="64" y="9"/>
      <point x="64" y="40" type="curve"/>
      <point x="170" y="40"/>
      <point x="74" y="40"/>
    </contour>
  </outline>
</glyph>
<glyph name="semicolon" format="1">
  <advance width="239"/>
  <unicode hex="003B"/>
  <outline>
    <contour>
      <point x="42" y="-129" type="line"/>
      <point x="121" y="-116"/>
      <point x="179" y="-61"/>
      <point x="179" y="23" type="curve"/>
      <point x="179" y="76"/>
      <point x="154" y="118"/>
      <point x="110" y="118" type="curve"/>
      <point x="76" y="118"/>
      <point x="52" y="102"/>
      <point x="52" y="70" type="curve"/>
      <point x="52" y="38"/>
      <point x="75" y="21"/>
      <point x="110" y="19" type="curve"/>
      <point x="109" y="-18"/>
      <point x="93" y="-58"/>
      <point x="35" y="-76" type="curve"/>
    </contour>
    <contour>
      <point x="166" y="400" type="curve"/>
      <point x="166" y="432"/>
      <point x="141" y="448"/>
      <point x="107" y="448" type="curve"/>
      <point x="73" y="448"/>
      <point x="50" y="431"/>
      <point x="50" y="400" type="curve"/>
      <point x="156" y="400"/>
      <point x="60" y="400"/>
      <point x="166" y="400" type="curve"/>
      <point x="166" y="367"/>
      <point x="141" y="352"/>
      <point x="107" y="352" type="curve"/>
      <point x="73" y="352"/>
      <point x="50" y="368"/>
      <point x="50" y="400" type="curve"/>
      <point x="156" y="400"/>
      <point x="60" y="400"/>
    </contour>
  </outline>
</glyph>
<glyph name="less" format="1">
  <advance width="865"/>
  <unicode hex="003C"/>
  <outline>
    <contour>
      <point x="802" y="610" type="curve"/>
      <point x="545" y="520"/>
      <point x="289" y="430"/>
      <point x="32" y="340" type="curve"/>
      <point x="32" y="260"/>
      <point x="32" y="340"/>
      <point x="32" y="260" type="curve"/>
      <point x="289" y="350"/>
      <point x="545" y="440"/>
      <point x="802" y="530" type="curve"/>
      <point x="802" y="610"/>
      <point x="802" y="530"/>
    </contour>
    <contour>
      <point x="815" y="76" type="curve"/>
      <point x="554" y="164"/>
      <point x="294" y="252"/>
      <point x="32" y="340" type="curve"/>
      <point x="32" y="260"/>
      <point x="32" y="340"/>
      <point x="32" y="260" type="curve"/>
      <point x="294" y="172"/>
      <point x="554" y="84"/>
      <point x="815" y="-4" type="curve"/>
      <point x="815" y="76"/>
      <point x="815" y="-4"/>
    </contour>
  </outline>
</glyph>
<glyph name="greater" format="1">
  <advance width="866"/>
  <unicode hex="003E"/>
  <outline>
    <contour>
      <point x="62" y="-4" type="curve"/>
      <point x="319" y="86"/>
      <point x="576" y="176"/>
      <point x="832" y="266" type="curve"/>
      <point x="832" y="346"/>
      <point x="832" y="266"/>
      <point x="832" y="346" type="curve"/>
      <point x="576" y="256"/>
      <point x="319" y="166"/>
      <point x="62" y="76" type="curve"/>
      <point x="62" y="-4"/>
      <point x="62" y="76"/>
    </contour>
    <contour>
      <point x="50" y="530" type="curve"/>
      <point x="310" y="442"/>
      <point x="572" y="354"/>
      <point x="832" y="266" type="curve"/>
      <point x="832" y="346"/>
      <point x="832" y="266"/>
      <point x="832" y="346" type="curve"/>
      <point x="572" y="434"/>
      <point x="310" y="522"/>
      <point x="50" y="610" type="curve"/>
      <point x="50" y="530"/>
      <point x="50" y="610"/>
    </contour>
  </outline>
</glyph>
<glyph name="question" format="1">
  <advance width="595"/>
  <unicode hex="003F"/>
  <outline>
    <contour>
      <point x="213" y="360" type="curve"/>
      <point x="213" y="323"/>
      <point x="213" y="258"/>
      <point x="213" y="221" type="curve"/>
      <point x="309" y="221"/>
      <point x="213" y="221"/>
      <point x="309" y="221" type="curve"/>
      <point x="309" y="258"/>
      <point x="309" y="323"/>
      <point x="309" y="360" type="curve"/>
      <point x="213" y="360"/>
      <point x="309" y="360"/>
    </contour>
    <contour>
      <point x="96" y="593" type="line"/>
      <point x="137" y="629"/>
      <point x="200" y="660"/>
      <point x="272" y="660" type="curve"/>
      <point x="376" y="660"/>
      <point x="459" y="617"/>
      <point x="459" y="519" type="curve"/>
      <point x="459" y="410"/>
      <point x="356" y="360"/>
      <point x="223" y="360" type="curve"/>
      <point x="223" y="333"/>
      <point x="223" y="315"/>
      <point x="223" y="288" type="curve"/>
      <point x="408" y="288"/>
      <point x="550" y="363"/>
      <point x="550" y="519" type="curve"/>
      <point x="550" y="664"/>
      <point x="432" y="735"/>
      <point x="277" y="735" type="curve"/>
      <point x="184" y="735"/>
      <point x="109" y="704"/>
      <point x="47" y="649" type="curve"/>
    </contour>
    <contour>
      <point x="318" y="17" type="curve"/>
      <point x="318" y="49"/>
      <point x="295" y="64"/>
      <point x="262" y="64" type="curve"/>
      <point x="229" y="64"/>
      <point x="206" y="47"/>
      <point x="206" y="17" type="curve"/>
      <point x="318" y="17"/>
      <point x="206" y="17"/>
      <point x="318" y="17" type="curve"/>
      <point x="318" y="-15"/>
      <point x="295" y="-29"/>
      <point x="261" y="-29" type="curve"/>
      <point x="228" y="-29"/>
      <point x="206" y="-13"/>
      <point x="206" y="17" type="curve"/>
      <point x="318" y="17"/>
      <point x="206" y="17"/>
    </contour>
  </outline>
</glyph>
<glyph name="at" format="1">
  <advance width="1022"/>
  <unicode hex="0040"/>
  <outline>
    <contour>
      <point x="717" y="-33" type="curve"/>
      <point x="648" y="-59"/>
      <point x="599" y="-66"/>
      <point x="528" y="-66" type="curve"/>
      <point x="303" y="-66"/>
      <point x="141" y="12"/>
      <point x="141" y="215" type="curve"/>
      <point x="141" y="414"/>
      <point x="303" y="489"/>
      <point x="522" y="489" type="curve"/>
      <point x="729" y="489"/>
      <point x="877" y="408"/>
      <point x="877" y="218" type="curve"/>
      <point x="877" y="153"/>
      <point x="860" y="103"/>
      <point x="805" y="103" type="curve"/>
      <point x="746" y="103"/>
      <point x="722" y="153"/>
      <point x="722" y="220" type="curve"/>
      <point x="722" y="342"/>
      <point x="636" y="405"/>
      <point x="508" y="405" type="curve"/>
      <point x="369" y="405"/>
      <point x="275" y="347"/>
      <point x="275" y="218" type="curve"/>
      <point x="275" y="89"/>
      <point x="363" y="23"/>
      <point x="497" y="23" type="curve"/>
      <point x="614" y="23"/>
      <point x="683" y="88"/>
      <point x="708" y="204" type="curve"/>
      <point x="647" y="219"/>
      <point x="708" y="204"/>
      <point x="647" y="219" type="curve"/>
      <point x="624" y="143"/>
      <point x="586" y="95"/>
      <point x="510" y="95" type="curve"/>
      <point x="422" y="95"/>
      <point x="366" y="138"/>
      <point x="366" y="222" type="curve"/>
      <point x="366" y="298"/>
      <point x="420" y="333"/>
      <point x="500" y="333" type="curve"/>
      <point x="581" y="333"/>
      <point x="635" y="295"/>
      <point x="635" y="217" type="curve"/>
      <point x="635" y="107"/>
      <point x="690" y="35"/>
      <point x="797" y="35" type="curve"/>
      <point x="909" y="35"/>
      <point x="967" y="107"/>
      <point x="967" y="222" type="curve"/>
      <point x="967" y="460"/>
      <point x="784" y="564"/>
      <point x="527" y="564" type="curve"/>
      <point x="250" y="564"/>
      <point x="50" y="464"/>
      <point x="50" y="212" type="curve"/>
      <point x="50" y="-38"/>
      <point x="248" y="-139"/>
      <point x="522" y="-139" type="curve"/>
      <point x="613" y="-139"/>
      <point x="680" y="-124"/>
      <point x="750" y="-94" type="curve"/>
      <point x="717" y="-33"/>
      <point x="750" y="-94"/>
    </contour>
  </outline>
</glyph>
<glyph name="B" format="1">
  <advance width="745"/>
  <unicode hex="0042"/>
  <outline>
    <contour>
      <point x="132" y="650" type="curve"/>
      <point x="222" y="650"/>
      <point x="311" y="650"/>
      <point x="402" y="650" type="curve"/>
      <point x="481" y="650"/>
      <point x="543" y="617"/>
      <point x="543" y="541" type="curve"/>
      <point x="543" y="462"/>
      <point x="455" y="443"/>
      <point x="367" y="443" type="curve"/>
      <point x="288" y="443"/>
      <point x="211" y="443"/>
      <point x="132" y="443" type="curve"/>
      <point x="132" y="375"/>
      <point x="132" y="438"/>
      <point x="132" y="370" type="curve"/>
      <point x="195" y="370"/>
      <point x="257" y="370"/>
      <point x="321" y="370" type="curve"/>
      <point x="456" y="370"/>
      <point x="638" y="399"/>
      <point x="638" y="541" type="curve"/>
      <point x="638" y="667"/>
      <point x="539" y="722"/>
      <point x="402" y="722" type="curve"/>
      <point x="311" y="722"/>
      <point x="222" y="722"/>
      <point x="132" y="722" type="curve"/>
      <point x="132" y="654"/>
      <point x="132" y="718"/>
    </contour>
    <contour>
      <point x="194" y="0" type="curve"/>
      <point x="194" y="241"/>
      <point x="194" y="481"/>
      <point x="194" y="722" type="curve"/>
      <point x="94" y="722"/>
      <point x="194" y="722"/>
      <point x="94" y="722" type="curve"/>
      <point x="94" y="481"/>
      <point x="94" y="241"/>
      <point x="94" y="0" type="curve"/>
      <point x="194" y="0"/>
      <point x="94" y="0"/>
    </contour>
    <contour>
      <point x="132" y="370" type="curve"/>
      <point x="211" y="370"/>
      <point x="288" y="370"/>
      <point x="367" y="370" type="curve"/>
      <point x="495" y="370"/>
      <point x="602" y="333"/>
      <point x="602" y="216" type="curve"/>
      <point x="602" y="111"/>
      <point x="517" y="72"/>
      <point x="400" y="72" type="curve"/>
      <point x="309" y="72"/>
      <point x="221" y="72"/>
      <point x="132" y="72" type="curve"/>
      <point x="132" y="4"/>
      <point x="132" y="68"/>
      <point x="132" y="0" type="curve"/>
      <point x="222" y="0"/>
      <point x="310" y="0"/>
      <point x="400" y="0" type="curve"/>
      <point x="573" y="0"/>
      <point x="698" y="60"/>
      <point x="698" y="216" type="curve"/>
      <point x="698" y="398"/>
      <point x="494" y="443"/>
      <point x="321" y="443" type="curve"/>
      <point x="257" y="443"/>
      <point x="195" y="443"/>
      <point x="132" y="443" type="curve"/>
      <point x="132" y="375"/>
      <point x="132" y="438"/>
    </contour>
  </outline>
</glyph>
<glyph name="D" format="1">
  <advance width="882"/>
  <unicode hex="0044"/>
  <outline>
    <contour>
      <point x="94" y="722" type="curve"/>
      <point x="94" y="481"/>
      <point x="94" y="241"/>
      <point x="94" y="0" type="curve"/>
      <point x="190" y="0"/>
      <point x="94" y="0"/>
      <point x="190" y="0" type="curve"/>
      <point x="190" y="241"/>
      <point x="190" y="481"/>
      <point x="190" y="722" type="curve"/>
      <point x="94" y="722"/>
      <point x="190" y="722"/>
    </contour>
    <contour>
      <point x="145" y="0" type="curve"/>
      <point x="227" y="0"/>
      <point x="310" y="0"/>
      <point x="393" y="0" type="curve"/>
      <point x="660" y="0"/>
      <point x="828" y="103"/>
      <point x="828" y="352" type="curve"/>
      <point x="828" y="612"/>
      <point x="657" y="722"/>
      <point x="382" y="722" type="curve"/>
      <point x="302" y="722"/>
      <point x="224" y="722"/>
      <point x="145" y="722" type="curve"/>
      <point x="145" y="650"/>
      <point x="145" y="721"/>
      <point x="145" y="650" type="curve"/>
      <point x="222" y="650"/>
      <point x="299" y="650"/>
      <point x="377" y="650" type="curve"/>
      <point x="598" y="650"/>
      <point x="733" y="559"/>
      <point x="733" y="350" type="curve"/>
      <point x="733" y="156"/>
      <point x="606" y="72"/>
      <point x="401" y="72" type="curve"/>
      <point x="315" y="72"/>
      <point x="230" y="72"/>
      <point x="145" y="72" type="curve"/>
      <point x="145" y="1"/>
      <point x="145" y="72"/>
    </contour>
    <contour>
      <point x="368" y="801" type="move" name="top"/>
    </contour>
  </outline>
</glyph>
<glyph name="E" format="1">
  <advance width="710"/>
  <unicode hex="0045"/>
  <outline>
    <contour>
      <point x="149" y="337" type="curve"/>
      <point x="287" y="337"/>
      <point x="425" y="337"/>
      <point x="563" y="337" type="curve"/>
      <point x="563" y="409"/>
      <point x="563" y="337"/>
      <point x="563" y="409" type="curve"/>
      <point x="425" y="409"/>
      <point x="287" y="409"/>
      <point x="149" y="409" type="curve"/>
      <point x="149" y="337"/>
      <point x="149" y="409"/>
    </contour>
    <contour>
      <point x="130" y="650" type="curve"/>
      <point x="301" y="650"/>
      <point x="472" y="650"/>
      <point x="643" y="650" type="curve"/>
      <point x="643" y="722"/>
      <point x="643" y="650"/>
      <point x="643" y="722" type="curve"/>
      <point x="472" y="722"/>
      <point x="301" y="722"/>
      <point x="130" y="722" type="curve"/>
      <point x="130" y="650"/>
      <point x="130" y="722"/>
    </contour>
    <contour>
      <point x="190" y="0" type="curve"/>
      <point x="190" y="722" type="line"/>
      <point x="94" y="722"/>
      <point x="190" y="722"/>
      <point x="94" y="722" type="curve"/>
      <point x="94" y="481"/>
      <point x="94" y="241"/>
      <point x="94" y="0" type="curve"/>
      <point x="190" y="0"/>
      <point x="94" y="0"/>
    </contour>
    <contour>
      <point x="130" y="0" type="curve"/>
      <point x="315" y="0"/>
      <point x="500" y="0"/>
      <point x="686" y="0" type="curve"/>
      <point x="686" y="72"/>
      <point x="686" y="0"/>
      <point x="686" y="72" type="curve"/>
      <point x="500" y="72"/>
      <point x="315" y="72"/>
      <point x="130" y="72" type="curve"/>
      <point x="130" y="0"/>
      <point x="130" y="72"/>
    </contour>
    <contour>
      <point x="339" y="801" type="move" name="top"/>
    </contour>
    <contour>
      <point x="639" y="10" type="move" name="bottom"/>
    </contour>
  </outline>
</glyph>
<glyph name="F" format="1">
  <advance width="669"/>
  <unicode hex="0046"/>
  <outline>
    <contour>
      <point x="148" y="337" type="curve"/>
      <point x="284" y="337"/>
      <point x="420" y="337"/>
      <point x="555" y="337" type="curve"/>
      <point x="555" y="409"/>
      <point x="555" y="337"/>
      <point x="555" y="409" type="curve"/>
      <point x="420" y="409"/>
      <point x="284" y="409"/>
      <point x="148" y="409" type="curve"/>
      <point x="148" y="337"/>
      <point x="148" y="409"/>
    </contour>
    <contour>
      <point x="191" y="0" type="curve"/>
      <point x="191" y="722" type="line"/>
      <point x="95" y="722"/>
      <point x="191" y="722"/>
      <point x="95" y="722" type="curve"/>
      <point x="95" y="481"/>
      <point x="95" y="241"/>
      <point x="95" y="0" type="curve"/>
      <point x="191" y="0"/>
      <point x="95" y="0"/>
    </contour>
    <contour>
      <point x="129" y="650" type="curve"/>
      <point x="302" y="650"/>
      <point x="474" y="650"/>
      <point x="647" y="650" type="curve"/>
      <point x="647" y="722"/>
      <point x="647" y="650"/>
      <point x="647" y="722" type="curve"/>
      <point x="474" y="722"/>
      <point x="302" y="722"/>
      <point x="129" y="722" type="curve"/>
      <point x="129" y="650"/>
      <point x="129" y="722"/>
    </contour>
  </outline>
</glyph>
<glyph name="G" format="1">
  <advance width="946"/>
  <unicode hex="0047"/>
  <outline>
    <contour>
      <point x="861" y="348" type="curve"/>
      <point x="769" y="348"/>
      <point x="675" y="348"/>
      <point x="583" y="348" type="curve"/>
      <point x="583" y="276"/>
      <point x="583" y="348"/>
      <point x="583" y="276" type="curve"/>
      <point x="675" y="276"/>
      <point x="769" y="276"/>
      <point x="861" y="276" type="curve"/>
      <point x="861" y="348"/>
      <point x="861" y="276"/>
    </contour>
    <contour>
      <point x="888" y="78" type="curve"/>
      <point x="888" y="168"/>
      <point x="888" y="258"/>
      <point x="888" y="348" type="curve"/>
      <point x="801" y="348"/>
      <point x="888" y="348"/>
      <point x="801" y="348" type="curve"/>
      <point x="801" y="258"/>
      <point x="801" y="168"/>
      <point x="801" y="78" type="curve"/>
      <point x="888" y="78"/>
      <point x="801" y="78"/>
    </contour>
    <contour>
      <point x="866" y="644" type="curve"/>
      <point x="744" y="703"/>
      <point x="637" y="727"/>
      <point x="501" y="727" type="curve"/>
      <point x="236" y="727"/>
      <point x="52" y="612"/>
      <point x="52" y="362" type="curve"/>
      <point x="52" y="107"/>
      <point x="243" y="-5"/>
      <point x="515" y="-5" type="curve"/>
      <point x="661" y="-5"/>
      <point x="755" y="21"/>
      <point x="888" y="78" type="curve"/>
      <point x="840" y="132"/>
      <point x="888" y="78"/>
      <point x="840" y="132" type="curve"/>
      <point x="726" y="84"/>
      <point x="639" y="71"/>
      <point x="515" y="71" type="curve"/>
      <point x="297" y="71"/>
      <point x="148" y="164"/>
      <point x="148" y="369" type="curve"/>
      <point x="148" y="563"/>
      <point x="294" y="652"/>
      <point x="501" y="652" type="curve"/>
      <point x="619" y="652"/>
      <point x="712" y="633"/>
      <point x="827" y="580" type="curve"/>
      <point x="866" y="644"/>
      <point x="827" y="580"/>
    </contour>
    <contour>
      <point x="501" y="801" type="move" name="top"/>
    </contour>
    <contour>
      <point x="546" y="6" type="move" name="bottom"/>
    </contour>
  </outline>
</glyph>
<glyph name="H" format="1">
  <advance width="921"/>
  <unicode hex="0048"/>
  <outline>
    <contour>
      <point x="190" y="0" type="curve"/>
      <point x="190" y="722" type="line"/>
      <point x="94" y="722"/>
      <point x="190" y="722"/>
      <point x="94" y="722" type="curve"/>
      <point x="94" y="481"/>
      <point x="94" y="241"/>
      <point x="94" y="0" type="curve"/>
      <point x="190" y="0"/>
      <point x="94" y="0"/>
    </contour>
    <contour>
      <point x="777" y="399" type="curve"/>
      <point x="565" y="399"/>
      <point x="353" y="399"/>
      <point x="142" y="399" type="curve"/>
      <point x="142" y="327"/>
      <point x="142" y="399"/>
      <point x="142" y="327" type="curve"/>
      <point x="353" y="327"/>
      <point x="565" y="327"/>
      <point x="777" y="327" type="curve"/>
      <point x="777" y="399"/>
      <point x="777" y="327"/>
    </contour>
    <contour>
      <point x="827" y="0" type="curve"/>
      <point x="827" y="223"/>
      <point x="827" y="499"/>
      <point x="827" y="722" type="curve"/>
      <point x="732" y="722"/>
      <point x="827" y="722"/>
      <point x="732" y="722" type="curve"/>
      <point x="732" y="0" type="line"/>
      <point x="827" y="0"/>
      <point x="732" y="0"/>
    </contour>
  </outline>
</glyph>
<glyph name="I" format="1">
  <advance width="284"/>
  <unicode hex="0049"/>
  <outline>
    <contour>
      <point x="190" y="0" type="curve"/>
      <point x="190" y="241"/>
      <point x="190" y="481"/>
      <point x="190" y="722" type="curve"/>
      <point x="94" y="722"/>
      <point x="190" y="722"/>
      <point x="94" y="722" type="curve"/>
      <point x="94" y="481"/>
      <point x="94" y="241"/>
      <point x="94" y="0" type="curve"/>
      <point x="190" y="0"/>
      <point x="94" y="0"/>
    </contour>
    <contour>
      <point x="142" y="801" type="move" name="top"/>
    </contour>
    <contour>
      <point x="189" y="0" type="move" name="bottom"/>
    </contour>
  </outline>
</glyph>
<glyph name="J" format="1">
  <advance width="524"/>
  <unicode hex="004A"/>
  <outline>
    <contour>
      <point x="6" y="44" type="curve"/>
      <point x="46" y="22"/>
      <point x="102" y="-3"/>
      <point x="170" y="-3" type="curve"/>
      <point x="333" y="-3"/>
      <point x="437" y="74"/>
      <point x="437" y="234" type="curve"/>
      <point x="437" y="396"/>
      <point x="437" y="559"/>
      <point x="437" y="722" type="curve"/>
      <point x="341" y="722"/>
      <point x="436" y="722"/>
      <point x="341" y="722" type="curve"/>
      <point x="341" y="559"/>
      <point x="341" y="396"/>
      <point x="341" y="234" type="curve"/>
      <point x="341" y="129"/>
      <point x="277" y="69"/>
      <point x="170" y="69" type="curve"/>
      <point x="122" y="69"/>
      <point x="90" y="83"/>
      <point x="50" y="101" type="curve"/>
      <point x="7" y="44"/>
      <point x="50" y="100"/>
    </contour>
  </outline>
</glyph>
<glyph name="K" format="1">
  <advance width="736"/>
  <unicode hex="004B"/>
  <outline>
    <contour>
      <point x="566" y="722" type="curve"/>
      <point x="156" y="380" type="line"/>
      <point x="280" y="380"/>
      <point x="155" y="380"/>
      <point x="279" y="380" type="curve"/>
      <point x="696" y="722" type="line"/>
      <point x="559" y="722"/>
      <point x="704" y="722"/>
    </contour>
    <contour>
      <point x="190" y="0" type="curve"/>
      <point x="190" y="722" type="line"/>
      <point x="94" y="722"/>
      <point x="190" y="722"/>
      <point x="94" y="722" type="curve"/>
      <point x="94" y="481"/>
      <point x="94" y="241"/>
      <point x="94" y="0" type="curve"/>
      <point x="190" y="0"/>
      <point x="94" y="0"/>
    </contour>
    <contour>
      <point x="729" y="0" type="curve"/>
      <point x="279" y="380" type="line"/>
      <point x="155" y="380"/>
      <point x="280" y="380"/>
      <point x="156" y="380" type="curve"/>
      <point x="594" y="0" type="line"/>
      <point x="738" y="0"/>
      <point x="585" y="0"/>
    </contour>
    <contour>
      <point x="434" y="0" type="move" name="bottom"/>
    </contour>
  </outline>
</glyph>
<glyph name="L" format="1">
  <advance width="685"/>
  <unicode hex="004C"/>
  <outline>
    <contour>
      <point x="190" y="0" type="curve"/>
      <point x="190" y="241"/>
      <point x="190" y="481"/>
      <point x="190" y="722" type="curve"/>
      <point x="94" y="722"/>
      <point x="190" y="722"/>
      <point x="94" y="722" type="curve"/>
      <point x="94" y="481"/>
      <point x="94" y="241"/>
      <point x="94" y="0" type="curve"/>
      <point x="190" y="0"/>
      <point x="94" y="0"/>
    </contour>
    <contour>
      <point x="141" y="0" type="curve"/>
      <point x="319" y="0"/>
      <point x="496" y="0"/>
      <point x="674" y="0" type="curve"/>
      <point x="674" y="72"/>
      <point x="674" y="0"/>
      <point x="674" y="72" type="curve"/>
      <point x="496" y="72"/>
      <point x="319" y="72"/>
      <point x="141" y="72" type="curve"/>
      <point x="141" y="0"/>
      <point x="141" y="72"/>
    </contour>
    <contour>
      <point x="142" y="801" type="move" name="top"/>
    </contour>
    <contour>
      <point x="369" y="2" type="move" name="bottom"/>
    </contour>
  </outline>
</glyph>
<glyph name="M" format="1">
  <advance width="1096"/>
  <unicode hex="004D"/>
  <outline>
    <contour>
      <point x="1033" y="0" type="curve"/>
      <point x="1006" y="241"/>
      <point x="977" y="481"/>
      <point x="951" y="722" type="curve"/>
      <point x="864" y="722"/>
      <point x="951" y="722"/>
      <point x="864" y="722" type="curve"/>
      <point x="889" y="481"/>
      <point x="911" y="241"/>
      <point x="937" y="0" type="curve"/>
      <point x="1033" y="0"/>
      <point x="937" y="0"/>
    </contour>
    <contour>
      <point x="161" y="0" type="curve"/>
      <point x="185" y="241"/>
      <point x="209" y="481"/>
      <point x="233" y="722" type="curve"/>
      <point x="140" y="722"/>
      <point x="233" y="722"/>
      <point x="140" y="722" type="curve"/>
      <point x="116" y="481"/>
      <point x="91" y="241"/>
      <point x="66" y="0" type="curve"/>
      <point x="161" y="0"/>
      <point x="66" y="0"/>
    </contour>
    <contour>
      <point x="592" y="0" type="curve"/>
      <point x="474" y="241"/>
      <point x="356" y="481"/>
      <point x="237" y="722" type="curve"/>
      <point x="144" y="722"/>
      <point x="236" y="722"/>
      <point x="143" y="722" type="curve"/>
      <point x="261" y="481"/>
      <point x="379" y="241"/>
      <point x="497" y="0" type="curve"/>
      <point x="591" y="0"/>
      <point x="498" y="0"/>
    </contour>
    <contour>
      <point x="603" y="0" type="curve"/>
      <point x="719" y="241"/>
      <point x="835" y="481"/>
      <point x="951" y="722" type="curve"/>
      <point x="858" y="722"/>
      <point x="950" y="722"/>
      <point x="857" y="722" type="curve"/>
      <point x="740" y="481"/>
      <point x="623" y="241"/>
      <point x="506" y="0" type="curve"/>
      <point x="602" y="0"/>
      <point x="507" y="0"/>
    </contour>
  </outline>
</glyph>
<glyph name="P" format="1">
  <advance width="688"/>
  <unicode hex="0050"/>
  <outline>
    <contour>
      <point x="130" y="306" type="curve"/>
      <point x="199" y="279"/>
      <point x="276" y="260"/>
      <point x="352" y="260" type="curve"/>
      <point x="525" y="263"/>
      <point x="649" y="328"/>
      <point x="649" y="487" type="curve"/>
      <point x="649" y="653"/>
      <point x="499" y="722"/>
      <point x="313" y="722" type="curve"/>
      <point x="258" y="722"/>
      <point x="202" y="722"/>
      <point x="147" y="722" type="curve"/>
      <point x="147" y="650"/>
      <point x="147" y="722"/>
      <point x="147" y="650" type="curve"/>
      <point x="198" y="650"/>
      <point x="250" y="650"/>
      <point x="300" y="650" type="curve"/>
      <point x="439" y="650"/>
      <point x="553" y="608"/>
      <point x="553" y="488" type="curve"/>
      <point x="553" y="378"/>
      <point x="460" y="332"/>
      <point x="345" y="332" type="curve"/>
      <point x="275" y="332"/>
      <point x="225" y="346"/>
      <point x="161" y="370" type="curve"/>
      <point x="130" y="306"/>
      <point x="161" y="370"/>
    </contour>
    <contour>
      <point x="190" y="0" type="curve"/>
      <point x="190" y="241"/>
      <point x="190" y="481"/>
      <point x="190" y="722" type="curve"/>
      <point x="94" y="722"/>
      <point x="190" y="722"/>
      <point x="94" y="722" type="curve"/>
      <point x="94" y="481"/>
      <point x="94" y="241"/>
      <point x="94" y="0" type="curve"/>
      <point x="190" y="0"/>
      <point x="94" y="0"/>
    </contour>
  </outline>
</glyph>
<glyph name="Q" format="1">
  <advance width="1013"/>
  <unicode hex="0051"/>
  <outline>
    <contour>
      <point x="432" y="17" type="curve"/>
      <point x="579" y="-180"/>
      <point x="736" y="-224"/>
      <point x="969" y="-224" type="curve"/>
      <point x="969" y="-148"/>
      <point x="969" y="-224"/>
      <point x="969" y="-148" type="curve"/>
      <point x="774" y="-148"/>
      <point x="641" y="-114"/>
      <point x="514" y="53" type="curve"/>
      <point x="432" y="17"/>
      <point x="514" y="53"/>
    </contour>
    <contour>
      <point x="149" y="360" type="curve"/>
      <point x="149" y="542"/>
      <point x="276" y="649"/>
      <point x="462" y="649" type="curve"/>
      <point x="650" y="649"/>
      <point x="776" y="545"/>
      <point x="776" y="361" type="curve"/>
      <point x="776" y="179"/>
      <point x="652" y="71"/>
      <point x="467" y="71" type="curve"/>
      <point x="277" y="71"/>
      <point x="149" y="176"/>
      <point x="149" y="360" type="curve"/>
      <point x="53" y="360"/>
      <point x="149" y="360"/>
      <point x="53" y="360" type="curve"/>
      <point x="53" y="126"/>
      <point x="222" y="-5"/>
      <point x="462" y="-5" type="curve"/>
      <point x="705" y="-5"/>
      <point x="872" y="129"/>
      <point x="872" y="365" type="curve"/>
      <point x="872" y="599"/>
      <point x="707" y="730"/>
      <point x="467" y="730" type="curve"/>
      <point x="223" y="730"/>
      <point x="53" y="596"/>
      <point x="53" y="360" type="curve"/>
      <point x="149" y="360"/>
      <point x="53" y="360"/>
    </contour>
  </outline>
</glyph>
<glyph name="R" format="1">
  <advance width="764"/>
  <unicode hex="0052"/>
  <outline>
    <contour>
      <point x="344" y="354" type="curve"/>
      <point x="403" y="286"/>
      <point x="587" y="68"/>
      <point x="646" y="0" type="curve"/>
      <point x="746" y="0"/>
      <point x="663" y="0"/>
      <point x="762" y="0" type="curve"/>
      <point x="708" y="63"/>
      <point x="515" y="291"/>
      <point x="461" y="354" type="curve"/>
      <point x="345" y="354"/>
      <point x="460" y="354"/>
    </contour>
    <contour>
      <point x="190" y="0" type="curve"/>
      <point x="190" y="241"/>
      <point x="190" y="481"/>
      <point x="190" y="722" type="curve"/>
      <point x="94" y="722"/>
      <point x="190" y="722"/>
      <point x="94" y="722" type="curve"/>
      <point x="94" y="481"/>
      <point x="94" y="241"/>
      <point x="94" y="0" type="curve"/>
      <point x="190" y="0"/>
      <point x="94" y="0"/>
    </contour>
    <contour>
      <point x="145" y="316" type="curve"/>
      <point x="215" y="316"/>
      <point x="286" y="316"/>
      <point x="356" y="316" type="curve"/>
      <point x="535" y="316"/>
      <point x="669" y="367"/>
      <point x="669" y="527" type="curve"/>
      <point x="669" y="676"/>
      <point x="543" y="722"/>
      <point x="375" y="722" type="curve"/>
      <point x="298" y="722"/>
      <point x="222" y="722"/>
      <point x="145" y="722" type="curve"/>
      <point x="145" y="650"/>
      <point x="145" y="722"/>
      <point x="145" y="650" type="curve"/>
      <point x="216" y="650"/>
      <point x="286" y="650"/>
      <point x="358" y="650" type="curve"/>
      <point x="479" y="650"/>
      <point x="573" y="626"/>
      <point x="573" y="520" type="curve"/>
      <point x="573" y="417"/>
      <point x="484" y="388"/>
      <point x="367" y="388" type="curve"/>
      <point x="293" y="388"/>
      <point x="219" y="388"/>
      <point x="145" y="388" type="curve"/>
      <point x="145" y="316"/>
      <point x="145" y="388"/>
    </contour>
    <contour>
      <point x="325" y="801" type="move" name="top"/>
    </contour>
    <contour>
      <point x="413" y="-1" type="move" name="bottom"/>
    </contour>
  </outline>
</glyph>
<glyph name="T" format="1">
  <advance width="806"/>
  <unicode hex="0054"/>
  <outline>
    <contour>
      <point x="451" y="0" type="curve"/>
      <point x="451" y="237"/>
      <point x="451" y="473"/>
      <point x="451" y="710" type="curve"/>
      <point x="355" y="710"/>
      <point x="451" y="710"/>
      <point x="355" y="710" type="curve"/>
      <point x="355" y="473"/>
      <point x="355" y="237"/>
      <point x="355" y="0" type="curve"/>
      <point x="451" y="0"/>
      <point x="355" y="0"/>
    </contour>
    <contour>
      <point x="11" y="645" type="curve"/>
      <point x="272" y="645"/>
      <point x="533" y="645"/>
      <point x="795" y="645" type="curve"/>
      <point x="795" y="725"/>
      <point x="795" y="643"/>
      <point x="795" y="722" type="curve"/>
      <point x="533" y="722"/>
      <point x="272" y="722"/>
      <point x="11" y="722" type="curve"/>
      <point x="11" y="643"/>
      <point x="11" y="725"/>
    </contour>
    <contour>
      <point x="399" y="801" type="move" name="top"/>
    </contour>
    <contour>
      <point x="431" y="-1" type="move" name="bottom"/>
    </contour>
  </outline>
</glyph>
<glyph name="U" format="1">
  <advance width="894"/>
  <unicode hex="0055"/>
  <outline>
    <contour>
      <point x="86" y="722" type="curve"/>
      <point x="86" y="567"/>
      <point x="86" y="431"/>
      <point x="86" y="277" type="curve"/>
      <point x="86" y="70"/>
      <point x="222" y="-5"/>
      <point x="447" y="-5" type="curve"/>
      <point x="672" y="-5"/>
      <point x="808" y="72"/>
      <point x="808" y="280" type="curve"/>
      <point x="808" y="433"/>
      <point x="808" y="569"/>
      <point x="808" y="722" type="curve"/>
      <point x="727" y="722"/>
      <point x="802" y="722"/>
      <point x="721" y="722" type="curve"/>
      <point x="721" y="564"/>
      <point x="721" y="429"/>
      <point x="721" y="271" type="curve"/>
      <point x="721" y="127"/>
      <point x="617" y="74"/>
      <point x="455" y="74" type="curve"/>
      <point x="281" y="74"/>
      <point x="174" y="130"/>
      <point x="174" y="290" type="curve"/>
      <point x="174" y="439"/>
      <point x="174" y="573"/>
      <point x="174" y="722" type="curve"/>
      <point x="92" y="722"/>
      <point x="168" y="722"/>
    </contour>
    <contour>
      <point x="451" y="801" type="move" name="top"/>
    </contour>
    <contour>
      <point x="482" y="5" type="move" name="bottom"/>
    </contour>
  </outline>
</glyph>
<glyph name="V" format="1">
  <advance width="833"/>
  <unicode hex="0056"/>
  <outline>
    <contour>
      <point x="724" y="722" type="curve"/>
      <point x="607" y="481"/>
      <point x="490" y="241"/>
      <point x="374" y="0" type="curve"/>
      <point x="472" y="0"/>
      <point x="373" y="0"/>
      <point x="471" y="0" type="curve"/>
      <point x="588" y="241"/>
      <point x="705" y="481"/>
      <point x="822" y="722" type="curve"/>
      <point x="724" y="722"/>
      <point x="822" y="722"/>
    </contour>
    <contour>
      <point x="9" y="722" type="curve"/>
      <point x="127" y="481"/>
      <point x="247" y="241"/>
      <point x="365" y="0" type="curve"/>
      <point x="464" y="0"/>
      <point x="365" y="0"/>
      <point x="463" y="0" type="curve"/>
      <point x="345" y="241"/>
      <point x="227" y="481"/>
      <point x="108" y="722" type="curve"/>
      <point x="9" y="722"/>
      <point x="108" y="722"/>
    </contour>
  </outline>
</glyph>
<glyph name="W" format="1">
  <advance width="1107"/>
  <unicode hex="0057"/>
  <outline>
    <contour>
      <point x="353" y="0" type="curve"/>
      <point x="437" y="241"/>
      <point x="519" y="481"/>
      <point x="603" y="722" type="curve"/>
      <point x="509" y="722"/>
      <point x="606" y="722"/>
      <point x="512" y="722" type="curve"/>
      <point x="431" y="481"/>
      <point x="350" y="241"/>
      <point x="269" y="0" type="curve"/>
      <point x="358" y="0"/>
      <point x="264" y="0"/>
    </contour>
    <contour>
      <point x="525" y="722" type="curve"/>
      <point x="601" y="481"/>
      <point x="672" y="241"/>
      <point x="748" y="0" type="curve"/>
      <point x="838" y="0"/>
      <point x="743" y="0"/>
      <point x="832" y="0" type="curve"/>
      <point x="760" y="241"/>
      <point x="689" y="481"/>
      <point x="614" y="722" type="curve"/>
      <point x="520" y="722"/>
      <point x="618" y="722"/>
    </contour>
    <contour>
      <point x="27" y="722" type="curve"/>
      <point x="103" y="481"/>
      <point x="179" y="241"/>
      <point x="256" y="0" type="curve"/>
      <point x="345" y="0"/>
      <point x="254" y="0"/>
      <point x="343" y="0" type="curve"/>
      <point x="268" y="241"/>
      <point x="197" y="481"/>
      <point x="122" y="722" type="curve"/>
      <point x="27" y="722"/>
      <point x="122" y="722"/>
    </contour>
    <contour>
      <point x="988" y="722" type="curve"/>
      <point x="911" y="481"/>
      <point x="837" y="241"/>
      <point x="761" y="0" type="curve"/>
      <point x="851" y="0"/>
      <point x="756" y="0"/>
      <point x="846" y="0" type="curve"/>
      <point x="925" y="241"/>
      <point x="1004" y="481"/>
      <point x="1084" y="722" type="curve"/>
      <point x="988" y="722"/>
      <point x="1084" y="722"/>
    </contour>
  </outline>
</glyph>
<glyph name="X" format="1">
  <advance width="787"/>
  <unicode hex="0058"/>
  <outline>
    <contour>
      <point x="641" y="722" type="curve"/>
      <point x="438" y="489"/>
      <point x="208" y="233"/>
      <point x="5" y="0" type="curve"/>
      <point x="103" y="0"/>
      <point x="28" y="0"/>
      <point x="127" y="0" type="curve"/>
      <point x="329" y="233"/>
      <point x="552" y="488"/>
      <point x="755" y="722" type="curve"/>
      <point x="663" y="722"/>
      <point x="733" y="722"/>
    </contour>
    <contour>
      <point x="46" y="722" type="curve"/>
      <point x="247" y="489"/>
      <point x="464" y="233"/>
      <point x="665" y="0" type="curve"/>
      <point x="764" y="0"/>
      <point x="680" y="0"/>
      <point x="779" y="0" type="curve"/>
      <point x="576" y="236"/>
      <point x="357" y="486"/>
      <point x="154" y="722" type="curve"/>
      <point x="64" y="722"/>
      <point x="136" y="722"/>
    </contour>
  </outline>
</glyph>
<glyph name="Y" format="1">
  <advance width="741"/>
  <unicode hex="0059"/>
  <outline>
    <contour>
      <point x="16" y="722" type="curve"/>
      <point x="110" y="601"/>
      <point x="228" y="459"/>
      <point x="322" y="337" type="curve"/>
      <point x="420" y="337"/>
      <point x="321" y="339"/>
      <point x="419" y="339" type="curve"/>
      <point x="320" y="467"/>
      <point x="223" y="594"/>
      <point x="125" y="722" type="curve"/>
      <point x="41" y="722"/>
      <point x="100" y="722"/>
    </contour>
    <contour>
      <point x="634" y="722" type="curve"/>
      <point x="530" y="594"/>
      <point x="427" y="466"/>
      <point x="323" y="339" type="curve"/>
      <point x="421" y="339"/>
      <point x="322" y="337"/>
      <point x="420" y="337" type="curve"/>
      <point x="520" y="459"/>
      <point x="635" y="600"/>
      <point x="735" y="722" type="curve"/>
      <point x="651" y="722"/>
      <point x="718" y="722"/>
    </contour>
    <contour>
      <point x="423" y="0" type="curve"/>
      <point x="423" y="115"/>
      <point x="423" y="231"/>
      <point x="423" y="346" type="curve"/>
      <point x="319" y="346"/>
      <point x="423" y="346"/>
      <point x="319" y="346" type="curve"/>
      <point x="319" y="231"/>
      <point x="319" y="115"/>
      <point x="319" y="0" type="curve"/>
      <point x="423" y="0"/>
      <point x="319" y="0"/>
    </contour>
    <contour>
      <point x="374" y="801" type="move" name="top"/>
    </contour>
  </outline>
</glyph>
<glyph name="bracketleft" format="1">
  <advance width="341"/>
  <unicode hex="005B"/>
  <outline>
    <contour>
      <point x="307" y="770" type="curve"/>
      <point x="242" y="770"/>
      <point x="178" y="770"/>
      <point x="113" y="770" type="curve"/>
      <point x="102" y="770"/>
      <point x="85" y="770"/>
      <point x="74" y="770" type="curve"/>
      <point x="74" y="760"/>
      <point x="74" y="746"/>
      <point x="74" y="736" type="curve"/>
      <point x="74" y="462"/>
      <point x="74" y="188"/>
      <point x="74" y="-86" type="curve"/>
      <point x="74" y="-95"/>
      <point x="74" y="-108"/>
      <point x="74" y="-118" type="curve"/>
      <point x="84" y="-118"/>
      <point x="100" y="-118"/>
      <point x="112" y="-118" type="curve"/>
      <point x="177" y="-118"/>
      <point x="242" y="-118"/>
      <point x="307" y="-118" type="curve"/>
      <point x="307" y="-38"/>
      <point x="307" y="-118"/>
      <point x="307" y="-38" type="curve"/>
      <point x="242" y="-38"/>
      <point x="177" y="-38"/>
      <point x="112" y="-38" type="curve"/>
      <point x="170" y="-38"/>
      <point x="112" y="-38"/>
      <point x="170" y="-38" type="curve"/>
      <point x="170" y="-86"/>
      <point x="170" y="-38"/>
      <point x="170" y="-86" type="curve"/>
      <point x="170" y="188"/>
      <point x="170" y="462"/>
      <point x="170" y="736" type="curve"/>
      <point x="170" y="691"/>
      <point x="170" y="736"/>
      <point x="170" y="691" type="curve"/>
      <point x="113" y="691"/>
      <point x="170" y="691"/>
      <point x="113" y="691" type="curve"/>
      <point x="178" y="691"/>
      <point x="242" y="691"/>
      <point x="307" y="691" type="curve"/>
      <point x="307" y="770"/>
      <point x="307" y="691"/>
    </contour>
  </outline>
</glyph>
<glyph name="backslash" format="1">
  <advance width="647"/>
  <unicode hex="005C"/>
  <outline>
    <contour>
      <point x="621" y="-68" type="curve"/>
      <point x="456" y="236"/>
      <point x="291" y="540"/>
      <point x="126" y="844" type="curve"/>
      <point x="26" y="844"/>
      <point x="126" y="844"/>
      <point x="26" y="844" type="curve"/>
      <point x="191" y="540"/>
      <point x="356" y="236"/>
      <point x="521" y="-68" type="curve"/>
      <point x="621" y="-68"/>
      <point x="521" y="-68"/>
    </contour>
  </outline>
</glyph>
<glyph name="bracketright" format="1">
  <advance width="340"/>
  <unicode hex="005D"/>
  <outline>
    <contour>
      <point x="34" y="691" type="curve"/>
      <point x="98" y="691"/>
      <point x="162" y="691"/>
      <point x="227" y="691" type="curve"/>
      <point x="217" y="697"/>
      <point x="205" y="703"/>
      <point x="196" y="709" type="curve"/>
      <point x="186" y="717"/>
      <point x="179" y="728"/>
      <point x="170" y="736" type="curve"/>
      <point x="170" y="462"/>
      <point x="170" y="188"/>
      <point x="170" y="-86" type="curve"/>
      <point x="180" y="-78"/>
      <point x="188" y="-67"/>
      <point x="198" y="-59" type="curve"/>
      <point x="208" y="-52"/>
      <point x="218" y="-46"/>
      <point x="229" y="-38" type="curve"/>
      <point x="163" y="-38"/>
      <point x="98" y="-38"/>
      <point x="34" y="-38" type="curve"/>
      <point x="34" y="-118"/>
      <point x="34" y="-38"/>
      <point x="34" y="-118" type="curve"/>
      <point x="98" y="-118"/>
      <point x="163" y="-118"/>
      <point x="229" y="-118" type="curve"/>
      <point x="266" y="-118"/>
      <point x="229" y="-118"/>
      <point x="266" y="-118" type="curve"/>
      <point x="266" y="-86"/>
      <point x="266" y="-118"/>
      <point x="266" y="-86" type="curve"/>
      <point x="266" y="188"/>
      <point x="266" y="462"/>
      <point x="266" y="736" type="curve"/>
      <point x="266" y="770"/>
      <point x="266" y="736"/>
      <point x="266" y="770" type="curve"/>
      <point x="227" y="770"/>
      <point x="266" y="770"/>
      <point x="227" y="770" type="curve"/>
      <point x="162" y="770"/>
      <point x="98" y="770"/>
      <point x="34" y="770" type="curve"/>
      <point x="34" y="691"/>
      <point x="34" y="770"/>
    </contour>
  </outline>
</glyph>
<glyph name="asciicircum" format="1">
  <advance width="627"/>
  <unicode hex="005E"/>
  <outline>
    <contour>
      <point x="140" y="459" type="curve"/>
      <point x="213" y="565"/>
      <point x="287" y="671"/>
      <point x="360" y="778" type="curve"/>
      <point x="265" y="778"/>
      <point x="359" y="778"/>
      <point x="264" y="778" type="curve"/>
      <point x="190" y="671"/>
      <point x="117" y="565"/>
      <point x="44" y="459" type="curve"/>
      <point x="139" y="459"/>
      <point x="45" y="459"/>
    </contour>
    <contour>
      <point x="583" y="459" type="curve"/>
      <point x="510" y="563"/>
      <point x="433" y="673"/>
      <point x="360" y="778" type="curve"/>
      <point x="265" y="778"/>
      <point x="360" y="778"/>
      <point x="265" y="778" type="curve"/>
      <point x="337" y="673"/>
      <point x="414" y="563"/>
      <point x="487" y="459" type="curve"/>
      <point x="582" y="459"/>
      <point x="488" y="459"/>
    </contour>
  </outline>
</glyph>
<glyph name="underscore" format="1">
  <advance width="861"/>
  <unicode hex="005F"/>
  <outline>
    <contour>
      <point x="0" y="-195" type="curve"/>
      <point x="287" y="-195"/>
      <point x="574" y="-195"/>
      <point x="861" y="-195" type="curve"/>
      <point x="861" y="-123"/>
      <point x="861" y="-195"/>
      <point x="861" y="-123" type="curve"/>
      <point x="574" y="-123"/>
      <point x="287" y="-123"/>
      <point x="0" y="-123" type="curve"/>
      <point x="0" y="-195"/>
      <point x="0" y="-123"/>
    </contour>
  </outline>
</glyph>
<glyph name="grave" format="1">
  <advance width="416"/>
  <unicode hex="0060"/>
  <outline>
    <contour>
      <point x="352" y="562" type="line"/>
      <point x="194" y="728" type="line"/>
      <point x="66" y="728" type="line"/>
      <point x="253" y="562" type="line"/>
    </contour>
    <contour>
      <point x="295" y="563" type="move" name="_top"/>
    </contour>
  </outline>
</glyph>
<glyph name="b" format="1">
  <advance width="750"/>
  <unicode hex="0062"/>
  <outline>
    <contour>
      <point x="147" y="355" type="curve"/>
      <point x="205" y="415"/>
      <point x="284" y="463"/>
      <point x="392" y="463" type="curve"/>
      <point x="519" y="463"/>
      <point x="605" y="390"/>
      <point x="605" y="263" type="curve"/>
      <point x="607" y="141"/>
      <point x="518" y="69"/>
      <point x="391" y="70" type="curve"/>
      <point x="293" y="70"/>
      <point x="218" y="104"/>
      <point x="156" y="163" type="curve"/>
      <point x="127" y="142"/>
      <point x="127" y="143"/>
      <point x="98" y="122" type="curve"/>
      <point x="188" y="40"/>
      <point x="276" y="-5"/>
      <point x="408" y="-5" type="curve"/>
      <point x="583" y="-5"/>
      <point x="703" y="91"/>
      <point x="702" y="264" type="curve"/>
      <point x="702" y="440"/>
      <point x="582" y="538"/>
      <point x="406" y="538" type="curve"/>
      <point x="276" y="538"/>
      <point x="182" y="485"/>
      <point x="104" y="407" type="curve"/>
      <point x="128" y="382"/>
      <point x="124" y="380"/>
    </contour>
    <contour>
      <point x="175" y="0" type="curve"/>
      <point x="175" y="287"/>
      <point x="175" y="513"/>
      <point x="175" y="800" type="curve"/>
      <point x="127" y="800"/>
      <point x="128" y="800"/>
      <point x="79" y="800" type="curve"/>
      <point x="79" y="513"/>
      <point x="79" y="287"/>
      <point x="79" y="0" type="curve"/>
      <point x="128" y="0"/>
      <point x="127" y="0"/>
    </contour>
  </outline>
</glyph>
<glyph name="d" format="1">
  <advance width="748"/>
  <unicode hex="0064"/>
  <outline>
    <contour>
      <point x="638" y="422" type="curve"/>
      <point x="562" y="497"/>
      <point x="462" y="538"/>
      <point x="354" y="538" type="curve"/>
      <point x="176" y="538"/>
      <point x="48" y="444"/>
      <point x="48" y="263" type="curve"/>
      <point x="48" y="82"/>
      <point x="177" y="-5"/>
      <point x="356" y="-5" type="curve"/>
      <point x="480" y="-5"/>
      <point x="569" y="47"/>
      <point x="639" y="140" type="curve"/>
      <point x="594" y="180"/>
      <point x="634" y="140"/>
      <point x="589" y="180" type="curve"/>
      <point x="526" y="102"/>
      <point x="459" y="67"/>
      <point x="367" y="67" type="curve"/>
      <point x="239" y="67"/>
      <point x="143" y="134"/>
      <point x="143" y="267" type="curve"/>
      <point x="143" y="399"/>
      <point x="240" y="466"/>
      <point x="368" y="466" type="curve"/>
      <point x="455" y="466"/>
      <point x="539" y="430"/>
      <point x="595" y="372" type="curve"/>
      <point x="641" y="417"/>
      <point x="591" y="377"/>
    </contour>
    <contour>
      <point x="669" y="0" type="curve"/>
      <point x="669" y="267"/>
      <point x="669" y="533"/>
      <point x="669" y="800" type="curve"/>
      <point x="569" y="800"/>
      <point x="669" y="800"/>
      <point x="569" y="800" type="curve"/>
      <point x="569" y="533"/>
      <point x="569" y="267"/>
      <point x="569" y="0" type="curve"/>
      <point x="669" y="0"/>
      <point x="569" y="0"/>
    </contour>
  </outline>
</glyph>
<glyph name="f" format="1">
  <advance width="563"/>
  <unicode hex="0066"/>
  <outline>
    <contour>
      <point x="22" y="461" type="curve"/>
      <point x="535" y="461" type="line"/>
      <point x="535" y="533"/>
      <point x="535" y="461"/>
      <point x="535" y="533" type="curve"/>
      <point x="22" y="533" type="line"/>
      <point x="22" y="461"/>
      <point x="22" y="533"/>
    </contour>
    <contour>
      <point x="295" y="0" type="curve"/>
      <point x="295" y="620" type="line"/>
      <point x="294" y="692"/>
      <point x="344" y="733"/>
      <point x="420" y="733" type="curve"/>
      <point x="458" y="733"/>
      <point x="495" y="724"/>
      <point x="530" y="711" type="curve"/>
      <point x="569" y="768"/>
      <point x="530" y="711"/>
      <point x="569" y="768" type="curve"/>
      <point x="522" y="787"/>
      <point x="471" y="803"/>
      <point x="420" y="803" type="curve"/>
      <point x="291" y="803"/>
      <point x="198" y="741"/>
      <point x="199" y="620" type="curve"/>
      <point x="199" y="0" type="line"/>
      <point x="295" y="0"/>
      <point x="199" y="0"/>
    </contour>
  </outline>
</glyph>
<glyph name="g" format="1">
  <advance width="662"/>
  <unicode hex="0067"/>
  <outline>
    <contour>
      <point x="446" y="466" type="curve"/>
      <point x="648" y="542" type="line"/>
      <point x="648" y="542"/>
      <point x="611" y="613"/>
      <point x="611" y="614" type="curve"/>
      <point x="399" y="517" type="line"/>
      <point x="446" y="465"/>
      <point x="399" y="518"/>
    </contour>
    <contour>
      <point x="152" y="346" type="curve"/>
      <point x="152" y="430"/>
      <point x="231" y="467"/>
      <point x="326" y="467" type="curve"/>
      <point x="420" y="467"/>
      <point x="495" y="430"/>
      <point x="495" y="347" type="curve"/>
      <point x="495" y="267"/>
      <point x="419" y="234"/>
      <point x="326" y="234" type="curve"/>
      <point x="233" y="234"/>
      <point x="152" y="263"/>
      <point x="152" y="346" type="curve"/>
      <point x="56" y="343"/>
      <point x="152" y="346"/>
      <point x="56" y="343" type="curve"/>
      <point x="56" y="215"/>
      <point x="175" y="162"/>
      <point x="318" y="162" type="curve"/>
      <point x="467" y="162"/>
      <point x="590" y="217"/>
      <point x="590" y="350" type="curve"/>
      <point x="590" y="481"/>
      <point x="472" y="538"/>
      <point x="326" y="538" type="curve"/>
      <point x="177" y="538"/>
      <point x="56" y="477"/>
      <point x="56" y="343" type="curve"/>
      <point x="152" y="346"/>
      <point x="56" y="343"/>
    </contour>
    <contour>
      <point x="177" y="239" type="curve"/>
      <point x="112" y="213"/>
      <point x="61" y="179"/>
      <point x="61" y="112" type="curve"/>
      <point x="61" y="-2"/>
      <point x="183" y="-16"/>
      <point x="311" y="-24" type="curve"/>
      <point x="435" y="-32"/>
      <point x="565" y="-28"/>
      <point x="565" y="-129" type="curve"/>
      <point x="565" y="-220"/>
      <point x="447" y="-232"/>
      <point x="326" y="-232" type="curve"/>
      <point x="212" y="-232"/>
      <point x="106" y="-211"/>
      <point x="106" y="-116" type="curve"/>
      <point x="106" y="-46"/>
      <point x="157" y="-13"/>
      <point x="218" y="6" type="curve"/>
      <point x="170" y="50"/>
      <point x="218" y="6"/>
      <point x="170" y="50" type="curve"/>
      <point x="82" y="24"/>
      <point x="10" y="-23"/>
      <point x="10" y="-119" type="curve"/>
      <point x="10" y="-267"/>
      <point x="157" y="-304"/>
      <point x="322" y="-304" type="curve"/>
      <point x="495" y="-304"/>
      <point x="655" y="-278"/>
      <point x="652" y="-122" type="curve"/>
      <point x="652" y="30"/>
      <point x="492" y="35"/>
      <point x="328" y="44" type="curve"/>
      <point x="243" y="49"/>
      <point x="157" y="52"/>
      <point x="157" y="119" type="curve"/>
      <point x="157" y="158"/>
      <point x="184" y="179"/>
      <point x="221" y="195" type="curve"/>
      <point x="177" y="239"/>
      <point x="221" y="195"/>
    </contour>
    <contour>
      <point x="320" y="639" type="move" name="top"/>
    </contour>
  </outline>
</glyph>
<glyph name="h" format="1">
  <advance width="719"/>
  <unicode hex="0068"/>
  <outline>
    <contour>
      <point x="154" y="309" type="curve"/>
      <point x="195" y="407"/>
      <point x="288" y="466"/>
      <point x="387" y="466" type="curve"/>
      <point x="487" y="466"/>
      <point x="549" y="412"/>
      <point x="549" y="315" type="curve"/>
      <point x="549" y="209"/>
      <point x="549" y="108"/>
      <point x="549" y="0" type="curve"/>
      <point x="645" y="0"/>
      <point x="549" y="0"/>
      <point x="645" y="0" type="curve"/>
      <point x="645" y="110"/>
      <point x="645" y="220"/>
      <point x="645" y="330" type="curve"/>
      <point x="645" y="473"/>
      <point x="552" y="538"/>
      <point x="402" y="538" type="curve"/>
      <point x="275" y="538"/>
      <point x="160" y="469"/>
      <point x="107" y="343" type="curve"/>
      <point x="155" y="307"/>
      <point x="106" y="345"/>
    </contour>
    <contour>
      <point x="175" y="0" type="curve"/>
      <point x="175" y="267"/>
      <point x="175" y="533"/>
      <point x="175" y="800" type="curve"/>
      <point x="79" y="800"/>
      <point x="175" y="800"/>
      <point x="79" y="800" type="curve"/>
      <point x="79" y="533"/>
      <point x="79" y="267"/>
      <point x="79" y="0" type="curve"/>
      <point x="175" y="0"/>
      <point x="79" y="0"/>
    </contour>
  </outline>
</glyph>
<glyph name="i" format="1">
  <advance width="265"/>
  <unicode hex="0069"/>
  <outline>
    <contour>
      <point x="182" y="0" type="curve"/>
      <point x="182" y="178"/>
      <point x="182" y="355"/>
      <point x="182" y="533" type="curve"/>
      <point x="82" y="533"/>
      <point x="182" y="533"/>
      <point x="82" y="533" type="curve"/>
      <point x="82" y="355"/>
      <point x="82" y="178"/>
      <point x="82" y="0" type="curve"/>
      <point x="182" y="0"/>
      <point x="82" y="0"/>
    </contour>
    <contour>
      <point x="190" y="686" type="curve"/>
      <point x="190" y="719"/>
      <point x="165" y="735"/>
      <point x="130" y="735" type="curve"/>
      <point x="96" y="735"/>
      <point x="72" y="717"/>
      <point x="72" y="686" type="curve"/>
      <point x="179" y="686"/>
      <point x="83" y="686"/>
      <point x="190" y="686" type="curve"/>
      <point x="190" y="652"/>
      <point x="165" y="637"/>
      <point x="130" y="637" type="curve"/>
      <point x="95" y="637"/>
      <point x="72" y="654"/>
      <point x="72" y="686" type="curve"/>
      <point x="179" y="686"/>
      <point x="83" y="686"/>
    </contour>
    <contour>
      <point x="130" y="638" type="move" name="top"/>
    </contour>
    <contour>
      <point x="175" y="7" type="move" name="bottom"/>
    </contour>
  </outline>
</glyph>
<glyph name="j" format="1">
  <advance width="299"/>
  <unicode hex="006A"/>
  <outline>
    <contour>
      <point x="-59" y="-302" type="curve"/>
      <point x="-48" y="-302"/>
      <point x="-34" y="-305"/>
      <point x="-19" y="-305" type="curve"/>
      <point x="111" y="-305"/>
      <point x="216" y="-250"/>
      <point x="216" y="-129" type="curve"/>
      <point x="216" y="91"/>
      <point x="216" y="312"/>
      <point x="216" y="534" type="curve"/>
      <point x="121" y="534"/>
      <point x="216" y="534"/>
      <point x="121" y="534" type="curve"/>
      <point x="121" y="312"/>
      <point x="121" y="91"/>
      <point x="121" y="-129" type="curve"/>
      <point x="121" y="-200"/>
      <point x="61" y="-235"/>
      <point x="-15" y="-235" type="curve"/>
      <point x="-25" y="-235"/>
      <point x="-39" y="-233"/>
      <point x="-45" y="-232" type="curve"/>
      <point x="-59" y="-301"/>
      <point x="-46" y="-233"/>
    </contour>
    <contour>
      <point x="230" y="685" type="curve"/>
      <point x="230" y="718"/>
      <point x="204" y="734"/>
      <point x="170" y="734" type="curve"/>
      <point x="135" y="734"/>
      <point x="112" y="716"/>
      <point x="112" y="685" type="curve"/>
      <point x="219" y="685"/>
      <point x="123" y="685"/>
      <point x="230" y="685" type="curve"/>
      <point x="230" y="651"/>
      <point x="204" y="636"/>
      <point x="169" y="636" type="curve"/>
      <point x="135" y="636"/>
      <point x="112" y="653"/>
      <point x="112" y="685" type="curve"/>
      <point x="219" y="685"/>
      <point x="123" y="685"/>
    </contour>
  </outline>
</glyph>
<glyph name="k" format="1">
  <advance width="646"/>
  <unicode hex="006B"/>
  <outline>
    <contour>
      <point x="175" y="0" type="curve"/>
      <point x="175" y="800" type="line"/>
      <point x="79" y="800"/>
      <point x="175" y="800"/>
      <point x="79" y="800" type="curve"/>
      <point x="79" y="533"/>
      <point x="79" y="267"/>
      <point x="79" y="0" type="curve"/>
      <point x="175" y="0"/>
      <point x="79" y="0"/>
    </contour>
    <contour>
      <point x="474" y="533" type="curve"/>
      <point x="147" y="275" type="line"/>
      <point x="268" y="275"/>
      <point x="147" y="275"/>
      <point x="269" y="275" type="curve"/>
      <point x="603" y="533" type="line"/>
      <point x="468" y="533"/>
      <point x="609" y="533"/>
    </contour>
    <contour>
      <point x="636" y="0" type="curve"/>
      <point x="269" y="275" type="line"/>
      <point x="147" y="275"/>
      <point x="268" y="275"/>
      <point x="147" y="275" type="curve"/>
      <point x="505" y="0" type="line"/>
      <point x="641" y="0"/>
      <point x="499" y="0"/>
    </contour>
    <contour>
      <point x="382" y="-4" type="move" name="bottom"/>
    </contour>
  </outline>
</glyph>
<glyph name="m" format="1">
  <advance width="1089"/>
  <unicode hex="006D"/>
  <outline>
    <contour>
      <point x="573" y="303" type="curve"/>
      <point x="620" y="400"/>
      <point x="684" y="463"/>
      <point x="779" y="463" type="curve"/>
      <point x="875" y="463"/>
      <point x="919" y="419"/>
      <point x="919" y="322" type="curve"/>
      <point x="919" y="215"/>
      <point x="919" y="108"/>
      <point x="919" y="0" type="curve"/>
      <point x="1014" y="0"/>
      <point x="919" y="0"/>
      <point x="1014" y="0" type="curve"/>
      <point x="1014" y="110"/>
      <point x="1014" y="220"/>
      <point x="1014" y="330" type="curve"/>
      <point x="1014" y="474"/>
      <point x="945" y="538"/>
      <point x="800" y="538" type="curve"/>
      <point x="673" y="538"/>
      <point x="586" y="465"/>
      <point x="526" y="340" type="curve"/>
      <point x="573" y="303"/>
      <point x="525" y="339"/>
    </contour>
    <contour>
      <point x="154" y="306" type="curve"/>
      <point x="200" y="403"/>
      <point x="264" y="463"/>
      <point x="359" y="463" type="curve"/>
      <point x="454" y="463"/>
      <point x="499" y="419"/>
      <point x="499" y="322" type="curve"/>
      <point x="499" y="215"/>
      <point x="499" y="108"/>
      <point x="499" y="0" type="curve"/>
      <point x="595" y="0"/>
      <point x="499" y="0"/>
      <point x="595" y="0" type="curve"/>
      <point x="595" y="110"/>
      <point x="595" y="220"/>
      <point x="595" y="330" type="curve"/>
      <point x="595" y="474"/>
      <point x="527" y="538"/>
      <point x="381" y="538" type="curve"/>
      <point x="253" y="538"/>
      <point x="176" y="470"/>
      <point x="106" y="342" type="curve"/>
      <point x="154" y="306"/>
      <point x="106" y="342"/>
    </contour>
    <contour>
      <point x="175" y="0" type="curve"/>
      <point x="175" y="178"/>
      <point x="175" y="355"/>
      <point x="175" y="533" type="curve"/>
      <point x="79" y="533"/>
      <point x="175" y="533"/>
      <point x="79" y="533" type="curve"/>
      <point x="79" y="355"/>
      <point x="79" y="178"/>
      <point x="79" y="0" type="curve"/>
      <point x="175" y="0"/>
      <point x="79" y="0"/>
    </contour>
  </outline>
</glyph>
<glyph name="n" format="1">
  <advance width="719"/>
  <unicode hex="006E"/>
  <outline>
    <contour>
      <point x="154" y="296" type="curve"/>
      <point x="193" y="399"/>
      <point x="276" y="463"/>
      <point x="383" y="463" type="curve"/>
      <point x="482" y="463"/>
      <point x="549" y="417"/>
      <point x="549" y="322" type="curve"/>
      <point x="549" y="210"/>
      <point x="549" y="112"/>
      <point x="549" y="0" type="curve"/>
      <point x="596" y="0"/>
      <point x="598" y="0"/>
      <point x="645" y="0" type="curve"/>
      <point x="645" y="115"/>
      <point x="645" y="215"/>
      <point x="645" y="330" type="curve"/>
      <point x="645" y="471"/>
      <point x="553" y="538"/>
      <point x="405" y="538" type="curve"/>
      <point x="265" y="538"/>
      <point x="156" y="464"/>
      <point x="106" y="330" type="curve"/>
      <point x="128" y="311"/>
      <point x="132" y="315"/>
    </contour>
    <contour>
      <point x="175" y="0" type="curve"/>
      <point x="175" y="178"/>
      <point x="175" y="355"/>
      <point x="175" y="533" type="curve"/>
      <point x="79" y="533"/>
      <point x="175" y="533"/>
      <point x="79" y="533" type="curve"/>
      <point x="79" y="355"/>
      <point x="79" y="178"/>
      <point x="79" y="0" type="curve"/>
      <point x="175" y="0"/>
      <point x="79" y="0"/>
    </contour>
    <contour>
      <point x="372" y="638" type="move" name="top"/>
    </contour>
    <contour>
      <point x="387" y="17" type="move" name="bottom"/>
    </contour>
  </outline>
</glyph>
<glyph name="p" format="1">
  <advance width="748"/>
  <unicode hex="0070"/>
  <outline>
    <contour>
      <point x="143" y="347" type="curve"/>
      <point x="204" y="421"/>
      <point x="288" y="468"/>
      <point x="397" y="468" type="curve"/>
      <point x="521" y="468"/>
      <point x="605" y="393"/>
      <point x="605" y="269" type="curve"/>
      <point x="608" y="142"/>
      <point x="522" y="66"/>
      <point x="395" y="67" type="curve"/>
      <point x="297" y="67"/>
      <point x="221" y="101"/>
      <point x="145" y="161" type="curve"/>
      <point x="119" y="142"/>
      <point x="125" y="132"/>
      <point x="99" y="113" type="curve"/>
      <point x="185" y="37"/>
      <point x="281" y="-5"/>
      <point x="404" y="-5" type="curve"/>
      <point x="582" y="-5"/>
      <point x="701" y="99"/>
      <point x="700" y="273" type="curve"/>
      <point x="700" y="439"/>
      <point x="583" y="539"/>
      <point x="412" y="539" type="curve"/>
      <point x="279" y="539"/>
      <point x="178" y="487"/>
      <point x="105" y="398" type="curve"/>
      <point x="127" y="372"/>
      <point x="121" y="373"/>
    </contour>
    <contour>
      <point x="175" y="-300" type="curve"/>
      <point x="175" y="-22"/>
      <point x="175" y="255"/>
      <point x="175" y="533" type="curve"/>
      <point x="79" y="533"/>
      <point x="175" y="533"/>
      <point x="79" y="533" type="curve"/>
      <point x="79" y="255"/>
      <point x="79" y="-22"/>
      <point x="79" y="-300" type="curve"/>
      <point x="175" y="-300"/>
      <point x="79" y="-300"/>
    </contour>
  </outline>
</glyph>
<glyph name="q" format="1">
  <advance width="757"/>
  <unicode hex="0071"/>
  <outline>
    <contour>
      <point x="650" y="408" type="curve"/>
      <point x="564" y="489"/>
      <point x="466" y="538"/>
      <point x="344" y="538" type="curve"/>
      <point x="167" y="538"/>
      <point x="48" y="437"/>
      <point x="48" y="263" type="curve"/>
      <point x="48" y="90"/>
      <point x="172" y="-5"/>
      <point x="349" y="-5" type="curve"/>
      <point x="476" y="-5"/>
      <point x="574" y="51"/>
      <point x="663" y="140" type="curve"/>
      <point x="637" y="163"/>
      <point x="636" y="163"/>
      <point x="610" y="184" type="curve"/>
      <point x="545" y="106"/>
      <point x="461" y="67"/>
      <point x="361" y="67" type="curve"/>
      <point x="233" y="67"/>
      <point x="144" y="140"/>
      <point x="144" y="267" type="curve"/>
      <point x="144" y="393"/>
      <point x="231" y="466"/>
      <point x="358" y="466" type="curve"/>
      <point x="459" y="466"/>
      <point x="545" y="422"/>
      <point x="613" y="356" type="curve"/>
      <point x="636" y="381"/>
      <point x="628" y="384"/>
    </contour>
    <contour>
      <point x="678" y="-300" type="curve"/>
      <point x="678" y="-8"/>
      <point x="678" y="241"/>
      <point x="678" y="533" type="curve"/>
      <point x="628" y="533"/>
      <point x="627" y="533"/>
      <point x="577" y="533" type="curve"/>
      <point x="577" y="241"/>
      <point x="577" y="-8"/>
      <point x="577" y="-300" type="curve"/>
      <point x="627" y="-300"/>
      <point x="628" y="-300"/>
    </contour>
  </outline>
</glyph>
<glyph name="r" format="1">
  <advance width="458"/>
  <unicode hex="0072"/>
  <outline>
    <contour>
      <point x="175" y="0" type="curve"/>
      <point x="175" y="191"/>
      <point x="175" y="342"/>
      <point x="175" y="533" type="curve"/>
      <point x="127" y="533"/>
      <point x="128" y="533"/>
      <point x="79" y="533" type="curve"/>
      <point x="79" y="342"/>
      <point x="79" y="191"/>
      <point x="79" y="0" type="curve"/>
      <point x="128" y="0"/>
      <point x="127" y="0"/>
    </contour>
    <contour>
      <point x="150" y="299" type="curve"/>
      <point x="217" y="420"/>
      <point x="317" y="454"/>
      <point x="447" y="454" type="curve"/>
      <point x="447" y="497"/>
      <point x="447" y="495"/>
      <point x="447" y="538" type="curve"/>
      <point x="301" y="538"/>
      <point x="190" y="479"/>
      <point x="120" y="354" type="curve"/>
      <point x="139" y="325"/>
      <point x="132" y="327"/>
    </contour>
    <contour>
      <point x="169" y="639" type="move" name="top"/>
    </contour>
    <contour>
      <point x="149" y="14" type="move" name="bottom"/>
    </contour>
  </outline>
</glyph>
<glyph name="t" format="1">
  <advance width="513"/>
  <unicode hex="0074"/>
  <outline>
    <contour>
      <point x="22" y="461" type="curve"/>
      <point x="491" y="461" type="line"/>
      <point x="491" y="533"/>
      <point x="491" y="461"/>
      <point x="491" y="533" type="curve"/>
      <point x="22" y="533" type="line"/>
      <point x="22" y="461"/>
      <point x="22" y="533"/>
    </contour>
    <contour>
      <point x="472" y="92" type="curve"/>
      <point x="434" y="76"/>
      <point x="406" y="69"/>
      <point x="365" y="69" type="curve"/>
      <point x="301" y="69"/>
      <point x="264" y="97"/>
      <point x="264" y="162" type="curve"/>
      <point x="264" y="683" type="line"/>
      <point x="246" y="673"/>
      <point x="186" y="642"/>
      <point x="169" y="631" type="curve"/>
      <point x="169" y="158" type="line"/>
      <point x="169" y="45"/>
      <point x="241" y="-6"/>
      <point x="356" y="-6" type="curve"/>
      <point x="415" y="-6"/>
      <point x="455" y="9"/>
      <point x="498" y="27" type="curve"/>
      <point x="472" y="92"/>
      <point x="498" y="27"/>
    </contour>
    <contour>
      <point x="372" y="2" type="move" name="bottom"/>
    </contour>
  </outline>
</glyph>
<glyph name="v" format="1">
  <advance width="679"/>
  <unicode hex="0076"/>
  <outline>
    <contour>
      <point x="22" y="533" type="curve"/>
      <point x="109" y="355"/>
      <point x="197" y="178"/>
      <point x="284" y="0" type="curve"/>
      <point x="380" y="0"/>
      <point x="284" y="0"/>
      <point x="380" y="0" type="curve"/>
      <point x="293" y="178"/>
      <point x="207" y="355"/>
      <point x="120" y="533" type="curve"/>
      <point x="22" y="533"/>
      <point x="120" y="533"/>
    </contour>
    <contour>
      <point x="566" y="533" type="curve"/>
      <point x="291" y="0" type="line"/>
      <point x="387" y="0"/>
      <point x="291" y="0"/>
      <point x="387" y="0" type="curve"/>
      <point x="479" y="178"/>
      <point x="571" y="355"/>
      <point x="663" y="533" type="curve"/>
      <point x="566" y="533"/>
      <point x="663" y="533"/>
    </contour>
  </outline>
</glyph>
<glyph name="w" format="1">
  <advance width="1102"/>
  <unicode hex="0077"/>
  <outline>
    <contour>
      <point x="349" y="0" type="curve"/>
      <point x="435" y="178"/>
      <point x="520" y="355"/>
      <point x="605" y="533" type="curve"/>
      <point x="508" y="533"/>
      <point x="605" y="533"/>
      <point x="508" y="533" type="curve"/>
      <point x="423" y="355"/>
      <point x="339" y="178"/>
      <point x="255" y="0" type="curve"/>
      <point x="349" y="0"/>
      <point x="255" y="0"/>
    </contour>
    <contour>
      <point x="984" y="533" type="curve"/>
      <point x="905" y="355"/>
      <point x="826" y="178"/>
      <point x="748" y="0" type="curve"/>
      <point x="842" y="0"/>
      <point x="748" y="0"/>
      <point x="842" y="0" type="curve"/>
      <point x="922" y="178"/>
      <point x="1002" y="355"/>
      <point x="1082" y="533" type="curve"/>
      <point x="984" y="533"/>
      <point x="1082" y="533"/>
    </contour>
    <contour>
      <point x="515" y="533" type="curve"/>
      <point x="592" y="355"/>
      <point x="669" y="178"/>
      <point x="746" y="0" type="curve"/>
      <point x="840" y="0"/>
      <point x="746" y="0"/>
      <point x="840" y="0" type="curve"/>
      <point x="765" y="178"/>
      <point x="688" y="355"/>
      <point x="611" y="533" type="curve"/>
      <point x="515" y="533"/>
      <point x="611" y="533"/>
    </contour>
    <contour>
      <point x="23" y="533" type="curve"/>
      <point x="100" y="355"/>
      <point x="177" y="178"/>
      <point x="253" y="0" type="curve"/>
      <point x="348" y="0"/>
      <point x="253" y="0"/>
      <point x="348" y="0" type="curve"/>
      <point x="272" y="178"/>
      <point x="196" y="355"/>
      <point x="120" y="533" type="curve"/>
      <point x="23" y="533"/>
      <point x="120" y="533"/>
    </contour>
  </outline>
</glyph>
<glyph name="x" format="1">
  <advance width="702"/>
  <unicode hex="0078"/>
  <outline>
    <contour>
      <point x="688" y="0" type="curve"/>
      <point x="604" y="83"/>
      <point x="215" y="450"/>
      <point x="132" y="533" type="curve"/>
      <point x="-17" y="533"/>
      <point x="176" y="533"/>
      <point x="28" y="533" type="curve"/>
      <point x="111" y="450"/>
      <point x="490" y="83"/>
      <point x="573" y="0" type="curve"/>
      <point x="688" y="0"/>
      <point x="573" y="0"/>
    </contour>
    <contour>
      <point x="574" y="533" type="curve"/>
      <point x="490" y="450"/>
      <point x="95" y="83"/>
      <point x="11" y="0" type="curve"/>
      <point x="128" y="0"/>
      <point x="11" y="0"/>
      <point x="128" y="0" type="curve"/>
      <point x="212" y="83"/>
      <point x="599" y="450"/>
      <point x="683" y="533" type="curve"/>
      <point x="512" y="533"/>
      <point x="745" y="533"/>
    </contour>
  </outline>
</glyph>
<glyph name="z" format="1">
  <advance width="627"/>
  <unicode hex="007A"/>
  <outline>
    <contour>
      <point x="54" y="461" type="curve"/>
      <point x="216" y="461"/>
      <point x="372" y="461"/>
      <point x="533" y="461" type="curve"/>
      <point x="526" y="470"/>
      <point x="512" y="466"/>
      <point x="505" y="475" type="curve"/>
      <point x="500" y="482"/>
      <point x="497" y="491"/>
      <point x="492" y="498" type="curve"/>
      <point x="485" y="492"/>
      <point x="477" y="494"/>
      <point x="471" y="488" type="curve"/>
      <point x="33" y="72" type="line"/>
      <point x="33" y="35"/>
      <point x="33" y="72"/>
      <point x="33" y="35" type="curve"/>
      <point x="33" y="0"/>
      <point x="33" y="35"/>
      <point x="33" y="0" type="curve"/>
      <point x="66" y="0"/>
      <point x="33" y="0"/>
      <point x="66" y="0" type="curve"/>
      <point x="598" y="0"/>
      <point x="415" y="0"/>
      <point x="593" y="0" type="curve"/>
      <point x="593" y="72"/>
      <point x="593" y="0"/>
      <point x="593" y="72" type="curve"/>
      <point x="415" y="72"/>
      <point x="243" y="72"/>
      <point x="66" y="72" type="curve"/>
      <point x="74" y="67"/>
      <point x="83" y="66"/>
      <point x="91" y="60" type="curve"/>
      <point x="97" y="53"/>
      <point x="102" y="43"/>
      <point x="108" y="35" type="curve"/>
      <point x="113" y="41"/>
      <point x="117" y="40"/>
      <point x="123" y="45" type="curve"/>
      <point x="559" y="461" type="line"/>
      <point x="559" y="498"/>
      <point x="559" y="461"/>
      <point x="559" y="498" type="curve"/>
      <point x="559" y="533"/>
      <point x="559" y="498"/>
      <point x="559" y="533" type="curve"/>
      <point x="533" y="533"/>
      <point x="559" y="533"/>
      <point x="533" y="533" type="curve"/>
      <point x="372" y="533"/>
      <point x="216" y="533"/>
      <point x="54" y="533" type="curve"/>
      <point x="54" y="461"/>
      <point x="54" y="533"/>
    </contour>
    <contour>
      <point x="307" y="638" type="move" name="top"/>
    </contour>
  </outline>
</glyph>
<glyph name="braceleft" format="1">
  <advance width="351"/>
  <unicode hex="007B"/>
  <outline>
    <contour>
      <point x="316" y="-43" type="curve"/>
      <point x="254" y="-43"/>
      <point x="213" y="-11"/>
      <point x="213" y="49" type="curve"/>
      <point x="213" y="103"/>
      <point x="213" y="157"/>
      <point x="213" y="212" type="curve"/>
      <point x="213" y="318"/>
      <point x="135" y="378"/>
      <point x="24" y="378" type="curve"/>
      <point x="24" y="303"/>
      <point x="24" y="378"/>
      <point x="24" y="303" type="curve"/>
      <point x="84" y="303"/>
      <point x="126" y="276"/>
      <point x="126" y="219" type="curve"/>
      <point x="126" y="163"/>
      <point x="126" y="108"/>
      <point x="126" y="52" type="curve"/>
      <point x="126" y="-56"/>
      <point x="203" y="-115"/>
      <point x="316" y="-115" type="curve"/>
      <point x="316" y="-43"/>
      <point x="316" y="-115"/>
    </contour>
    <contour>
      <point x="316" y="794" type="curve"/>
      <point x="203" y="794"/>
      <point x="126" y="738"/>
      <point x="126" y="629" type="curve"/>
      <point x="126" y="573"/>
      <point x="126" y="515"/>
      <point x="126" y="458" type="curve"/>
      <point x="126" y="402"/>
      <point x="83" y="378"/>
      <point x="24" y="378" type="curve"/>
      <point x="24" y="303"/>
      <point x="24" y="378"/>
      <point x="24" y="303" type="curve"/>
      <point x="136" y="303"/>
      <point x="212" y="361"/>
      <point x="212" y="469" type="curve"/>
      <point x="212" y="522"/>
      <point x="212" y="576"/>
      <point x="212" y="629" type="curve"/>
      <point x="212" y="689"/>
      <point x="253" y="722"/>
      <point x="316" y="722" type="curve"/>
      <point x="316" y="794"/>
      <point x="316" y="722"/>
    </contour>
  </outline>
</glyph>
<glyph name="braceright" format="1">
  <advance width="352"/>
  <unicode hex="007D"/>
  <outline>
    <contour>
      <point x="34" y="-115" type="curve"/>
      <point x="147" y="-115"/>
      <point x="224" y="-56"/>
      <point x="224" y="52" type="curve"/>
      <point x="224" y="108"/>
      <point x="224" y="163"/>
      <point x="224" y="219" type="curve"/>
      <point x="224" y="275"/>
      <point x="267" y="302"/>
      <point x="326" y="302" type="curve"/>
      <point x="326" y="378"/>
      <point x="326" y="302"/>
      <point x="326" y="378" type="curve"/>
      <point x="214" y="378"/>
      <point x="137" y="318"/>
      <point x="137" y="212" type="curve"/>
      <point x="137" y="157"/>
      <point x="137" y="103"/>
      <point x="137" y="49" type="curve"/>
      <point x="137" y="-11"/>
      <point x="96" y="-43"/>
      <point x="34" y="-43" type="curve"/>
      <point x="34" y="-115"/>
      <point x="34" y="-43"/>
    </contour>
    <contour>
      <point x="34" y="722" type="curve"/>
      <point x="97" y="722"/>
      <point x="137" y="689"/>
      <point x="137" y="629" type="curve"/>
      <point x="137" y="576"/>
      <point x="137" y="522"/>
      <point x="137" y="469" type="curve"/>
      <point x="137" y="360"/>
      <point x="214" y="302"/>
      <point x="326" y="302" type="curve"/>
      <point x="326" y="378"/>
      <point x="326" y="302"/>
      <point x="326" y="378" type="curve"/>
      <point x="266" y="378"/>
      <point x="223" y="402"/>
      <point x="223" y="458" type="curve"/>
      <point x="223" y="515"/>
      <point x="223" y="573"/>
      <point x="223" y="629" type="curve"/>
      <point x="223" y="737"/>
      <point x="147" y="794"/>
      <point x="34" y="794" type="curve"/>
      <point x="34" y="722"/>
      <point x="34" y="794"/>
    </contour>
  </outline>
</glyph>
<glyph name="asciitilde" format="1">
  <advance width="806"/>
  <unicode hex="007E"/>
  <outline>
    <contour>
      <point x="666" y="364" type="curve"/>
      <point x="644" y="315"/>
      <point x="618" y="276"/>
      <point x="561" y="276" type="curve"/>
      <point x="507" y="276"/>
      <point x="472" y="287"/>
      <point x="426" y="316" type="curve"/>
      <point x="367" y="353"/>
      <point x="325" y="372"/>
      <point x="256" y="372" type="curve"/>
      <point x="155" y="372"/>
      <point x="99" y="330"/>
      <point x="66" y="239" type="curve"/>
      <point x="97" y="224"/>
      <point x="102" y="222"/>
      <point x="134" y="208" type="curve"/>
      <point x="154" y="264"/>
      <point x="187" y="300"/>
      <point x="251" y="300" type="curve"/>
      <point x="298" y="300"/>
      <point x="327" y="290"/>
      <point x="366" y="264" type="curve"/>
      <point x="431" y="225"/>
      <point x="476" y="205"/>
      <point x="553" y="204" type="curve"/>
      <point x="650" y="204"/>
      <point x="701" y="248"/>
      <point x="740" y="332" type="curve"/>
      <point x="706" y="347"/>
      <point x="701" y="350"/>
    </contour>
  </outline>
</glyph>
<glyph name="exclamdown" format="1">
  <advance width="259"/>
  <unicode hex="00A1"/>
  <outline>
    <contour>
      <point x="93" y="309" type="line"/>
      <point x="80" y="-184" type="line"/>
      <point x="181" y="-184" type="line"/>
      <point x="169" y="309" type="line"/>
    </contour>
    <contour>
      <point x="72" y="498" type="curve"/>
      <point x="72" y="465"/>
      <point x="97" y="449"/>
      <point x="131" y="449" type="curve"/>
      <point x="165" y="449"/>
      <point x="188" y="467"/>
      <point x="188" y="498" type="curve"/>
      <point x="82" y="498"/>
      <point x="177" y="498"/>
      <point x="72" y="498" type="curve"/>
      <point x="72" y="531"/>
      <point x="97" y="546"/>
      <point x="131" y="546" type="curve"/>
      <point x="165" y="546"/>
      <point x="188" y="529"/>
      <point x="188" y="498" type="curve"/>
      <point x="82" y="498"/>
      <point x="177" y="498"/>
    </contour>
  </outline>
</glyph>
<glyph name="cent" format="1">
  <advance width="775"/>
  <unicode hex="00A2"/>
  <outline>
    <contour>
      <point x="458" y="-53" type="curve"/>
      <point x="458" y="-13"/>
      <point x="458" y="27"/>
      <point x="458" y="67" type="curve"/>
      <point x="362" y="67"/>
      <point x="458" y="67"/>
      <point x="362" y="67" type="curve"/>
      <point x="362" y="27"/>
      <point x="362" y="-13"/>
      <point x="362" y="-53" type="curve"/>
      <point x="458" y="-53"/>
      <point x="362" y="-53"/>
    </contour>
    <contour>
      <point x="389" y="778" type="curve"/>
      <point x="389" y="742"/>
      <point x="389" y="706"/>
      <point x="389" y="670" type="curve"/>
      <point x="484" y="670"/>
      <point x="389" y="670"/>
      <point x="484" y="670" type="curve"/>
      <point x="484" y="706"/>
      <point x="484" y="742"/>
      <point x="484" y="778" type="curve"/>
      <point x="389" y="778"/>
      <point x="484" y="778"/>
    </contour>
    <contour>
      <point x="730" y="614" type="curve"/>
      <point x="632" y="664"/>
      <point x="555" y="683"/>
      <point x="444" y="683" type="curve"/>
      <point x="214" y="683"/>
      <point x="45" y="579"/>
      <point x="45" y="364" type="curve"/>
      <point x="45" y="161"/>
      <point x="191" y="49"/>
      <point x="404" y="49" type="curve"/>
      <point x="531" y="49"/>
      <point x="621" y="75"/>
      <point x="730" y="140" type="curve"/>
      <point x="678" y="203"/>
      <point x="730" y="140"/>
      <point x="678" y="203" type="curve"/>
      <point x="584" y="147"/>
      <point x="514" y="124"/>
      <point x="413" y="124" type="curve"/>
      <point x="250" y="124"/>
      <point x="140" y="212"/>
      <point x="140" y="368" type="curve"/>
      <point x="140" y="529"/>
      <point x="265" y="608"/>
      <point x="436" y="608" type="curve"/>
      <point x="529" y="608"/>
      <point x="596" y="593"/>
      <point x="687" y="548" type="curve"/>
      <point x="730" y="614"/>
      <point x="687" y="548"/>
    </contour>
  </outline>
</glyph>
<glyph name="sterling" format="1">
  <advance width="620"/>
  <unicode hex="00A3"/>
  <outline>
    <contour>
      <point x="551" y="72" type="curve"/>
      <point x="380" y="72"/>
      <point x="211" y="72"/>
      <point x="41" y="72" type="curve"/>
      <point x="41" y="0"/>
      <point x="41" y="72"/>
      <point x="41" y="0" type="curve"/>
      <point x="211" y="0"/>
      <point x="380" y="0"/>
      <point x="551" y="0" type="curve"/>
      <point x="551" y="72"/>
      <point x="551" y="0"/>
    </contour>
    <contour>
      <point x="491" y="412" type="curve"/>
      <point x="356" y="412"/>
      <point x="220" y="412"/>
      <point x="85" y="412" type="curve"/>
      <point x="85" y="340"/>
      <point x="85" y="412"/>
      <point x="85" y="340" type="curve"/>
      <point x="220" y="340"/>
      <point x="356" y="340"/>
      <point x="491" y="340" type="curve"/>
      <point x="491" y="412"/>
      <point x="491" y="340"/>
    </contour>
    <contour>
      <point x="577" y="667" type="curve"/>
      <point x="516" y="707"/>
      <point x="467" y="721"/>
      <point x="395" y="721" type="curve"/>
      <point x="214" y="721"/>
      <point x="118" y="563"/>
      <point x="172" y="369" type="curve"/>
      <point x="215" y="210"/>
      <point x="169" y="72"/>
      <point x="41" y="72" type="curve"/>
      <point x="41" y="0"/>
      <point x="41" y="72"/>
      <point x="41" y="0" type="curve"/>
      <point x="236" y="0"/>
      <point x="323" y="175"/>
      <point x="267" y="383" type="curve"/>
      <point x="227" y="528"/>
      <point x="278" y="653"/>
      <point x="390" y="653" type="curve"/>
      <point x="446" y="653"/>
      <point x="483" y="641"/>
      <point x="532" y="613" type="curve"/>
      <point x="577" y="667"/>
      <point x="532" y="613"/>
    </contour>
  </outline>
</glyph>
<glyph name="currency" format="1">
  <advance width="739"/>
  <unicode hex="00A4"/>
  <outline>
    <contour>
      <point x="232" y="314" type="curve"/>
      <point x="232" y="387"/>
      <point x="290" y="425"/>
      <point x="369" y="425" type="curve"/>
      <point x="451" y="425"/>
      <point x="508" y="388"/>
      <point x="508" y="313" type="curve"/>
      <point x="508" y="239"/>
      <point x="454" y="197"/>
      <point x="377" y="197" type="curve"/>
      <point x="292" y="197"/>
      <point x="232" y="235"/>
      <point x="232" y="314" type="curve"/>
      <point x="136" y="314"/>
      <point x="232" y="314"/>
      <point x="136" y="314" type="curve"/>
      <point x="136" y="186"/>
      <point x="237" y="125"/>
      <point x="373" y="125" type="curve"/>
      <point x="507" y="125"/>
      <point x="603" y="191"/>
      <point x="603" y="316" type="curve"/>
      <point x="603" y="437"/>
      <point x="507" y="497"/>
      <point x="378" y="497" type="curve"/>
      <point x="240" y="497"/>
      <point x="136" y="440"/>
      <point x="136" y="314" type="curve"/>
      <point x="232" y="314"/>
      <point x="136" y="314"/>
    </contour>
    <contour>
      <point x="530" y="347" type="line"/>
      <point x="685" y="492" type="line"/>
      <point x="609" y="569" type="line"/>
      <point x="463" y="414" type="line"/>
    </contour>
    <contour>
      <point x="463" y="213" type="line"/>
      <point x="609" y="58" type="line"/>
      <point x="685" y="134" type="line"/>
      <point x="530" y="280" type="line"/>
    </contour>
    <contour>
      <point x="208" y="281" type="line"/>
      <point x="53" y="136" type="line"/>
      <point x="129" y="59" type="line"/>
      <point x="275" y="215" type="line"/>
    </contour>
    <contour>
      <point x="275" y="415" type="line"/>
      <point x="129" y="570" type="line"/>
      <point x="53" y="493" type="line"/>
      <point x="209" y="348" type="line"/>
    </contour>
  </outline>
</glyph>
<glyph name="yen" format="1">
  <advance width="787"/>
  <unicode hex="00A5"/>
  <outline>
    <contour>
      <point x="679" y="413" type="curve"/>
      <point x="590" y="413"/>
      <point x="501" y="413"/>
      <point x="412" y="413" type="curve"/>
      <point x="412" y="334"/>
      <point x="412" y="413"/>
      <point x="412" y="334" type="curve"/>
      <point x="501" y="334"/>
      <point x="590" y="334"/>
      <point x="679" y="334" type="curve"/>
      <point x="679" y="413"/>
      <point x="679" y="334"/>
    </contour>
    <contour>
      <point x="375" y="413" type="curve"/>
      <point x="289" y="413"/>
      <point x="201" y="413"/>
      <point x="114" y="413" type="curve"/>
      <point x="114" y="334"/>
      <point x="114" y="413"/>
      <point x="114" y="334" type="curve"/>
      <point x="201" y="334"/>
      <point x="289" y="334"/>
      <point x="375" y="334" type="curve"/>
      <point x="375" y="413"/>
      <point x="375" y="334"/>
    </contour>
    <contour>
      <point x="679" y="268" type="curve"/>
      <point x="491" y="268"/>
      <point x="302" y="268"/>
      <point x="114" y="268" type="curve"/>
      <point x="114" y="189"/>
      <point x="114" y="268"/>
      <point x="114" y="189" type="curve"/>
      <point x="302" y="189"/>
      <point x="491" y="189"/>
      <point x="679" y="189" type="curve"/>
      <point x="679" y="268"/>
      <point x="679" y="189"/>
    </contour>
    <contour>
      <point x="37" y="722" type="curve"/>
      <point x="130" y="601"/>
      <point x="248" y="459"/>
      <point x="342" y="337" type="curve"/>
      <point x="440" y="337"/>
      <point x="341" y="339"/>
      <point x="439" y="339" type="curve"/>
      <point x="340" y="467"/>
      <point x="243" y="594"/>
      <point x="145" y="722" type="curve"/>
      <point x="61" y="722"/>
      <point x="120" y="722"/>
    </contour>
    <contour>
      <point x="654" y="722" type="curve"/>
      <point x="550" y="594"/>
      <point x="447" y="466"/>
      <point x="343" y="339" type="curve"/>
      <point x="441" y="339"/>
      <point x="343" y="337"/>
      <point x="440" y="337" type="curve"/>
      <point x="540" y="459"/>
      <point x="655" y="600"/>
      <point x="755" y="722" type="curve"/>
      <point x="671" y="722"/>
      <point x="738" y="722"/>
    </contour>
    <contour>
      <point x="443" y="0" type="curve"/>
      <point x="443" y="115"/>
      <point x="443" y="231"/>
      <point x="443" y="346" type="curve"/>
      <point x="339" y="346"/>
      <point x="443" y="346"/>
      <point x="339" y="346" type="curve"/>
      <point x="339" y="231"/>
      <point x="339" y="115"/>
      <point x="339" y="0" type="curve"/>
      <point x="443" y="0"/>
      <point x="339" y="0"/>
    </contour>
  </outline>
</glyph>
<glyph name="section" format="1">
  <advance width="602"/>
  <unicode hex="00A7"/>
  <outline>
    <contour>
      <point x="501" y="706" type="curve"/>
      <point x="431" y="735"/>
      <point x="380" y="750"/>
      <point x="304" y="750" type="curve"/>
      <point x="183" y="750"/>
      <point x="91" y="710"/>
      <point x="91" y="608" type="curve"/>
      <point x="91" y="514"/>
      <point x="167" y="477"/>
      <point x="264" y="451" type="curve"/>
      <point x="356" y="427"/>
      <point x="462" y="430"/>
      <point x="462" y="357" type="curve"/>
      <point x="462" y="291"/>
      <point x="397" y="269"/>
      <point x="319" y="258" type="curve"/>
      <point x="375" y="201"/>
      <point x="319" y="258"/>
      <point x="375" y="201" type="curve"/>
      <point x="479" y="220"/>
      <point x="557" y="263"/>
      <point x="557" y="361" type="curve"/>
      <point x="556" y="480"/>
      <point x="437" y="491"/>
      <point x="312" y="519" type="curve"/>
      <point x="247" y="536"/>
      <point x="186" y="550"/>
      <point x="186" y="608" type="curve"/>
      <point x="186" y="661"/>
      <point x="234" y="678"/>
      <point x="296" y="678" type="curve"/>
      <point x="358" y="678"/>
      <point x="400" y="669"/>
      <point x="464" y="644" type="curve"/>
      <point x="501" y="706"/>
      <point x="464" y="644"/>
    </contour>
    <contour>
      <point x="223" y="521" type="curve"/>
      <point x="125" y="499"/>
      <point x="48" y="461"/>
      <point x="48" y="366" type="curve"/>
      <point x="48" y="255"/>
      <point x="153" y="233"/>
      <point x="270" y="205" type="curve"/>
      <point x="346" y="185"/>
      <point x="425" y="176"/>
      <point x="425" y="116" type="curve"/>
      <point x="425" y="63"/>
      <point x="371" y="44"/>
      <point x="305" y="44" type="curve"/>
      <point x="236" y="44"/>
      <point x="189" y="57"/>
      <point x="119" y="89" type="curve"/>
      <point x="75" y="31"/>
      <point x="119" y="89"/>
      <point x="75" y="31" type="curve"/>
      <point x="152" y="-11"/>
      <point x="213" y="-27"/>
      <point x="301" y="-27" type="curve"/>
      <point x="422" y="-27"/>
      <point x="521" y="9"/>
      <point x="521" y="119" type="curve"/>
      <point x="519" y="217"/>
      <point x="434" y="250"/>
      <point x="331" y="273" type="curve"/>
      <point x="242" y="296"/>
      <point x="144" y="298"/>
      <point x="144" y="373" type="curve"/>
      <point x="144" y="434"/>
      <point x="202" y="451"/>
      <point x="271" y="468" type="curve"/>
      <point x="223" y="521"/>
      <point x="271" y="468"/>
    </contour>
  </outline>
</glyph>
<glyph name="dieresis" format="1">
  <advance width="452"/>
  <unicode hex="00A8"/>
  <outline>
    <contour>
      <point x="177" y="621" type="curve"/>
      <point x="177" y="653"/>
      <point x="152" y="669"/>
      <point x="118" y="669" type="curve"/>
      <point x="84" y="669"/>
      <point x="61" y="652"/>
      <point x="61" y="621" type="curve"/>
      <point x="167" y="621"/>
      <point x="71" y="621"/>
      <point x="177" y="621" type="curve"/>
      <point x="177" y="588"/>
      <point x="152" y="573"/>
      <point x="117" y="573" type="curve"/>
      <point x="83" y="573"/>
      <point x="61" y="589"/>
      <point x="61" y="621" type="curve"/>
      <point x="167" y="621"/>
      <point x="71" y="621"/>
    </contour>
    <contour>
      <point x="375" y="621" type="curve"/>
      <point x="375" y="653"/>
      <point x="350" y="669"/>
      <point x="316" y="669" type="curve"/>
      <point x="282" y="669"/>
      <point x="259" y="652"/>
      <point x="259" y="621" type="curve"/>
      <point x="365" y="621"/>
      <point x="269" y="621"/>
      <point x="375" y="621" type="curve"/>
      <point x="375" y="588"/>
      <point x="350" y="573"/>
      <point x="315" y="573" type="curve"/>
      <point x="282" y="573"/>
      <point x="259" y="589"/>
      <point x="259" y="621" type="curve"/>
      <point x="365" y="621"/>
      <point x="269" y="621"/>
    </contour>
    <contour>
      <point x="218" y="575" type="move" name="_top"/>
    </contour>
  </outline>
</glyph>
<glyph name="copyright" format="1">
  <advance width="949"/>
  <unicode hex="00A9"/>
  <outline>
    <contour>
      <point x="131" y="322" type="curve"/>
      <point x="131" y="499"/>
      <point x="286" y="586"/>
      <point x="478" y="586" type="curve"/>
      <point x="665" y="586"/>
      <point x="817" y="495"/>
      <point x="817" y="320" type="curve"/>
      <point x="817" y="150"/>
      <point x="670" y="61"/>
      <point x="487" y="61" type="curve"/>
      <point x="294" y="61"/>
      <point x="131" y="144"/>
      <point x="131" y="322" type="curve"/>
      <point x="52" y="322"/>
      <point x="131" y="322"/>
      <point x="53" y="322" type="curve"/>
      <point x="53" y="106"/>
      <point x="247" y="2"/>
      <point x="484" y="2" type="curve"/>
      <point x="712" y="2"/>
      <point x="895" y="112"/>
      <point x="895" y="323" type="curve"/>
      <point x="895" y="536"/>
      <point x="709" y="645"/>
      <point x="478" y="645" type="curve"/>
      <point x="245" y="645"/>
      <point x="53" y="538"/>
      <point x="53" y="322" type="curve"/>
      <point x="131" y="322"/>
      <point x="52" y="322"/>
    </contour>
    <contour>
      <point x="647" y="463" type="curve"/>
      <point x="601" y="490"/>
      <point x="548" y="506"/>
      <point x="485" y="506" type="curve"/>
      <point x="351" y="506"/>
      <point x="252" y="445"/>
      <point x="252" y="321" type="curve"/>
      <point x="252" y="202"/>
      <point x="342" y="142"/>
      <point x="467" y="142" type="curve"/>
      <point x="541" y="142"/>
      <point x="593" y="152"/>
      <point x="654" y="188" type="curve"/>
      <point x="618" y="236"/>
      <point x="654" y="188"/>
      <point x="618" y="236" type="curve"/>
      <point x="565" y="208"/>
      <point x="524" y="200"/>
      <point x="471" y="200" type="curve"/>
      <point x="387" y="200"/>
      <point x="331" y="244"/>
      <point x="331" y="324" type="curve"/>
      <point x="331" y="406"/>
      <point x="393" y="446"/>
      <point x="481" y="446" type="curve"/>
      <point x="521" y="446"/>
      <point x="561" y="440"/>
      <point x="612" y="418" type="curve"/>
      <point x="647" y="463"/>
      <point x="611" y="417"/>
    </contour>
  </outline>
</glyph>
<glyph name="ordfeminine" format="1">
  <advance width="476"/>
  <unicode hex="00AA"/>
  <outline>
    <contour>
      <point x="407" y="426" type="curve"/>
      <point x="407" y="514"/>
      <point x="407" y="586"/>
      <point x="407" y="674" type="curve"/>
      <point x="407" y="758"/>
      <point x="331" y="776"/>
      <point x="238" y="776" type="curve"/>
      <point x="169" y="776"/>
      <point x="111" y="755"/>
      <point x="69" y="725" type="curve"/>
      <point x="92" y="687"/>
      <point x="75" y="718"/>
      <point x="98" y="680" type="curve"/>
      <point x="127" y="702"/>
      <point x="173" y="724"/>
      <point x="229" y="724" type="curve"/>
      <point x="287" y="724"/>
      <point x="339" y="714"/>
      <point x="339" y="661" type="curve"/>
      <point x="339" y="578"/>
      <point x="339" y="509"/>
      <point x="339" y="426" type="curve"/>
      <point x="400" y="426"/>
      <point x="346" y="426"/>
    </contour>
    <contour>
      <point x="371" y="646" type="curve"/>
      <point x="307" y="640"/>
      <point x="265" y="638"/>
      <point x="200" y="632" type="curve"/>
      <point x="116" y="624"/>
      <point x="50" y="603"/>
      <point x="50" y="526" type="curve"/>
      <point x="50" y="450"/>
      <point x="112" y="421"/>
      <point x="196" y="421" type="curve"/>
      <point x="282" y="421"/>
      <point x="332" y="462"/>
      <point x="388" y="524" type="curve"/>
      <point x="360" y="547"/>
      <point x="384" y="528"/>
      <point x="356" y="551" type="curve"/>
      <point x="315" y="506"/>
      <point x="270" y="472"/>
      <point x="208" y="472" type="curve"/>
      <point x="157" y="472"/>
      <point x="117" y="485"/>
      <point x="117" y="527" type="curve"/>
      <point x="117" y="568"/>
      <point x="154" y="581"/>
      <point x="198" y="585" type="curve"/>
      <point x="265" y="592"/>
      <point x="307" y="595"/>
      <point x="374" y="602" type="curve"/>
      <point x="371" y="640"/>
      <point x="374" y="607"/>
    </contour>
  </outline>
</glyph>
<glyph name="guillemotleft" format="1">
  <advance width="676"/>
  <unicode hex="00AB"/>
  <outline>
    <contour>
      <point x="316" y="443" type="curve"/>
      <point x="278" y="425"/>
      <point x="80" y="341"/>
      <point x="42" y="322" type="curve"/>
      <point x="42" y="243"/>
      <point x="42" y="321"/>
      <point x="42" y="242" type="curve"/>
      <point x="80" y="261"/>
      <point x="278" y="345"/>
      <point x="316" y="364" type="curve"/>
      <point x="316" y="442"/>
      <point x="316" y="364"/>
    </contour>
    <contour>
      <point x="316" y="203" type="curve"/>
      <point x="278" y="221"/>
      <point x="80" y="304"/>
      <point x="42" y="322" type="curve"/>
      <point x="42" y="243"/>
      <point x="42" y="321"/>
      <point x="42" y="242" type="curve"/>
      <point x="80" y="224"/>
      <point x="278" y="142"/>
      <point x="316" y="123" type="curve"/>
      <point x="316" y="202"/>
      <point x="316" y="124"/>
    </contour>
    <contour>
      <point x="609" y="443" type="curve"/>
      <point x="571" y="425"/>
      <point x="373" y="341"/>
      <point x="335" y="322" type="curve"/>
      <point x="335" y="243"/>
      <point x="335" y="321"/>
      <point x="335" y="242" type="curve"/>
      <point x="373" y="261"/>
      <point x="571" y="345"/>
      <point x="609" y="364" type="curve"/>
      <point x="609" y="442"/>
      <point x="609" y="364"/>
    </contour>
    <contour>
      <point x="609" y="203" type="curve"/>
      <point x="571" y="221"/>
      <point x="373" y="304"/>
      <point x="335" y="322" type="curve"/>
      <point x="335" y="243"/>
      <point x="335" y="321"/>
      <point x="335" y="242" type="curve"/>
      <point x="373" y="224"/>
      <point x="571" y="142"/>
      <point x="609" y="123" type="curve"/>
      <point x="609" y="202"/>
      <point x="609" y="124"/>
    </contour>
  </outline>
</glyph>
<glyph name="logicalnot" format="1">
  <advance width="760"/>
  <unicode hex="00AC"/>
  <outline>
    <contour>
      <point x="72" y="272" type="curve"/>
      <point x="685" y="272" type="line"/>
      <point x="685" y="351"/>
      <point x="685" y="272"/>
      <point x="685" y="351" type="curve"/>
      <point x="72" y="351" type="line"/>
      <point x="72" y="272"/>
      <point x="72" y="351"/>
    </contour>
    <contour>
      <point x="685" y="145" type="curve"/>
      <point x="685" y="351" type="line"/>
      <point x="590" y="351"/>
      <point x="690" y="351"/>
      <point x="595" y="351" type="curve"/>
      <point x="595" y="145" type="line"/>
      <point x="690" y="145"/>
      <point x="590" y="145"/>
    </contour>
  </outline>
</glyph>
<glyph name="registered" format="1">
  <advance width="943"/>
  <unicode hex="00AE"/>
  <outline>
    <contour>
      <point x="128" y="322" type="curve"/>
      <point x="128" y="506"/>
      <point x="280" y="591"/>
      <point x="476" y="591" type="curve"/>
      <point x="669" y="591"/>
      <point x="816" y="502"/>
      <point x="816" y="320" type="curve"/>
      <point x="816" y="143"/>
      <point x="673" y="55"/>
      <point x="485" y="55" type="curve"/>
      <point x="286" y="55"/>
      <point x="128" y="137"/>
      <point x="128" y="322" type="curve"/>
      <point x="94" y="322"/>
      <point x="89" y="322"/>
      <point x="55" y="322" type="curve"/>
      <point x="55" y="101"/>
      <point x="242" y="2"/>
      <point x="482" y="2" type="curve"/>
      <point x="713" y="2"/>
      <point x="889" y="107"/>
      <point x="889" y="323" type="curve"/>
      <point x="889" y="541"/>
      <point x="710" y="645"/>
      <point x="476" y="645" type="curve"/>
      <point x="239" y="645"/>
      <point x="55" y="543"/>
      <point x="55" y="322" type="curve"/>
      <point x="89" y="322"/>
      <point x="94" y="322"/>
    </contour>
    <contour>
      <point x="446" y="313" type="curve"/>
      <point x="470" y="283"/>
      <point x="545" y="175"/>
      <point x="569" y="144" type="curve"/>
      <point x="613" y="144"/>
      <point x="598" y="144"/>
      <point x="652" y="144" type="curve"/>
      <point x="628" y="176"/>
      <point x="555" y="279"/>
      <point x="532" y="311" type="curve"/>
      <point x="443" y="311"/>
      <point x="534" y="313"/>
    </contour>
    <contour>
      <point x="414" y="144" type="curve"/>
      <point x="414" y="259"/>
      <point x="414" y="387"/>
      <point x="414" y="501" type="curve"/>
      <point x="370" y="501"/>
      <point x="382" y="501"/>
      <point x="336" y="501" type="curve"/>
      <point x="336" y="387"/>
      <point x="336" y="258"/>
      <point x="336" y="144" type="curve"/>
      <point x="385" y="144"/>
      <point x="370" y="144"/>
    </contour>
    <contour>
      <point x="378" y="280" type="curve"/>
      <point x="403" y="280"/>
      <point x="429" y="280"/>
      <point x="454" y="280" type="curve"/>
      <point x="552" y="280"/>
      <point x="627" y="301"/>
      <point x="627" y="392" type="curve"/>
      <point x="627" y="471"/>
      <point x="559" y="501"/>
      <point x="472" y="501" type="curve"/>
      <point x="453" y="501"/>
      <point x="428" y="501"/>
      <point x="409" y="501" type="curve"/>
      <point x="336" y="444"/>
      <point x="415" y="501"/>
      <point x="336" y="442" type="curve"/>
      <point x="377" y="442"/>
      <point x="418" y="442"/>
      <point x="458" y="442" type="curve"/>
      <point x="508" y="442"/>
      <point x="550" y="432"/>
      <point x="550" y="388" type="curve"/>
      <point x="550" y="345"/>
      <point x="512" y="339"/>
      <point x="465" y="339" type="curve"/>
      <point x="436" y="339"/>
      <point x="407" y="339"/>
      <point x="378" y="339" type="curve"/>
      <point x="378" y="280"/>
      <point x="378" y="339"/>
    </contour>
  </outline>
</glyph>
<glyph name="macron" format="1">
  <advance width="395"/>
  <unicode hex="00AF"/>
  <outline>
    <contour>
      <point x="317" y="669" type="curve"/>
      <point x="221" y="669"/>
      <point x="127" y="669"/>
      <point x="32" y="669" type="curve"/>
      <point x="32" y="597"/>
      <point x="32" y="669"/>
      <point x="32" y="597" type="curve"/>
      <point x="127" y="597"/>
      <point x="221" y="597"/>
      <point x="317" y="597" type="curve"/>
      <point x="317" y="669"/>
      <point x="317" y="597"/>
    </contour>
    <contour>
      <point x="177" y="597" type="move" name="_top"/>
    </contour>
  </outline>
</glyph>
<glyph name="degree" format="1">
  <advance width="561"/>
  <unicode hex="00B0"/>
  <outline>
    <contour>
      <point x="511" y="467" type="curve"/>
      <point x="511" y="600"/>
      <point x="418" y="676"/>
      <point x="281" y="676" type="curve"/>
      <point x="144" y="676"/>
      <point x="51" y="601"/>
      <point x="51" y="469" type="curve"/>
      <point x="132" y="469"/>
      <point x="55" y="469"/>
      <point x="135" y="469" type="curve"/>
      <point x="135" y="553"/>
      <point x="190" y="607"/>
      <point x="279" y="607" type="curve"/>
      <point x="366" y="607"/>
      <point x="425" y="555"/>
      <point x="425" y="467" type="curve"/>
      <point x="425" y="377"/>
      <point x="370" y="321"/>
      <point x="281" y="321" type="curve"/>
      <point x="191" y="321"/>
      <point x="135" y="379"/>
      <point x="135" y="469" type="curve"/>
      <point x="55" y="469"/>
      <point x="132" y="469"/>
      <point x="51" y="469" type="curve"/>
      <point x="51" y="333"/>
      <point x="140" y="251"/>
      <point x="278" y="251" type="curve"/>
      <point x="418" y="251"/>
      <point x="511" y="331"/>
    </contour>
  </outline>
</glyph>
<glyph name="plusminus" format="1">
  <advance width="718"/>
  <unicode hex="00B1"/>
  <outline>
    <contour>
      <point x="57" y="20" type="line"/>
      <point x="661" y="20" type="line"/>
      <point x="661" y="99" type="line"/>
      <point x="57" y="99" type="line"/>
    </contour>
    <contour>
      <point x="57" y="272" type="curve"/>
      <point x="661" y="272" type="line"/>
      <point x="661" y="351"/>
      <point x="661" y="272"/>
      <point x="661" y="351" type="curve"/>
      <point x="57" y="351" type="line"/>
      <point x="57" y="272"/>
      <point x="57" y="351"/>
    </contour>
    <contour>
      <point x="404" y="20" type="curve"/>
      <point x="404" y="587" type="line"/>
      <point x="309" y="587"/>
      <point x="409" y="587"/>
      <point x="314" y="587" type="curve"/>
      <point x="314" y="20" type="line"/>
      <point x="409" y="20"/>
      <point x="309" y="20"/>
    </contour>
  </outline>
</glyph>
<glyph name="twosuperior" format="1">
  <advance width="550"/>
  <unicode hex="00B2"/>
  <outline>
    <contour>
      <point x="50" y="278" type="curve"/>
      <point x="224" y="278"/>
      <point x="359" y="278"/>
      <point x="493" y="278" type="curve"/>
      <point x="493" y="317"/>
      <point x="493" y="317"/>
      <point x="493" y="349" type="curve"/>
      <point x="349" y="349"/>
      <point x="194" y="349"/>
      <point x="50" y="349" type="curve"/>
      <point x="50" y="279"/>
      <point x="50" y="349"/>
    </contour>
    <contour>
      <point x="133" y="582" type="curve"/>
      <point x="171" y="624"/>
      <point x="209" y="643"/>
      <point x="264" y="643" type="curve"/>
      <point x="323" y="643"/>
      <point x="370" y="625"/>
      <point x="370" y="577" type="curve"/>
      <point x="370" y="530"/>
      <point x="331" y="512"/>
      <point x="292" y="486" type="curve"/>
      <point x="211" y="440"/>
      <point x="130" y="394"/>
      <point x="50" y="349" type="curve"/>
      <point x="55" y="281"/>
      <point x="52" y="349"/>
      <point x="57" y="281" type="curve"/>
      <point x="166" y="339"/>
      <point x="257" y="383"/>
      <point x="340" y="432" type="curve"/>
      <point x="406" y="475"/>
      <point x="463" y="505"/>
      <point x="463" y="579" type="curve"/>
      <point x="463" y="676"/>
      <point x="380" y="713"/>
      <point x="274" y="713" type="curve"/>
      <point x="185" y="713"/>
      <point x="117" y="688"/>
      <point x="70" y="624" type="curve"/>
      <point x="133" y="582"/>
      <point x="70" y="624"/>
    </contour>
    <contour>
      <point x="271" y="712" type="move" name="_top"/>
    </contour>
    <contour>
      <point x="271" y="278" type="move" name="_bottom"/>
    </contour>
  </outline>
</glyph>
<glyph name="threesuperior" format="1">
  <advance width="485"/>
  <unicode hex="00B3"/>
  <outline>
    <contour>
      <point x="95" y="603" type="curve"/>
      <point x="134" y="632"/>
      <point x="176" y="644"/>
      <point x="214" y="644" type="curve"/>
      <point x="274" y="644"/>
      <point x="322" y="634"/>
      <point x="322" y="586" type="curve"/>
      <point x="322" y="529"/>
      <point x="237" y="529"/>
      <point x="160" y="526" type="curve"/>
      <point x="160" y="467"/>
      <point x="160" y="526"/>
      <point x="160" y="467" type="curve"/>
      <point x="294" y="468"/>
      <point x="416" y="478"/>
      <point x="416" y="591" type="curve"/>
      <point x="416" y="686"/>
      <point x="330" y="712"/>
      <point x="224" y="712" type="curve"/>
      <point x="160" y="712"/>
      <point x="100" y="691"/>
      <point x="54" y="653" type="curve"/>
      <point x="95" y="603"/>
      <point x="54" y="653"/>
    </contour>
    <contour>
      <point x="49" y="309" type="curve"/>
      <point x="100" y="286"/>
      <point x="149" y="272"/>
      <point x="204" y="272" type="curve"/>
      <point x="332" y="269"/>
      <point x="438" y="293"/>
      <point x="435" y="403" type="curve"/>
      <point x="435" y="526"/>
      <point x="301" y="515"/>
      <point x="160" y="517" type="curve"/>
      <point x="160" y="465"/>
      <point x="160" y="517"/>
      <point x="160" y="465" type="curve"/>
      <point x="253" y="462"/>
      <point x="341" y="465"/>
      <point x="341" y="403" type="curve"/>
      <point x="341" y="347"/>
      <point x="283" y="336"/>
      <point x="213" y="338" type="curve"/>
      <point x="172" y="338"/>
      <point x="134" y="345"/>
      <point x="86" y="363" type="curve"/>
      <point x="49" y="309"/>
      <point x="86" y="363"/>
    </contour>
    <contour>
      <point x="237" y="712" type="move" name="_top"/>
    </contour>
    <contour>
      <point x="225" y="271" type="move" name="_bottom"/>
    </contour>
  </outline>
</glyph>
<glyph name="acute" format="1">
  <advance width="293"/>
  <unicode hex="00B4"/>
  <outline>
    <contour>
      <point x="79" y="589" type="line"/>
      <point x="265" y="755" type="line"/>
      <point x="137" y="755" type="line"/>
      <point x="-18" y="589" type="line"/>
    </contour>
    <contour>
      <point x="38" y="589" type="move" name="_top"/>
    </contour>
  </outline>
</glyph>
<glyph name="paragraph" format="1">
  <advance width="895"/>
  <unicode hex="00B6"/>
  <outline>
    <contour>
      <point x="541" y="650" type="curve"/>
      <point x="731" y="650"/>
      <point x="541" y="650"/>
      <point x="731" y="650" type="curve"/>
      <point x="731" y="722"/>
      <point x="731" y="650"/>
      <point x="731" y="722" type="curve"/>
      <point x="668" y="722"/>
      <point x="604" y="722"/>
      <point x="541" y="722" type="curve"/>
      <point x="541" y="650"/>
      <point x="541" y="722"/>
    </contour>
    <contour>
      <point x="524" y="370" type="curve"/>
      <point x="459" y="346"/>
      <point x="409" y="332"/>
      <point x="340" y="332" type="curve"/>
      <point x="224" y="332"/>
      <point x="132" y="377"/>
      <point x="132" y="482" type="curve"/>
      <point x="132" y="606"/>
      <point x="245" y="650"/>
      <point x="384" y="650" type="curve"/>
      <point x="435" y="650"/>
      <point x="487" y="650"/>
      <point x="537" y="650" type="curve"/>
      <point x="537" y="722"/>
      <point x="537" y="650"/>
      <point x="537" y="722" type="curve"/>
      <point x="482" y="722"/>
      <point x="426" y="722"/>
      <point x="371" y="722" type="curve"/>
      <point x="186" y="722"/>
      <point x="36" y="652"/>
      <point x="36" y="486" type="curve"/>
      <point x="36" y="328"/>
      <point x="174" y="263"/>
      <point x="348" y="260" type="curve"/>
      <point x="423" y="260"/>
      <point x="485" y="279"/>
      <point x="554" y="306" type="curve"/>
      <point x="524" y="370"/>
      <point x="554" y="306"/>
    </contour>
    <contour>
      <point x="590" y="0" type="curve"/>
      <point x="590" y="241"/>
      <point x="590" y="481"/>
      <point x="590" y="722" type="curve"/>
      <point x="495" y="722"/>
      <point x="590" y="722"/>
      <point x="495" y="722" type="curve"/>
      <point x="495" y="481"/>
      <point x="495" y="241"/>
      <point x="495" y="0" type="curve"/>
      <point x="590" y="0"/>
      <point x="495" y="0"/>
    </contour>
    <contour>
      <point x="817" y="0" type="curve"/>
      <point x="817" y="241"/>
      <point x="817" y="481"/>
      <point x="817" y="722" type="curve"/>
      <point x="721" y="722"/>
      <point x="817" y="722"/>
      <point x="721" y="722" type="curve"/>
      <point x="721" y="481"/>
      <point x="721" y="241"/>
      <point x="721" y="0" type="curve"/>
      <point x="817" y="0"/>
      <point x="721" y="0"/>
    </contour>
  </outline>
</glyph>
<glyph name="periodcentered" format="1">
  <advance width="235"/>
  <unicode hex="00B7"/>
  <outline>
    <contour>
      <point x="175" y="440" type="curve"/>
      <point x="175" y="473"/>
      <point x="150" y="489"/>
      <point x="116" y="489" type="curve"/>
      <point x="82" y="489"/>
      <point x="59" y="471"/>
      <point x="59" y="440" type="curve"/>
      <point x="165" y="440"/>
      <point x="69" y="440"/>
      <point x="175" y="440" type="curve"/>
      <point x="175" y="407"/>
      <point x="150" y="392"/>
      <point x="116" y="392" type="curve"/>
      <point x="82" y="392"/>
      <point x="59" y="408"/>
      <point x="59" y="440" type="curve"/>
      <point x="165" y="440"/>
      <point x="69" y="440"/>
    </contour>
  </outline>
</glyph>
<glyph name="cedilla" format="1">
  <advance width="363"/>
  <unicode hex="00B8"/>
  <outline>
    <contour>
      <point x="181" y="104" type="curve"/>
      <point x="163" y="81"/>
      <point x="112" y="12"/>
      <point x="94" y="-12" type="curve"/>
      <point x="159" y="-69"/>
      <point x="94" y="-12"/>
      <point x="159" y="-69" type="curve"/>
      <point x="179" y="-43"/>
      <point x="234" y="28"/>
      <point x="254" y="55" type="curve"/>
      <point x="181" y="104"/>
      <point x="254" y="55"/>
    </contour>
    <contour>
      <point x="159" y="-70" type="curve"/>
      <point x="171" y="-63"/>
      <point x="181" y="-61"/>
      <point x="195" y="-61" type="curve"/>
      <point x="218" y="-61"/>
      <point x="236" y="-70"/>
      <point x="236" y="-93" type="curve"/>
      <point x="236" y="-119"/>
      <point x="211" y="-126"/>
      <point x="180" y="-126" type="curve"/>
      <point x="150" y="-126"/>
      <point x="126" y="-121"/>
      <point x="92" y="-107" type="curve"/>
      <point x="65" y="-162"/>
      <point x="92" y="-107"/>
      <point x="65" y="-162" type="curve"/>
      <point x="103" y="-178"/>
      <point x="134" y="-187"/>
      <point x="176" y="-187" type="curve"/>
      <point x="259" y="-187"/>
      <point x="324" y="-164"/>
      <point x="324" y="-90" type="curve"/>
      <point x="324" y="-24"/>
      <point x="271" y="9"/>
      <point x="200" y="9" type="curve"/>
      <point x="160" y="9"/>
      <point x="132" y="1"/>
      <point x="95" y="-12" type="curve"/>
      <point x="159" y="-70"/>
      <point x="95" y="-12"/>
    </contour>
    <contour>
      <point x="239" y="55" type="move" name="_bottom"/>
    </contour>
  </outline>
</glyph>
<glyph name="onesuperior" format="1">
  <advance width="338"/>
  <unicode hex="00B9"/>
  <outline>
    <contour>
      <point x="60" y="544" type="line"/>
      <point x="264" y="700" type="line"/>
      <point x="170" y="705" type="line"/>
      <point x="19" y="596" type="line"/>
    </contour>
    <contour>
      <point x="264" y="279" type="curve"/>
      <point x="264" y="705" type="line"/>
      <point x="170" y="705" type="line"/>
      <point x="170" y="279" type="line"/>
      <point x="242" y="279"/>
      <point x="206" y="279"/>
    </contour>
    <contour>
      <point x="212" y="703" type="move" name="_top"/>
    </contour>
    <contour>
      <point x="219" y="279" type="move" name="_bottom"/>
    </contour>
  </outline>
</glyph>
<glyph name="ordmasculine" format="1">
  <advance width="512"/>
  <unicode hex="00BA"/>
  <outline>
    <contour>
      <point x="114" y="603" type="curve"/>
      <point x="114" y="683"/>
      <point x="169" y="728"/>
      <point x="254" y="728" type="curve"/>
      <point x="341" y="728"/>
      <point x="398" y="682"/>
      <point x="398" y="601" type="curve"/>
      <point x="398" y="518"/>
      <point x="343" y="472"/>
      <point x="260" y="472" type="curve"/>
      <point x="173" y="472"/>
      <point x="114" y="517"/>
      <point x="114" y="603" type="curve"/>
      <point x="56" y="603"/>
      <point x="103" y="603"/>
      <point x="45" y="603" type="curve"/>
      <point x="45" y="482"/>
      <point x="132" y="419"/>
      <point x="257" y="419" type="curve"/>
      <point x="381" y="419"/>
      <point x="467" y="481"/>
      <point x="467" y="601" type="curve"/>
      <point x="467" y="717"/>
      <point x="382" y="780"/>
      <point x="257" y="780" type="curve"/>
      <point x="131" y="780"/>
      <point x="45" y="718"/>
      <point x="45" y="603" type="curve"/>
      <point x="103" y="603"/>
      <point x="56" y="603"/>
    </contour>
  </outline>
</glyph>
<glyph name="guillemotright" format="1">
  <advance width="683"/>
  <unicode hex="00BB"/>
  <outline>
    <contour>
      <point x="365" y="443" type="curve"/>
      <point x="403" y="425"/>
      <point x="600" y="341"/>
      <point x="638" y="322" type="curve"/>
      <point x="638" y="243"/>
      <point x="638" y="321"/>
      <point x="638" y="242" type="curve"/>
      <point x="600" y="261"/>
      <point x="403" y="345"/>
      <point x="365" y="364" type="curve"/>
      <point x="365" y="442"/>
      <point x="365" y="364"/>
    </contour>
    <contour>
      <point x="365" y="203" type="curve"/>
      <point x="403" y="221"/>
      <point x="600" y="304"/>
      <point x="638" y="322" type="curve"/>
      <point x="638" y="243"/>
      <point x="638" y="321"/>
      <point x="638" y="242" type="curve"/>
      <point x="600" y="224"/>
      <point x="403" y="142"/>
      <point x="365" y="123" type="curve"/>
      <point x="365" y="202"/>
      <point x="365" y="124"/>
    </contour>
    <contour>
      <point x="72" y="443" type="curve"/>
      <point x="110" y="425"/>
      <point x="307" y="341"/>
      <point x="345" y="322" type="curve"/>
      <point x="345" y="243"/>
      <point x="345" y="321"/>
      <point x="345" y="242" type="curve"/>
      <point x="307" y="261"/>
      <point x="110" y="345"/>
      <point x="72" y="364" type="curve"/>
      <point x="72" y="442"/>
      <point x="72" y="364"/>
    </contour>
    <contour>
      <point x="72" y="203" type="curve"/>
      <point x="110" y="221"/>
      <point x="307" y="304"/>
      <point x="345" y="322" type="curve"/>
      <point x="345" y="243"/>
      <point x="345" y="321"/>
      <point x="345" y="242" type="curve"/>
      <point x="307" y="224"/>
      <point x="110" y="142"/>
      <point x="72" y="123" type="curve"/>
      <point x="72" y="202"/>
      <point x="72" y="124"/>
    </contour>
  </outline>
</glyph>
<glyph name="onequarter" format="1">
  <advance width="1181"/>
  <unicode hex="00BC"/>
  <outline>
    <contour>
      <point x="378" y="-60" type="line"/>
      <point x="916" y="728" type="line"/>
      <point x="827" y="728" type="line"/>
      <point x="288" y="-60" type="line"/>
    </contour>
    <contour>
      <point x="69" y="570" type="line"/>
      <point x="273" y="726" type="line"/>
      <point x="179" y="731" type="line"/>
      <point x="28" y="622" type="line"/>
    </contour>
    <contour>
      <point x="273" y="305" type="curve"/>
      <point x="273" y="731" type="line"/>
      <point x="179" y="731" type="line"/>
      <point x="179" y="305" type="line"/>
      <point x="251" y="305"/>
      <point x="214" y="305"/>
    </contour>
    <contour>
      <point x="1147" y="128" type="line"/>
      <point x="687" y="128" type="line"/>
      <point x="687" y="61" type="line"/>
      <point x="1147" y="61" type="line"/>
    </contour>
    <contour>
      <point x="711" y="69" type="line"/>
      <point x="1022" y="368" type="line"/>
      <point x="946" y="381" type="line"/>
      <point x="687" y="128" type="line"/>
    </contour>
    <contour>
      <point x="1040" y="-68" type="line"/>
      <point x="1040" y="381" type="line"/>
      <point x="946" y="381" type="line"/>
      <point x="946" y="-68" type="line"/>
    </contour>
  </outline>
</glyph>
<glyph name="onehalf" format="1">
  <advance width="1243"/>
  <unicode hex="00BD"/>
  <outline>
    <contour>
      <point x="381" y="-60" type="line"/>
      <point x="919" y="728" type="line"/>
      <point x="830" y="728" type="line"/>
      <point x="291" y="-60" type="line"/>
    </contour>
    <contour>
      <point x="69" y="570" type="line"/>
      <point x="273" y="726" type="line"/>
      <point x="179" y="731" type="line"/>
      <point x="28" y="622" type="line"/>
    </contour>
    <contour>
      <point x="273" y="305" type="curve"/>
      <point x="273" y="731" type="line"/>
      <point x="179" y="731" type="line"/>
      <point x="179" y="305" type="line"/>
      <point x="251" y="305"/>
      <point x="214" y="305"/>
    </contour>
    <contour>
      <point x="761" y="-65" type="curve"/>
      <point x="935" y="-65"/>
      <point x="1070" y="-65"/>
      <point x="1204" y="-65" type="curve"/>
      <point x="1204" y="-26"/>
      <point x="1204" y="-27"/>
      <point x="1204" y="5" type="curve"/>
      <point x="1060" y="5"/>
      <point x="905" y="5"/>
      <point x="761" y="5" type="curve"/>
      <point x="761" y="-65"/>
      <point x="761" y="5"/>
    </contour>
    <contour>
      <point x="844" y="239" type="curve"/>
      <point x="882" y="280"/>
      <point x="921" y="299"/>
      <point x="975" y="299" type="curve"/>
      <point x="1034" y="299"/>
      <point x="1081" y="281"/>
      <point x="1081" y="233" type="curve"/>
      <point x="1081" y="187"/>
      <point x="1042" y="169"/>
      <point x="1003" y="142" type="curve"/>
      <point x="922" y="96"/>
      <point x="841" y="51"/>
      <point x="761" y="5" type="curve"/>
      <point x="766" y="-63"/>
      <point x="763" y="5"/>
      <point x="768" y="-63" type="curve"/>
      <point x="877" y="-5"/>
      <point x="968" y="40"/>
      <point x="1052" y="88" type="curve"/>
      <point x="1117" y="132"/>
      <point x="1175" y="162"/>
      <point x="1175" y="236" type="curve"/>
      <point x="1175" y="332"/>
      <point x="1091" y="370"/>
      <point x="985" y="370" type="curve"/>
      <point x="896" y="370"/>
      <point x="828" y="345"/>
      <point x="781" y="280" type="curve"/>
      <point x="844" y="239"/>
      <point x="781" y="280"/>
    </contour>
  </outline>
</glyph>
<glyph name="threequarters" format="1">
  <advance width="1180"/>
  <unicode hex="00BE"/>
  <outline>
    <contour>
      <point x="389" y="-60" type="line"/>
      <point x="928" y="728" type="line"/>
      <point x="838" y="728" type="line"/>
      <point x="300" y="-60" type="line"/>
    </contour>
    <contour>
      <point x="87" y="620" type="curve"/>
      <point x="126" y="648"/>
      <point x="168" y="661"/>
      <point x="206" y="661" type="curve"/>
      <point x="266" y="661"/>
      <point x="314" y="651"/>
      <point x="314" y="603" type="curve"/>
      <point x="314" y="545"/>
      <point x="230" y="545"/>
      <point x="152" y="543" type="curve"/>
      <point x="152" y="484"/>
      <point x="152" y="543"/>
      <point x="152" y="484" type="curve"/>
      <point x="286" y="485"/>
      <point x="408" y="495"/>
      <point x="408" y="608" type="curve"/>
      <point x="408" y="702"/>
      <point x="322" y="728"/>
      <point x="216" y="728" type="curve"/>
      <point x="152" y="728"/>
      <point x="92" y="708"/>
      <point x="46" y="670" type="curve"/>
      <point x="87" y="620"/>
      <point x="46" y="670"/>
    </contour>
    <contour>
      <point x="41" y="326" type="curve"/>
      <point x="92" y="303"/>
      <point x="141" y="289"/>
      <point x="196" y="289" type="curve"/>
      <point x="325" y="286"/>
      <point x="431" y="310"/>
      <point x="427" y="420" type="curve"/>
      <point x="427" y="542"/>
      <point x="293" y="532"/>
      <point x="152" y="534" type="curve"/>
      <point x="152" y="482"/>
      <point x="152" y="534"/>
      <point x="152" y="482" type="curve"/>
      <point x="245" y="479"/>
      <point x="333" y="482"/>
      <point x="333" y="420" type="curve"/>
      <point x="333" y="363"/>
      <point x="275" y="353"/>
      <point x="205" y="355" type="curve"/>
      <point x="164" y="355"/>
      <point x="126" y="362"/>
      <point x="79" y="380" type="curve"/>
      <point x="41" y="326"/>
      <point x="79" y="380"/>
    </contour>
    <contour>
      <point x="1149" y="128" type="line"/>
      <point x="690" y="128" type="line"/>
      <point x="690" y="61" type="line"/>
      <point x="1149" y="61" type="line"/>
    </contour>
    <contour>
      <point x="713" y="69" type="line"/>
      <point x="1024" y="368" type="line"/>
      <point x="949" y="381" type="line"/>
      <point x="690" y="128" type="line"/>
    </contour>
    <contour>
      <point x="1043" y="-68" type="line"/>
      <point x="1043" y="381" type="line"/>
      <point x="949" y="381" type="line"/>
      <point x="949" y="-68" type="line"/>
    </contour>
  </outline>
</glyph>
<glyph name="questiondown" format="1">
  <advance width="594"/>
  <unicode hex="00BF"/>
  <outline>
    <contour>
      <point x="381" y="345" type="curve"/>
      <point x="381" y="382"/>
      <point x="381" y="447"/>
      <point x="381" y="484" type="curve"/>
      <point x="286" y="484"/>
      <point x="381" y="484"/>
      <point x="286" y="484" type="curve"/>
      <point x="286" y="447"/>
      <point x="286" y="382"/>
      <point x="286" y="345" type="curve"/>
      <point x="381" y="345"/>
      <point x="286" y="345"/>
    </contour>
    <contour>
      <point x="498" y="113" type="line"/>
      <point x="457" y="77"/>
      <point x="394" y="45"/>
      <point x="322" y="45" type="curve"/>
      <point x="218" y="45"/>
      <point x="135" y="88"/>
      <point x="135" y="187" type="curve"/>
      <point x="135" y="296"/>
      <point x="238" y="345"/>
      <point x="371" y="345" type="curve"/>
      <point x="371" y="372"/>
      <point x="371" y="391"/>
      <point x="371" y="418" type="curve"/>
      <point x="186" y="418"/>
      <point x="44" y="343"/>
      <point x="44" y="187" type="curve"/>
      <point x="44" y="42"/>
      <point x="163" y="-29"/>
      <point x="317" y="-29" type="curve"/>
      <point x="410" y="-29"/>
      <point x="485" y="2"/>
      <point x="547" y="57" type="curve"/>
    </contour>
    <contour>
      <point x="276" y="689" type="curve"/>
      <point x="276" y="657"/>
      <point x="300" y="642"/>
      <point x="333" y="642" type="curve"/>
      <point x="366" y="642"/>
      <point x="388" y="659"/>
      <point x="388" y="689" type="curve"/>
      <point x="276" y="689"/>
      <point x="388" y="689"/>
      <point x="276" y="689" type="curve"/>
      <point x="276" y="721"/>
      <point x="300" y="735"/>
      <point x="333" y="735" type="curve"/>
      <point x="366" y="735"/>
      <point x="388" y="719"/>
      <point x="388" y="689" type="curve"/>
      <point x="276" y="689"/>
      <point x="388" y="689"/>
    </contour>
  </outline>
</glyph>
<glyph name="Atilde" format="1">
  <advance width="839"/>
  <unicode hex="00C3"/>
  <outline>
    <contour>
      <point x="633" y="297" type="curve"/>
      <point x="494" y="297"/>
      <point x="354" y="297"/>
      <point x="215" y="297" type="curve"/>
      <point x="175" y="221"/>
      <point x="215" y="297"/>
      <point x="175" y="221" type="curve"/>
      <point x="338" y="221"/>
      <point x="501" y="221"/>
      <point x="664" y="221" type="curve"/>
      <point x="633" y="297"/>
      <point x="664" y="221"/>
    </contour>
    <contour>
      <point x="823" y="0" type="curve"/>
      <point x="709" y="241"/>
      <point x="591" y="481"/>
      <point x="477" y="722" type="curve"/>
      <point x="389" y="722"/>
      <point x="477" y="722"/>
      <point x="389" y="722" type="curve"/>
      <point x="502" y="482"/>
      <point x="610" y="240"/>
      <point x="722" y="0" type="curve"/>
      <point x="823" y="0"/>
      <point x="722" y="0"/>
    </contour>
    <contour>
      <point x="104" y="0" type="curve"/>
      <point x="229" y="240"/>
      <point x="349" y="482"/>
      <point x="475" y="722" type="curve"/>
      <point x="388" y="722"/>
      <point x="475" y="722"/>
      <point x="388" y="722" type="curve"/>
      <point x="260" y="480"/>
      <point x="127" y="242"/>
      <point x="0" y="0" type="curve"/>
      <point x="104" y="0"/>
      <point x="0" y="0"/>
    </contour>
    <contour>
      <point x="621" y="955" type="curve"/>
      <point x="607" y="909"/>
      <point x="585" y="870"/>
      <point x="544" y="870" type="curve"/>
      <point x="503" y="870"/>
      <point x="477" y="883"/>
      <point x="445" y="909" type="curve"/>
      <point x="404" y="943"/>
      <point x="372" y="960"/>
      <point x="319" y="960" type="curve"/>
      <point x="239" y="960"/>
      <point x="192" y="912"/>
      <point x="164" y="830" type="curve"/>
      <point x="235" y="797"/>
      <point x="165" y="830"/>
      <point x="236" y="797" type="curve"/>
      <point x="253" y="850"/>
      <point x="279" y="883"/>
      <point x="322" y="883" type="curve"/>
      <point x="361" y="883"/>
      <point x="382" y="867"/>
      <point x="411" y="844" type="curve"/>
      <point x="456" y="808"/>
      <point x="490" y="793"/>
      <point x="546" y="793" type="curve"/>
      <point x="627" y="793"/>
      <point x="669" y="845"/>
      <point x="697" y="924" type="curve"/>
      <point x="622" y="954"/>
      <point x="696" y="923"/>
    </contour>
  </outline>
</glyph>
<glyph name="Adieresis" format="1">
  <advance width="839"/>
  <unicode hex="00C4"/>
  <outline>
    <contour>
      <point x="633" y="297" type="curve"/>
      <point x="494" y="297"/>
      <point x="354" y="297"/>
      <point x="215" y="297" type="curve"/>
      <point x="175" y="221"/>
      <point x="215" y="297"/>
      <point x="175" y="221" type="curve"/>
      <point x="338" y="221"/>
      <point x="501" y="221"/>
      <point x="664" y="221" type="curve"/>
      <point x="633" y="297"/>
      <point x="664" y="221"/>
    </contour>
    <contour>
      <point x="823" y="0" type="curve"/>
      <point x="709" y="241"/>
      <point x="591" y="481"/>
      <point x="477" y="722" type="curve"/>
      <point x="389" y="722"/>
      <point x="477" y="722"/>
      <point x="389" y="722" type="curve"/>
      <point x="502" y="482"/>
      <point x="610" y="240"/>
      <point x="722" y="0" type="curve"/>
      <point x="823" y="0"/>
      <point x="722" y="0"/>
    </contour>
    <contour>
      <point x="104" y="0" type="curve"/>
      <point x="229" y="240"/>
      <point x="349" y="482"/>
      <point x="475" y="722" type="curve"/>
      <point x="388" y="722"/>
      <point x="475" y="722"/>
      <point x="388" y="722" type="curve"/>
      <point x="260" y="480"/>
      <point x="127" y="242"/>
      <point x="0" y="0" type="curve"/>
      <point x="104" y="0"/>
      <point x="0" y="0"/>
    </contour>
    <contour>
      <point x="390" y="847" type="curve"/>
      <point x="390" y="880"/>
      <point x="365" y="896"/>
      <point x="331" y="896" type="curve"/>
      <point x="297" y="896"/>
      <point x="274" y="878"/>
      <point x="274" y="847" type="curve"/>
      <point x="380" y="847"/>
      <point x="284" y="847"/>
      <point x="390" y="847" type="curve"/>
      <point x="390" y="814"/>
      <point x="365" y="799"/>
      <point x="331" y="799" type="curve"/>
      <point x="297" y="799"/>
      <point x="274" y="816"/>
      <point x="274" y="847" type="curve"/>
      <point x="380" y="847"/>
      <point x="284" y="847"/>
    </contour>
    <contour>
      <point x="589" y="847" type="curve"/>
      <point x="589" y="880"/>
      <point x="564" y="896"/>
      <point x="529" y="896" type="curve"/>
      <point x="495" y="896"/>
      <point x="473" y="878"/>
      <point x="473" y="847" type="curve"/>
      <point x="578" y="847"/>
      <point x="483" y="847"/>
      <point x="589" y="847" type="curve"/>
      <point x="589" y="814"/>
      <point x="564" y="799"/>
      <point x="529" y="799" type="curve"/>
      <point x="495" y="799"/>
      <point x="473" y="816"/>
      <point x="473" y="847" type="curve"/>
      <point x="578" y="847"/>
      <point x="483" y="847"/>
    </contour>
  </outline>
</glyph>
<glyph name="Aring" format="1">
  <advance width="839"/>
  <unicode hex="00C5"/>
  <outline>
    <contour>
      <point x="633" y="297" type="curve"/>
      <point x="494" y="297"/>
      <point x="354" y="297"/>
      <point x="215" y="297" type="curve"/>
      <point x="175" y="221"/>
      <point x="215" y="297"/>
      <point x="175" y="221" type="curve"/>
      <point x="338" y="221"/>
      <point x="501" y="221"/>
      <point x="664" y="221" type="curve"/>
      <point x="633" y="297"/>
      <point x="664" y="221"/>
    </contour>
    <contour>
      <point x="823" y="0" type="curve"/>
      <point x="709" y="241"/>
      <point x="591" y="481"/>
      <point x="477" y="722" type="curve"/>
      <point x="389" y="722"/>
      <point x="477" y="722"/>
      <point x="389" y="722" type="curve"/>
      <point x="502" y="482"/>
      <point x="610" y="240"/>
      <point x="722" y="0" type="curve"/>
      <point x="823" y="0"/>
      <point x="722" y="0"/>
    </contour>
    <contour>
      <point x="104" y="0" type="curve"/>
      <point x="229" y="240"/>
      <point x="349" y="482"/>
      <point x="475" y="722" type="curve"/>
      <point x="388" y="722"/>
      <point x="475" y="722"/>
      <point x="388" y="722" type="curve"/>
      <point x="260" y="480"/>
      <point x="127" y="242"/>
      <point x="0" y="0" type="curve"/>
      <point x="104" y="0"/>
      <point x="0" y="0"/>
    </contour>
    <contour>
      <point x="258" y="933" type="curve"/>
      <point x="258" y="841"/>
      <point x="333" y="799"/>
      <point x="432" y="799" type="curve"/>
      <point x="534" y="799"/>
      <point x="610" y="840"/>
      <point x="610" y="933" type="curve"/>
      <point x="610" y="1026"/>
      <point x="533" y="1067"/>
      <point x="429" y="1067" type="curve"/>
      <point x="331" y="1067"/>
      <point x="258" y="1024"/>
      <point x="258" y="933" type="curve"/>
      <point x="339" y="933"/>
      <point x="257" y="933"/>
      <point x="338" y="933" type="curve"/>
      <point x="338" y="983"/>
      <point x="377" y="1005"/>
      <point x="429" y="1005" type="curve"/>
      <point x="486" y="1005"/>
      <point x="529" y="987"/>
      <point x="529" y="933" type="curve"/>
      <point x="529" y="881"/>
      <point x="487" y="860"/>
      <point x="432" y="860" type="curve"/>
      <point x="379" y="860"/>
      <point x="338" y="881"/>
      <point x="338" y="933" type="curve"/>
      <point x="257" y="933"/>
      <point x="339" y="933"/>
    </contour>
  </outline>
</glyph>
<glyph name="AE" format="1">
  <advance width="1128"/>
  <unicode hex="00C6"/>
  <outline>
    <contour>
      <point x="528" y="270" type="curve"/>
      <point x="389" y="270"/>
      <point x="348" y="270"/>
      <point x="209" y="270" type="curve"/>
      <point x="170" y="194"/>
      <point x="209" y="270"/>
      <point x="170" y="194" type="curve"/>
      <point x="332" y="194"/>
      <point x="396" y="194"/>
      <point x="559" y="194" type="curve"/>
      <point x="528" y="270"/>
      <point x="559" y="194"/>
    </contour>
    <contour>
      <point x="97" y="0" type="curve"/>
      <point x="601" y="722" type="line"/>
      <point x="514" y="722"/>
      <point x="599" y="722"/>
      <point x="512" y="722" type="curve"/>
      <point x="-9" y="0" type="line"/>
      <point x="95" y="0"/>
      <point x="-8" y="0"/>
    </contour>
    <contour>
      <point x="567" y="337" type="curve"/>
      <point x="705" y="337"/>
      <point x="843" y="337"/>
      <point x="981" y="337" type="curve"/>
      <point x="981" y="409"/>
      <point x="981" y="337"/>
      <point x="981" y="409" type="curve"/>
      <point x="843" y="409"/>
      <point x="705" y="409"/>
      <point x="567" y="409" type="curve"/>
      <point x="567" y="337"/>
      <point x="567" y="409"/>
    </contour>
    <contour>
      <point x="548" y="650" type="curve"/>
      <point x="719" y="650"/>
      <point x="890" y="650"/>
      <point x="1061" y="650" type="curve"/>
      <point x="1061" y="722"/>
      <point x="1061" y="650"/>
      <point x="1061" y="722" type="curve"/>
      <point x="890" y="722"/>
      <point x="719" y="722"/>
      <point x="548" y="722" type="curve"/>
      <point x="548" y="650"/>
      <point x="548" y="722"/>
    </contour>
    <contour>
      <point x="608" y="0" type="curve"/>
      <point x="608" y="722" type="line"/>
      <point x="512" y="722"/>
      <point x="608" y="722"/>
      <point x="512" y="722" type="curve"/>
      <point x="512" y="481"/>
      <point x="512" y="241"/>
      <point x="512" y="0" type="curve"/>
      <point x="608" y="0"/>
      <point x="512" y="0"/>
    </contour>
    <contour>
      <point x="548" y="0" type="curve"/>
      <point x="733" y="0"/>
      <point x="918" y="0"/>
      <point x="1104" y="0" type="curve"/>
      <point x="1104" y="72"/>
      <point x="1104" y="0"/>
      <point x="1104" y="72" type="curve"/>
      <point x="918" y="72"/>
      <point x="733" y="72"/>
      <point x="548" y="72" type="curve"/>
      <point x="548" y="0"/>
      <point x="548" y="72"/>
    </contour>
  </outline>
</glyph>
<glyph name="Ccedilla" format="1">
  <advance width="827"/>
  <unicode hex="00C7"/>
  <outline>
    <contour>
      <point x="796" y="654" type="curve"/>
      <point x="703" y="696"/>
      <point x="604" y="727"/>
      <point x="494" y="727" type="curve"/>
      <point x="231" y="727"/>
      <point x="53" y="598"/>
      <point x="53" y="344" type="curve"/>
      <point x="53" y="110"/>
      <point x="219" y="-5"/>
      <point x="465" y="-5" type="curve"/>
      <point x="608" y="-5"/>
      <point x="699" y="24"/>
      <point x="807" y="92" type="curve"/>
      <point x="768" y="153"/>
      <point x="807" y="92"/>
      <point x="767" y="153" type="curve"/>
      <point x="665" y="93"/>
      <point x="584" y="72"/>
      <point x="468" y="72" type="curve"/>
      <point x="276" y="72"/>
      <point x="149" y="164"/>
      <point x="149" y="348" type="curve"/>
      <point x="149" y="546"/>
      <point x="284" y="652"/>
      <point x="490" y="652" type="curve"/>
      <point x="582" y="652"/>
      <point x="666" y="633"/>
      <point x="756" y="593" type="curve"/>
      <point x="796" y="654"/>
      <point x="756" y="593"/>
    </contour>
    <contour>
      <point x="426" y="53" type="curve"/>
      <point x="409" y="29"/>
      <point x="357" y="-40"/>
      <point x="340" y="-63" type="curve"/>
      <point x="405" y="-121"/>
      <point x="340" y="-63"/>
      <point x="405" y="-121" type="curve"/>
      <point x="425" y="-94"/>
      <point x="480" y="-24"/>
      <point x="500" y="3" type="curve"/>
      <point x="426" y="53"/>
      <point x="500" y="3"/>
    </contour>
    <contour>
      <point x="405" y="-121" type="curve"/>
      <point x="417" y="-115"/>
      <point x="427" y="-113"/>
      <point x="441" y="-113" type="curve"/>
      <point x="464" y="-113"/>
      <point x="482" y="-122"/>
      <point x="482" y="-144" type="curve"/>
      <point x="482" y="-171"/>
      <point x="456" y="-178"/>
      <point x="426" y="-178" type="curve"/>
      <point x="396" y="-178"/>
      <point x="372" y="-172"/>
      <point x="338" y="-158" type="curve"/>
      <point x="310" y="-214"/>
      <point x="338" y="-158"/>
      <point x="310" y="-214" type="curve"/>
      <point x="349" y="-230"/>
      <point x="380" y="-238"/>
      <point x="422" y="-238" type="curve"/>
      <point x="504" y="-238"/>
      <point x="570" y="-215"/>
      <point x="570" y="-142" type="curve"/>
      <point x="570" y="-75"/>
      <point x="517" y="-43"/>
      <point x="446" y="-43" type="curve"/>
      <point x="406" y="-43"/>
      <point x="378" y="-50"/>
      <point x="340" y="-64" type="curve"/>
      <point x="405" y="-121"/>
      <point x="340" y="-64"/>
    </contour>
  </outline>
</glyph>
<glyph name="Egrave" format="1">
  <advance width="711"/>
  <unicode hex="00C8"/>
  <outline>
    <contour>
      <point x="150" y="337" type="curve"/>
      <point x="288" y="337"/>
      <point x="427" y="337"/>
      <point x="565" y="337" type="curve"/>
      <point x="565" y="409"/>
      <point x="565" y="337"/>
      <point x="565" y="409" type="curve"/>
      <point x="427" y="409"/>
      <point x="288" y="409"/>
      <point x="150" y="409" type="curve"/>
      <point x="150" y="337"/>
      <point x="150" y="409"/>
    </contour>
    <contour>
      <point x="131" y="650" type="curve"/>
      <point x="302" y="650"/>
      <point x="473" y="650"/>
      <point x="645" y="650" type="curve"/>
      <point x="645" y="722"/>
      <point x="645" y="650"/>
      <point x="645" y="722" type="curve"/>
      <point x="473" y="722"/>
      <point x="302" y="722"/>
      <point x="131" y="722" type="curve"/>
      <point x="131" y="650"/>
      <point x="131" y="722"/>
    </contour>
    <contour>
      <point x="191" y="0" type="curve"/>
      <point x="191" y="722" type="line"/>
      <point x="95" y="722"/>
      <point x="191" y="722"/>
      <point x="95" y="722" type="curve"/>
      <point x="95" y="481"/>
      <point x="95" y="241"/>
      <point x="95" y="0" type="curve"/>
      <point x="191" y="0"/>
      <point x="95" y="0"/>
    </contour>
    <contour>
      <point x="131" y="0" type="curve"/>
      <point x="316" y="0"/>
      <point x="501" y="0"/>
      <point x="687" y="0" type="curve"/>
      <point x="687" y="72"/>
      <point x="687" y="0"/>
      <point x="687" y="72" type="curve"/>
      <point x="501" y="72"/>
      <point x="316" y="72"/>
      <point x="131" y="72" type="curve"/>
      <point x="131" y="0"/>
      <point x="131" y="72"/>
    </contour>
    <contour>
      <point x="397" y="801" type="line"/>
      <point x="239" y="967" type="line"/>
      <point x="112" y="967" type="line"/>
      <point x="298" y="801" type="line"/>
    </contour>
  </outline>
</glyph>
<glyph name="Ecircumflex" format="1">
  <advance width="688"/>
  <unicode hex="00CA"/>
  <outline>
    <contour>
      <point x="135" y="337" type="curve"/>
      <point x="273" y="337"/>
      <point x="412" y="337"/>
      <point x="550" y="337" type="curve"/>
      <point x="550" y="409"/>
      <point x="550" y="337"/>
      <point x="550" y="409" type="curve"/>
      <point x="412" y="409"/>
      <point x="273" y="409"/>
      <point x="135" y="409" type="curve"/>
      <point x="135" y="337"/>
      <point x="135" y="409"/>
    </contour>
    <contour>
      <point x="116" y="650" type="curve"/>
      <point x="287" y="650"/>
      <point x="458" y="650"/>
      <point x="629" y="650" type="curve"/>
      <point x="629" y="722"/>
      <point x="629" y="650"/>
      <point x="629" y="722" type="curve"/>
      <point x="458" y="722"/>
      <point x="287" y="722"/>
      <point x="116" y="722" type="curve"/>
      <point x="116" y="650"/>
      <point x="116" y="722"/>
    </contour>
    <contour>
      <point x="176" y="0" type="curve"/>
      <point x="176" y="722" type="line"/>
      <point x="80" y="722"/>
      <point x="176" y="722"/>
      <point x="80" y="722" type="curve"/>
      <point x="80" y="481"/>
      <point x="80" y="241"/>
      <point x="80" y="0" type="curve"/>
      <point x="176" y="0"/>
      <point x="80" y="0"/>
    </contour>
    <contour>
      <point x="116" y="0" type="curve"/>
      <point x="301" y="0"/>
      <point x="486" y="0"/>
      <point x="672" y="0" type="curve"/>
      <point x="672" y="72"/>
      <point x="672" y="0"/>
      <point x="672" y="72" type="curve"/>
      <point x="486" y="72"/>
      <point x="301" y="72"/>
      <point x="116" y="72" type="curve"/>
      <point x="116" y="0"/>
      <point x="116" y="72"/>
    </contour>
    <contour>
      <point x="187" y="802" type="line"/>
      <point x="373" y="968" type="line"/>
      <point x="245" y="968" type="line"/>
      <point x="90" y="802" type="line"/>
    </contour>
    <contour>
      <point x="562" y="802" type="line"/>
      <point x="404" y="968" type="line"/>
      <point x="276" y="968" type="line"/>
      <point x="463" y="802" type="line"/>
    </contour>
  </outline>
</glyph>
<glyph name="Edieresis" format="1">
  <advance width="708"/>
  <unicode hex="00CB"/>
  <outline>
    <contour>
      <point x="148" y="337" type="curve"/>
      <point x="286" y="337"/>
      <point x="424" y="337"/>
      <point x="562" y="337" type="curve"/>
      <point x="562" y="409"/>
      <point x="562" y="337"/>
      <point x="562" y="409" type="curve"/>
      <point x="424" y="409"/>
      <point x="286" y="409"/>
      <point x="148" y="409" type="curve"/>
      <point x="148" y="337"/>
      <point x="148" y="409"/>
    </contour>
    <contour>
      <point x="128" y="650" type="curve"/>
      <point x="300" y="650"/>
      <point x="471" y="650"/>
      <point x="642" y="650" type="curve"/>
      <point x="642" y="722"/>
      <point x="642" y="650"/>
      <point x="642" y="722" type="curve"/>
      <point x="471" y="722"/>
      <point x="300" y="722"/>
      <point x="128" y="722" type="curve"/>
      <point x="128" y="650"/>
      <point x="128" y="722"/>
    </contour>
    <contour>
      <point x="189" y="0" type="curve"/>
      <point x="189" y="722" type="line"/>
      <point x="93" y="722"/>
      <point x="189" y="722"/>
      <point x="93" y="722" type="curve"/>
      <point x="93" y="481"/>
      <point x="93" y="241"/>
      <point x="93" y="0" type="curve"/>
      <point x="189" y="0"/>
      <point x="93" y="0"/>
    </contour>
    <contour>
      <point x="128" y="0" type="curve"/>
      <point x="314" y="0"/>
      <point x="499" y="0"/>
      <point x="684" y="0" type="curve"/>
      <point x="684" y="72"/>
      <point x="684" y="0"/>
      <point x="684" y="72" type="curve"/>
      <point x="499" y="72"/>
      <point x="314" y="72"/>
      <point x="128" y="72" type="curve"/>
      <point x="128" y="0"/>
      <point x="128" y="72"/>
    </contour>
    <contour>
      <point x="297" y="847" type="curve"/>
      <point x="297" y="880"/>
      <point x="272" y="896"/>
      <point x="238" y="896" type="curve"/>
      <point x="204" y="896"/>
      <point x="181" y="878"/>
      <point x="181" y="847" type="curve"/>
      <point x="287" y="847"/>
      <point x="191" y="847"/>
      <point x="297" y="847" type="curve"/>
      <point x="297" y="814"/>
      <point x="272" y="799"/>
      <point x="237" y="799" type="curve"/>
      <point x="203" y="799"/>
      <point x="181" y="816"/>
      <point x="181" y="847" type="curve"/>
      <point x="287" y="847"/>
      <point x="191" y="847"/>
    </contour>
    <contour>
      <point x="495" y="847" type="curve"/>
      <point x="495" y="880"/>
      <point x="470" y="896"/>
      <point x="436" y="896" type="curve"/>
      <point x="402" y="896"/>
      <point x="379" y="878"/>
      <point x="379" y="847" type="curve"/>
      <point x="485" y="847"/>
      <point x="389" y="847"/>
      <point x="495" y="847" type="curve"/>
      <point x="495" y="814"/>
      <point x="470" y="799"/>
      <point x="435" y="799" type="curve"/>
      <point x="402" y="799"/>
      <point x="379" y="816"/>
      <point x="379" y="847" type="curve"/>
      <point x="485" y="847"/>
      <point x="389" y="847"/>
    </contour>
  </outline>
</glyph>
<glyph name="Igrave" format="1">
  <advance width="308"/>
  <unicode hex="00CC"/>
  <outline>
    <contour>
      <point x="205" y="0" type="curve"/>
      <point x="205" y="241"/>
      <point x="205" y="481"/>
      <point x="205" y="722" type="curve"/>
      <point x="109" y="722"/>
      <point x="205" y="722"/>
      <point x="109" y="722" type="curve"/>
      <point x="109" y="481"/>
      <point x="109" y="241"/>
      <point x="109" y="0" type="curve"/>
      <point x="205" y="0"/>
      <point x="109" y="0"/>
    </contour>
    <contour>
      <point x="214" y="801" type="line"/>
      <point x="56" y="967" type="line"/>
      <point x="-71" y="967" type="line"/>
      <point x="115" y="801" type="line"/>
    </contour>
  </outline>
</glyph>
<glyph name="Iacute" format="1">
  <advance width="307"/>
  <unicode hex="00CD"/>
  <outline>
    <contour>
      <point x="198" y="0" type="curve"/>
      <point x="198" y="241"/>
      <point x="198" y="481"/>
      <point x="198" y="722" type="curve"/>
      <point x="102" y="722"/>
      <point x="198" y="722"/>
      <point x="102" y="722" type="curve"/>
      <point x="102" y="481"/>
      <point x="102" y="241"/>
      <point x="102" y="0" type="curve"/>
      <point x="198" y="0"/>
      <point x="102" y="0"/>
    </contour>
    <contour>
      <point x="191" y="801" type="line"/>
      <point x="378" y="967" type="line"/>
      <point x="250" y="967" type="line"/>
      <point x="94" y="801" type="line"/>
    </contour>
  </outline>
</glyph>
<glyph name="Icircumflex" format="1">
  <advance width="323"/>
  <unicode hex="00CE"/>
  <outline>
    <contour>
      <point x="215" y="0" type="curve"/>
      <point x="215" y="241"/>
      <point x="215" y="481"/>
      <point x="215" y="722" type="curve"/>
      <point x="119" y="722"/>
      <point x="215" y="722"/>
      <point x="119" y="722" type="curve"/>
      <point x="119" y="481"/>
      <point x="119" y="241"/>
      <point x="119" y="0" type="curve"/>
      <point x="215" y="0"/>
      <point x="119" y="0"/>
    </contour>
    <contour>
      <point x="29" y="802" type="line"/>
      <point x="215" y="968" type="line"/>
      <point x="88" y="968" type="line"/>
      <point x="-68" y="802" type="line"/>
    </contour>
    <contour>
      <point x="404" y="802" type="line"/>
      <point x="246" y="968" type="line"/>
      <point x="119" y="968" type="line"/>
      <point x="305" y="802" type="line"/>
    </contour>
  </outline>
</glyph>
<glyph name="Idieresis" format="1">
  <advance width="310"/>
  <unicode hex="00CF"/>
  <outline>
    <contour>
      <point x="205" y="0" type="curve"/>
      <point x="205" y="241"/>
      <point x="205" y="481"/>
      <point x="205" y="722" type="curve"/>
      <point x="109" y="722"/>
      <point x="205" y="722"/>
      <point x="109" y="722" type="curve"/>
      <point x="109" y="481"/>
      <point x="109" y="241"/>
      <point x="109" y="0" type="curve"/>
      <point x="205" y="0"/>
      <point x="109" y="0"/>
    </contour>
    <contour>
      <point x="117" y="847" type="curve"/>
      <point x="117" y="880"/>
      <point x="92" y="896"/>
      <point x="58" y="896" type="curve"/>
      <point x="24" y="896"/>
      <point x="1" y="878"/>
      <point x="1" y="847" type="curve"/>
      <point x="107" y="847"/>
      <point x="11" y="847"/>
      <point x="117" y="847" type="curve"/>
      <point x="117" y="814"/>
      <point x="92" y="799"/>
      <point x="57" y="799" type="curve"/>
      <point x="23" y="799"/>
      <point x="1" y="816"/>
      <point x="1" y="847" type="curve"/>
      <point x="107" y="847"/>
      <point x="11" y="847"/>
    </contour>
    <contour>
      <point x="315" y="847" type="curve"/>
      <point x="315" y="880"/>
      <point x="290" y="896"/>
      <point x="256" y="896" type="curve"/>
      <point x="222" y="896"/>
      <point x="199" y="878"/>
      <point x="199" y="847" type="curve"/>
      <point x="305" y="847"/>
      <point x="209" y="847"/>
      <point x="315" y="847" type="curve"/>
      <point x="315" y="814"/>
      <point x="290" y="799"/>
      <point x="255" y="799" type="curve"/>
      <point x="222" y="799"/>
      <point x="199" y="816"/>
      <point x="199" y="847" type="curve"/>
      <point x="305" y="847"/>
      <point x="209" y="847"/>
    </contour>
  </outline>
</glyph>
<glyph name="Eth" format="1">
  <advance width="900"/>
  <unicode hex="00D0"/>
  <outline>
    <contour>
      <point x="112" y="722" type="curve"/>
      <point x="112" y="481"/>
      <point x="112" y="241"/>
      <point x="112" y="0" type="curve"/>
      <point x="208" y="0"/>
      <point x="112" y="0"/>
      <point x="208" y="0" type="curve"/>
      <point x="208" y="241"/>
      <point x="208" y="481"/>
      <point x="208" y="722" type="curve"/>
      <point x="112" y="722"/>
      <point x="208" y="722"/>
    </contour>
    <contour>
      <point x="163" y="0" type="curve"/>
      <point x="245" y="0"/>
      <point x="328" y="0"/>
      <point x="411" y="0" type="curve"/>
      <point x="678" y="0"/>
      <point x="846" y="103"/>
      <point x="846" y="352" type="curve"/>
      <point x="846" y="612"/>
      <point x="675" y="722"/>
      <point x="400" y="722" type="curve"/>
      <point x="320" y="722"/>
      <point x="242" y="722"/>
      <point x="163" y="722" type="curve"/>
      <point x="163" y="650"/>
      <point x="163" y="721"/>
      <point x="163" y="650" type="curve"/>
      <point x="240" y="650"/>
      <point x="317" y="650"/>
      <point x="395" y="650" type="curve"/>
      <point x="616" y="650"/>
      <point x="751" y="559"/>
      <point x="751" y="350" type="curve"/>
      <point x="751" y="156"/>
      <point x="625" y="72"/>
      <point x="419" y="72" type="curve"/>
      <point x="333" y="72"/>
      <point x="248" y="72"/>
      <point x="163" y="72" type="curve"/>
      <point x="163" y="1"/>
      <point x="163" y="72"/>
    </contour>
    <contour>
      <point x="35" y="323" type="curve"/>
      <point x="171" y="323"/>
      <point x="308" y="323"/>
      <point x="444" y="323" type="curve"/>
      <point x="444" y="403"/>
      <point x="444" y="323"/>
      <point x="444" y="403" type="curve"/>
      <point x="308" y="403"/>
      <point x="171" y="403"/>
      <point x="35" y="403" type="curve"/>
      <point x="35" y="323"/>
      <point x="35" y="403"/>
    </contour>
  </outline>
</glyph>
<glyph name="Ntilde" format="1">
  <advance width="979"/>
  <unicode hex="00D1"/>
  <outline>
    <contour>
      <point x="883" y="0" type="curve"/>
      <point x="658" y="240"/>
      <point x="436" y="482"/>
      <point x="212" y="722" type="curve"/>
      <point x="96" y="722"/>
      <point x="210" y="722"/>
      <point x="94" y="722" type="curve"/>
      <point x="318" y="482"/>
      <point x="541" y="240"/>
      <point x="765" y="0" type="curve"/>
      <point x="881" y="0"/>
      <point x="767" y="0"/>
    </contour>
    <contour>
      <point x="790" y="722" type="curve"/>
      <point x="790" y="481"/>
      <point x="790" y="241"/>
      <point x="790" y="0" type="curve"/>
      <point x="886" y="0"/>
      <point x="790" y="0"/>
      <point x="886" y="0" type="curve"/>
      <point x="886" y="241"/>
      <point x="886" y="481"/>
      <point x="886" y="722" type="curve"/>
      <point x="790" y="722"/>
      <point x="886" y="722"/>
    </contour>
    <contour>
      <point x="190" y="0" type="curve"/>
      <point x="190" y="241"/>
      <point x="190" y="481"/>
      <point x="190" y="722" type="curve"/>
      <point x="94" y="722"/>
      <point x="190" y="722"/>
      <point x="94" y="722" type="curve"/>
      <point x="94" y="481"/>
      <point x="94" y="241"/>
      <point x="94" y="0" type="curve"/>
      <point x="190" y="0"/>
      <point x="94" y="0"/>
    </contour>
    <contour>
      <point x="684" y="955" type="curve"/>
      <point x="670" y="909"/>
      <point x="648" y="870"/>
      <point x="607" y="870" type="curve"/>
      <point x="566" y="870"/>
      <point x="540" y="883"/>
      <point x="508" y="909" type="curve"/>
      <point x="467" y="943"/>
      <point x="435" y="960"/>
      <point x="382" y="960" type="curve"/>
      <point x="302" y="960"/>
      <point x="255" y="912"/>
      <point x="227" y="830" type="curve"/>
      <point x="298" y="797"/>
      <point x="228" y="830"/>
      <point x="299" y="797" type="curve"/>
      <point x="316" y="850"/>
      <point x="342" y="883"/>
      <point x="386" y="883" type="curve"/>
      <point x="424" y="883"/>
      <point x="445" y="867"/>
      <point x="474" y="844" type="curve"/>
      <point x="519" y="808"/>
      <point x="553" y="793"/>
      <point x="609" y="793" type="curve"/>
      <point x="690" y="793"/>
      <point x="732" y="845"/>
      <point x="760" y="924" type="curve"/>
      <point x="685" y="954"/>
      <point x="759" y="923"/>
    </contour>
  </outline>
</glyph>
<glyph name="Ocircumflex" format="1">
  <advance width="923"/>
  <unicode hex="00D4"/>
  <outline>
    <contour>
      <point x="149" y="360" type="curve" name="FullCurve"/>
      <point x="149" y="542"/>
      <point x="269" y="651"/>
      <point x="457" y="651" type="curve" name="FullCurve"/>
      <point x="648" y="651"/>
      <point x="774" y="546"/>
      <point x="774" y="363" type="curve" name="FullCurve"/>
      <point x="774" y="181"/>
      <point x="653" y="72"/>
      <point x="464" y="72" type="curve" name="FullCurve"/>
      <point x="273" y="72"/>
      <point x="149" y="177"/>
      <point x="149" y="360" type="curve" name="FullCurve"/>
      <point x="53" y="360"/>
      <point x="149" y="360"/>
      <point x="53" y="360" type="curve" name="FullCurve"/>
      <point x="53" y="126"/>
      <point x="217" y="-5"/>
      <point x="460" y="-5" type="curve" name="FullCurve"/>
      <point x="705" y="-5"/>
      <point x="870" y="127"/>
      <point x="870" y="363" type="curve" name="FullCurve"/>
      <point x="870" y="595"/>
      <point x="707" y="727"/>
      <point x="464" y="727" type="curve" name="FullCurve"/>
      <point x="218" y="727"/>
      <point x="53" y="595"/>
      <point x="53" y="360" type="curve" name="FullCurve"/>
      <point x="149" y="360"/>
      <point x="53" y="360"/>
    </contour>
    <contour>
      <point x="325" y="802" type="line"/>
      <point x="511" y="968" type="line"/>
      <point x="384" y="968" type="line"/>
      <point x="228" y="802" type="line"/>
    </contour>
    <contour>
      <point x="700" y="802" type="line"/>
      <point x="542" y="968" type="line"/>
      <point x="415" y="968" type="line"/>
      <point x="601" y="802" type="line"/>
    </contour>
  </outline>
</glyph>
<glyph name="Otilde" format="1">
  <advance width="923"/>
  <unicode hex="00D5"/>
  <outline>
    <contour>
      <point x="149" y="360" type="curve" name="FullCurve"/>
      <point x="149" y="542"/>
      <point x="269" y="651"/>
      <point x="457" y="651" type="curve" name="FullCurve"/>
      <point x="648" y="651"/>
      <point x="774" y="546"/>
      <point x="774" y="363" type="curve" name="FullCurve"/>
      <point x="774" y="181"/>
      <point x="653" y="72"/>
      <point x="464" y="72" type="curve" name="FullCurve"/>
      <point x="273" y="72"/>
      <point x="149" y="177"/>
      <point x="149" y="360" type="curve" name="FullCurve"/>
      <point x="53" y="360"/>
      <point x="149" y="360"/>
      <point x="53" y="360" type="curve" name="FullCurve"/>
      <point x="53" y="126"/>
      <point x="217" y="-5"/>
      <point x="460" y="-5" type="curve" name="FullCurve"/>
      <point x="705" y="-5"/>
      <point x="870" y="127"/>
      <point x="870" y="363" type="curve" name="FullCurve"/>
      <point x="870" y="595"/>
      <point x="707" y="727"/>
      <point x="464" y="727" type="curve" name="FullCurve"/>
      <point x="218" y="727"/>
      <point x="53" y="595"/>
      <point x="53" y="360" type="curve" name="FullCurve"/>
      <point x="149" y="360"/>
      <point x="53" y="360"/>
    </contour>
    <contour>
      <point x="654" y="955" type="curve"/>
      <point x="639" y="909"/>
      <point x="618" y="870"/>
      <point x="576" y="870" type="curve"/>
      <point x="535" y="870"/>
      <point x="509" y="883"/>
      <point x="478" y="909" type="curve"/>
      <point x="437" y="943"/>
      <point x="404" y="960"/>
      <point x="352" y="960" type="curve"/>
      <point x="271" y="960"/>
      <point x="224" y="912"/>
      <point x="196" y="830" type="curve"/>
      <point x="268" y="797"/>
      <point x="197" y="830"/>
      <point x="268" y="797" type="curve"/>
      <point x="286" y="850"/>
      <point x="311" y="883"/>
      <point x="355" y="883" type="curve"/>
      <point x="393" y="883"/>
      <point x="415" y="867"/>
      <point x="444" y="844" type="curve"/>
      <point x="489" y="808"/>
      <point x="523" y="793"/>
      <point x="578" y="793" type="curve"/>
      <point x="659" y="793"/>
      <point x="702" y="845"/>
      <point x="729" y="924" type="curve"/>
      <point x="654" y="954"/>
      <point x="729" y="923"/>
    </contour>
  </outline>
</glyph>
<glyph name="Odieresis" format="1">
  <advance width="923"/>
  <unicode hex="00D6"/>
  <outline>
    <contour>
      <point x="149" y="360" type="curve" name="FullCurve"/>
      <point x="149" y="542"/>
      <point x="269" y="651"/>
      <point x="457" y="651" type="curve" name="FullCurve"/>
      <point x="648" y="651"/>
      <point x="774" y="546"/>
      <point x="774" y="363" type="curve" name="FullCurve"/>
      <point x="774" y="181"/>
      <point x="653" y="72"/>
      <point x="464" y="72" type="curve" name="FullCurve"/>
      <point x="273" y="72"/>
      <point x="149" y="177"/>
      <point x="149" y="360" type="curve" name="FullCurve"/>
      <point x="53" y="360"/>
      <point x="149" y="360"/>
      <point x="53" y="360" type="curve" name="FullCurve"/>
      <point x="53" y="126"/>
      <point x="217" y="-5"/>
      <point x="460" y="-5" type="curve" name="FullCurve"/>
      <point x="705" y="-5"/>
      <point x="870" y="127"/>
      <point x="870" y="363" type="curve" name="FullCurve"/>
      <point x="870" y="595"/>
      <point x="707" y="727"/>
      <point x="464" y="727" type="curve" name="FullCurve"/>
      <point x="218" y="727"/>
      <point x="53" y="595"/>
      <point x="53" y="360" type="curve" name="FullCurve"/>
      <point x="149" y="360"/>
      <point x="53" y="360"/>
    </contour>
    <contour>
      <point x="423" y="847" type="curve"/>
      <point x="423" y="880"/>
      <point x="398" y="896"/>
      <point x="364" y="896" type="curve"/>
      <point x="330" y="896"/>
      <point x="307" y="878"/>
      <point x="307" y="847" type="curve"/>
      <point x="413" y="847"/>
      <point x="317" y="847"/>
      <point x="423" y="847" type="curve"/>
      <point x="423" y="814"/>
      <point x="398" y="799"/>
      <point x="363" y="799" type="curve"/>
      <point x="329" y="799"/>
      <point x="307" y="816"/>
      <point x="307" y="847" type="curve"/>
      <point x="413" y="847"/>
      <point x="317" y="847"/>
    </contour>
    <contour>
      <point x="621" y="847" type="curve"/>
      <point x="621" y="880"/>
      <point x="596" y="896"/>
      <point x="562" y="896" type="curve"/>
      <point x="528" y="896"/>
      <point x="505" y="878"/>
      <point x="505" y="847" type="curve"/>
      <point x="611" y="847"/>
      <point x="515" y="847"/>
      <point x="621" y="847" type="curve"/>
      <point x="621" y="814"/>
      <point x="596" y="799"/>
      <point x="561" y="799" type="curve"/>
      <point x="527" y="799"/>
      <point x="505" y="816"/>
      <point x="505" y="847" type="curve"/>
      <point x="611" y="847"/>
      <point x="515" y="847"/>
    </contour>
  </outline>
</glyph>
<glyph name="multiply" format="1">
  <advance width="584"/>
  <unicode hex="00D7"/>
  <outline>
    <contour>
      <point x="109" y="71" type="line"/>
      <point x="529" y="493" type="line"/>
      <point x="474" y="549" type="line"/>
      <point x="53" y="127" type="line"/>
    </contour>
    <contour>
      <point x="532" y="126" type="line"/>
      <point x="109" y="550" type="line"/>
      <point x="53" y="494" type="line"/>
      <point x="476" y="70" type="line"/>
    </contour>
  </outline>
</glyph>
<glyph name="Oslash" format="1">
  <advance width="923"/>
  <unicode hex="00D8"/>
  <outline>
    <contour>
      <point x="211" y="-72" type="line"/>
      <point x="771" y="746" type="line"/>
      <point x="707" y="783" type="line"/>
      <point x="153" y="-30" type="line"/>
    </contour>
    <contour>
      <point x="149" y="360" type="curve" name="FullCurve"/>
      <point x="149" y="542"/>
      <point x="269" y="651"/>
      <point x="457" y="651" type="curve" name="FullCurve"/>
      <point x="648" y="651"/>
      <point x="774" y="546"/>
      <point x="774" y="363" type="curve" name="FullCurve"/>
      <point x="774" y="181"/>
      <point x="653" y="72"/>
      <point x="464" y="72" type="curve" name="FullCurve"/>
      <point x="273" y="72"/>
      <point x="149" y="177"/>
      <point x="149" y="360" type="curve" name="FullCurve"/>
      <point x="53" y="360"/>
      <point x="149" y="360"/>
      <point x="53" y="360" type="curve" name="FullCurve"/>
      <point x="53" y="126"/>
      <point x="217" y="-5"/>
      <point x="460" y="-5" type="curve" name="FullCurve"/>
      <point x="705" y="-5"/>
      <point x="870" y="127"/>
      <point x="870" y="363" type="curve" name="FullCurve"/>
      <point x="870" y="595"/>
      <point x="707" y="727"/>
      <point x="464" y="727" type="curve" name="FullCurve"/>
      <point x="218" y="727"/>
      <point x="53" y="595"/>
      <point x="53" y="360" type="curve" name="FullCurve"/>
      <point x="149" y="360"/>
      <point x="53" y="360"/>
    </contour>
  </outline>
</glyph>
<glyph name="Uacute" format="1">
  <advance width="894"/>
  <unicode hex="00DA"/>
  <outline>
    <contour>
      <point x="86" y="722" type="curve"/>
      <point x="86" y="567"/>
      <point x="86" y="431"/>
      <point x="86" y="277" type="curve"/>
      <point x="86" y="70"/>
      <point x="222" y="-5"/>
      <point x="447" y="-5" type="curve"/>
      <point x="672" y="-5"/>
      <point x="808" y="72"/>
      <point x="808" y="280" type="curve"/>
      <point x="808" y="433"/>
      <point x="808" y="569"/>
      <point x="808" y="722" type="curve"/>
      <point x="727" y="722"/>
      <point x="802" y="722"/>
      <point x="721" y="722" type="curve"/>
      <point x="721" y="564"/>
      <point x="721" y="429"/>
      <point x="721" y="271" type="curve"/>
      <point x="721" y="127"/>
      <point x="617" y="74"/>
      <point x="455" y="74" type="curve"/>
      <point x="281" y="74"/>
      <point x="174" y="130"/>
      <point x="174" y="290" type="curve"/>
      <point x="174" y="439"/>
      <point x="174" y="573"/>
      <point x="174" y="722" type="curve"/>
      <point x="92" y="722"/>
      <point x="168" y="722"/>
    </contour>
    <contour>
      <point x="492" y="801" type="line"/>
      <point x="679" y="967" type="line"/>
      <point x="551" y="967" type="line"/>
      <point x="395" y="801" type="line"/>
    </contour>
  </outline>
</glyph>
